<svg version="1.1" viewBox="0.0 0.0 600.0 371.0" fill="none" stroke="none" stroke-linecap="square" stroke-miterlimit="10" width="600" height="371" xmlns:xlink="http://www.w3.org/1999/xlink" xmlns="http://www.w3.org/2000/svg"><path fill="#ffffff" d="M0 0L600.0 0L600.0 371.0L0 371.0L0 0Z" fill-rule="nonzero"/><path stroke="#333333" stroke-width="1.0" stroke-linecap="butt" d="M126.5 54.5L126.5 300.5" fill-rule="nonzero"/><path stroke="#cccccc" stroke-width="1.0" stroke-linecap="butt" d="M217.5 54.5L217.5 300.5" fill-rule="nonzero"/><path stroke="#cccccc" stroke-width="1.0" stroke-linecap="butt" d="M308.5 54.5L308.5 300.5" fill-rule="nonzero"/><path stroke="#cccccc" stroke-width="1.0" stroke-linecap="butt" d="M399.5 54.5L399.5 300.5" fill-rule="nonzero"/><path stroke="#cccccc" stroke-width="1.0" stroke-linecap="butt" d="M490.5 54.5L490.5 300.5" fill-rule="nonzero"/><path stroke="#cccccc" stroke-width="1.0" stroke-linecap="butt" d="M581.5 54.5L581.5 300.5" fill-rule="nonzero"/><clipPath id="id_0"><path d="M126.55 54.916668L581.45 54.916668L581.45 300.45L126.55 300.45L126.55 54.916668Z" clip-rule="nonzero"/></clipPath><path stroke="#000000" stroke-width="2.0" stroke-linecap="butt" stroke-opacity="0.0" clip-path="url(#id_0)" d="M127.0 128.0L127.0 80.0L375.0 80.0C376.10458 80.0 377.0 80.89543 377.0 82.0L377.0 126.0C377.0 127.10457 376.10458 128.0 375.0 128.0Z" fill-rule="nonzero"/><path fill="#4285f4" clip-path="url(#id_0)" d="M127.0 128.0L127.0 80.0L375.0 80.0C376.10458 80.0 377.0 80.89543 377.0 82.0L377.0 126.0C377.0 127.10457 376.10458 128.0 375.0 128.0Z" fill-rule="nonzero"/><path stroke="#000000" stroke-width="2.0" stroke-linecap="butt" stroke-opacity="0.0" clip-path="url(#id_0)" d="M127.0 202.0L127.0 154.0L577.0 154.0C578.10455 154.0 579.0 154.89543 579.0 156.0L579.0 200.0C579.0 201.10457 578.10455 202.0 577.0 202.0Z" fill-rule="nonzero"/><path fill="#4285f4" clip-path="url(#id_0)" d="M127.0 202.0L127.0 154.0L577.0 154.0C578.10455 154.0 579.0 154.89543 579.0 156.0L579.0 200.0C579.0 201.10457 578.10455 202.0 577.0 202.0Z" fill-rule="nonzero"/><path stroke="#000000" stroke-width="2.0" stroke-linecap="butt" stroke-opacity="0.0" clip-path="url(#id_0)" d="M127.0 275.0L127.0 227.0L335.0 227.0C336.10458 227.0 337.0 227.89543 337.0 229.0L337.0 273.0C337.0 274.10458 336.10458 275.0 335.0 275.0Z" fill-rule="nonzero"/><path fill="#4285f4" clip-path="url(#id_0)" d="M127.0 275.0L127.0 227.0L335.0 227.0C336.10458 227.0 337.0 227.89543 337.0 229.0L337.0 273.0C337.0 274.10458 336.10458 275.0 335.0 275.0Z" fill-rule="nonzero"/><path fill="#000000" d="M288.48438 349.45L291.78125 340.85626L293.0 340.85626L296.51562 349.45L295.23438 349.45L294.21875 346.84064L290.64062 346.84064L289.6875 349.45L288.48438 349.45ZM290.96875 345.91876L293.875 345.91876L292.98438 343.54376Q292.5625 342.46564 292.375 341.7625Q292.20312 342.59064 291.90625 343.40314L290.96875 345.91876ZM298.875 349.45L295.54688 340.85626L296.78125 340.85626L299.01562 347.10626Q299.28125 347.85626 299.46875 348.5125Q299.67188 347.8094 299.9375 347.10626L302.25 340.85626L303.40625 340.85626L300.04688 349.45L298.875 349.45ZM303.45312 349.45L303.45312 340.85626L309.65625 340.85626L309.65625 341.8719L304.59375 341.8719L304.59375 344.4969L309.34375 344.4969L309.34375 345.5125L304.59375 345.5125L304.59375 348.4344L309.85938 348.4344L309.85938 349.45L303.45312 349.45ZM311.4375 349.45L311.4375 340.85626L315.25 340.85626Q316.40625 340.85626 317.0 341.09064Q317.59375 341.325 317.95312 341.91876Q318.3125 342.4969 318.3125 343.2Q318.3125 344.1219 317.71875 344.7469Q317.125 345.3719 315.89062 345.54376Q316.34375 345.7625 316.57812 345.96564Q317.07812 346.41876 317.51562 347.10626L319.01562 349.45L317.57812 349.45L316.45312 347.66876Q315.95312 346.8875 315.625 346.48126Q315.3125 346.075 315.04688 345.91876Q314.79688 345.7469 314.53125 345.66876Q314.34375 345.6375 313.90625 345.6375L312.57812 345.6375L312.57812 349.45L311.4375 349.45ZM312.57812 344.65314L315.03125 344.65314Q315.79688 344.65314 316.23438 344.4969Q316.6875 344.325 316.90625 343.98126Q317.14062 343.6219 317.14062 343.2Q317.14062 342.59064 316.6875 342.2Q316.25 341.8094 315.29688 341.8094L312.57812 341.8094L312.57812 344.65314ZM319.48438 349.45L322.78125 340.85626L324.0 340.85626L327.51562 349.45L326.23438 349.45L325.21875 346.84064L321.64062 346.84064L320.6875 349.45L319.48438 349.45ZM321.96875 345.91876L324.875 345.91876L323.98438 343.54376Q323.5625 342.46564 323.375 341.7625Q323.20312 342.59064 322.90625 343.40314L321.96875 345.91876ZM331.45312 346.075L331.45312 345.075L335.07812 345.0594L335.07812 348.2469Q334.25 348.91876 333.35938 349.2625Q332.46875 349.59064 331.53125 349.59064Q330.26562 349.59064 329.21875 349.0594Q328.1875 348.5125 327.65625 347.4969Q327.14062 346.46564 327.14062 345.2Q327.14062 343.9344 327.65625 342.85626Q328.1875 341.7625 329.17188 341.2469Q330.15625 340.71564 331.4375 340.71564Q332.375 340.71564 333.125 341.0125Q333.875 341.3094 334.29688 341.85626Q334.73438 342.3875 334.95312 343.2625L333.9375 343.54376Q333.73438 342.8875 333.4375 342.5125Q333.15625 342.1375 332.625 341.91876Q332.09375 341.6844 331.45312 341.6844Q330.67188 341.6844 330.09375 341.91876Q329.53125 342.15314 329.17188 342.54376Q328.82812 342.9344 328.64062 343.40314Q328.3125 344.2 328.3125 345.1219Q328.3125 346.27814 328.70312 347.0594Q329.10938 347.825 329.85938 348.2Q330.60938 348.575 331.46875 348.575Q332.20312 348.575 332.90625 348.29376Q333.60938 347.9969 333.96875 347.6844L333.96875 346.075L331.45312 346.075ZM336.45312 349.45L336.45312 340.85626L342.65625 340.85626L342.65625 341.8719L337.59375 341.8719L337.59375 344.4969L342.34375 344.4969L342.34375 345.5125L337.59375 345.5125L337.59375 348.4344L342.85938 348.4344L342.85938 349.45L336.45312 349.45ZM346.90625 346.34064Q346.90625 344.60626 347.85938 343.77814Q348.65625 343.09064 349.8125 343.09064Q351.09375 343.09064 351.90625 343.9344Q352.73438 344.7625 352.73438 346.2469Q352.73438 347.45 352.375 348.1375Q352.01562 348.825 351.3125 349.21564Q350.625 349.59064 349.8125 349.59064Q348.51562 349.59064 347.70312 348.7625Q346.90625 347.91876 346.90625 346.34064ZM347.98438 346.34064Q347.98438 347.52814 348.5 348.1219Q349.03125 348.71564 349.8125 348.71564Q350.60938 348.71564 351.125 348.1219Q351.64062 347.52814 351.64062 346.3094Q351.64062 345.15314 351.10938 344.5594Q350.59375 343.96564 349.8125 343.96564Q349.03125 343.96564 348.5 344.5594Q347.98438 345.1375 347.98438 346.34064ZM354.54688 349.45L354.54688 344.04376L353.60938 344.04376L353.60938 343.23126L354.54688 343.23126L354.54688 342.5594Q354.54688 341.9344 354.65625 341.6375Q354.8125 341.21564 355.1875 340.96564Q355.57812 340.71564 356.26562 340.71564Q356.71875 340.71564 357.25 340.825L357.09375 341.73126Q356.76562 341.6844 356.46875 341.6844Q355.98438 341.6844 355.78125 341.8875Q355.59375 342.09064 355.59375 342.65314L355.59375 343.23126L356.8125 343.23126L356.8125 344.04376L355.59375 344.04376L355.59375 349.45L354.54688 349.45ZM362.60938 349.45L362.60938 341.8719L359.78125 341.8719L359.78125 340.85626L366.59375 340.85626L366.59375 341.8719L363.75 341.8719L363.75 349.45L362.60938 349.45ZM367.29688 342.075L367.29688 340.85626L368.35938 340.85626L368.35938 342.075L367.29688 342.075ZM367.29688 349.45L367.29688 343.23126L368.35938 343.23126L368.35938 349.45L367.29688 349.45ZM370.29688 349.45L370.29688 343.23126L371.23438 343.23126L371.23438 344.10626Q371.53125 343.6375 372.01562 343.3719Q372.5 343.09064 373.125 343.09064Q373.8125 343.09064 374.25 343.3719Q374.70312 343.65314 374.875 344.16876Q375.625 343.09064 376.79688 343.09064Q377.73438 343.09064 378.21875 343.60626Q378.71875 344.10626 378.71875 345.1844L378.71875 349.45L377.67188 349.45L377.67188 345.52814Q377.67188 344.90314 377.5625 344.6219Q377.46875 344.34064 377.20312 344.16876Q376.9375 343.9969 376.5625 343.9969Q375.90625 343.9969 375.46875 344.4344Q375.04688 344.8719 375.04688 345.84064L375.04688 349.45L373.98438 349.45L373.98438 345.40314Q373.98438 344.7 373.71875 344.35626Q373.46875 343.9969 372.89062 343.9969Q372.4375 343.9969 372.0625 344.23126Q371.6875 344.46564 371.51562 344.91876Q371.34375 345.3719 371.34375 346.21564L371.34375 349.45L370.29688 349.45ZM385.54688 347.45L386.64062 347.575Q386.39062 348.52814 385.6875 349.0594Q384.98438 349.59064 383.90625 349.59064Q382.54688 349.59064 381.73438 348.7469Q380.9375 347.90314 380.9375 346.3875Q380.9375 344.825 381.75 343.96564Q382.5625 343.09064 383.84375 343.09064Q385.09375 343.09064 385.875 343.9344Q386.67188 344.77814 386.67188 346.325Q386.67188 346.41876 386.67188 346.60626L382.03125 346.60626Q382.09375 347.6375 382.60938 348.1844Q383.125 348.71564 383.90625 348.71564Q384.48438 348.71564 384.89062 348.41876Q385.3125 348.10626 385.54688 347.45ZM382.09375 345.7469L385.5625 345.7469Q385.5 344.95 385.17188 344.5594Q384.65625 343.95 383.85938 343.95Q383.125 343.95 382.625 344.4344Q382.14062 344.91876 382.09375 345.7469ZM393.3125 351.98126Q392.4375 350.8719 391.82812 349.40314Q391.23438 347.91876 391.23438 346.34064Q391.23438 344.95 391.67188 343.66876Q392.20312 342.1844 393.3125 340.71564L394.0625 340.71564Q393.35938 341.9344 393.125 342.45Q392.76562 343.2625 392.5625 344.1375Q392.3125 345.23126 392.3125 346.34064Q392.3125 349.16876 394.0625 351.98126L393.3125 351.98126ZM395.29688 349.45L395.29688 343.23126L396.23438 343.23126L396.23438 344.10626Q396.53125 343.6375 397.01562 343.3719Q397.5 343.09064 398.125 343.09064Q398.8125 343.09064 399.25 343.3719Q399.70312 343.65314 399.875 344.16876Q400.625 343.09064 401.79688 343.09064Q402.73438 343.09064 403.21875 343.60626Q403.71875 344.10626 403.71875 345.1844L403.71875 349.45L402.67188 349.45L402.67188 345.52814Q402.67188 344.90314 402.5625 344.6219Q402.46875 344.34064 402.20312 344.16876Q401.9375 343.9969 401.5625 343.9969Q400.90625 343.9969 400.46875 344.4344Q400.04688 344.8719 400.04688 345.84064L400.04688 349.45L398.98438 349.45L398.98438 345.40314Q398.98438 344.7 398.71875 344.35626Q398.46875 343.9969 397.89062 343.9969Q397.4375 343.9969 397.0625 344.23126Q396.6875 344.46564 396.51562 344.91876Q396.34375 345.3719 396.34375 346.21564L396.34375 349.45L395.29688 349.45ZM406.29688 342.075L406.29688 340.85626L407.35938 340.85626L407.35938 342.075L406.29688 342.075ZM406.29688 349.45L406.29688 343.23126L407.35938 343.23126L407.35938 349.45L406.29688 349.45ZM409.29688 349.45L409.29688 343.23126L410.23438 343.23126L410.23438 344.10626Q410.92188 343.09064 412.21875 343.09064Q412.78125 343.09064 413.25 343.29376Q413.73438 343.4969 413.96875 343.825Q414.20312 344.15314 414.29688 344.59064Q414.34375 344.8875 414.34375 345.6219L414.34375 349.45L413.29688 349.45L413.29688 345.66876Q413.29688 345.0125 413.17188 344.7Q413.04688 344.3875 412.73438 344.2Q412.42188 343.9969 412.0 343.9969Q411.32812 343.9969 410.82812 344.4344Q410.34375 344.85626 410.34375 346.04376L410.34375 349.45L409.29688 349.45ZM416.98438 351.98126L416.23438 351.98126Q417.98438 349.16876 417.98438 346.34064Q417.98438 345.2469 417.73438 344.15314Q417.53125 343.27814 417.17188 342.46564Q416.9375 341.95 416.23438 340.71564L416.98438 340.71564Q418.07812 342.1844 418.60938 343.66876Q419.0625 344.95 419.0625 346.34064Q419.0625 347.91876 418.45312 349.40314Q417.84375 350.8719 416.98438 351.98126Z" fill-rule="nonzero"/><path fill="#000000" d="M26.534388 190.62083L26.831263 189.49583Q28.221888 189.85521 28.956263 190.77708Q29.690638 191.69896 29.690638 193.04271Q29.690638 194.43333 29.128138 195.30833Q28.565638 196.18333 27.503138 196.63646Q26.425013 197.08958 25.190638 197.08958Q23.846888 197.08958 22.846888 196.57396Q21.846888 196.05833 21.331263 195.12083Q20.815638 194.16771 20.815638 193.02708Q20.815638 191.74583 21.471888 190.87083Q22.128138 189.98021 23.315638 189.63646L23.581263 190.76146Q22.643763 191.05833 22.221888 191.63646Q21.784388 192.19896 21.784388 193.05833Q21.784388 194.04271 22.268763 194.71458Q22.737513 195.37083 23.534388 195.65208Q24.331263 195.91771 25.190638 195.91771Q26.284388 195.91771 27.096888 195.60521Q27.909388 195.27708 28.315638 194.60521Q28.721888 193.93333 28.721888 193.13646Q28.721888 192.18333 28.175013 191.52708Q27.628138 190.85521 26.534388 190.62083ZM22.175013 187.88646L20.956263 187.88646L20.956263 186.82396L22.175013 186.82396L22.175013 187.88646ZM29.550013 187.88646L23.331263 187.88646L23.331263 186.82396L29.550013 186.82396L29.550013 187.88646ZM28.612513 182.58958L29.534388 182.43333Q29.628138 182.88646 29.628138 183.23021Q29.628138 183.80833 29.456263 184.12083Q29.268763 184.43333 28.971888 184.57396Q28.675013 184.69896 27.721888 184.69896L24.143763 184.69896L24.143763 185.46458L23.331263 185.46458L23.331263 184.69896L21.784388 184.69896L21.159388 183.65208L23.331263 183.65208L23.331263 182.58958L24.143763 182.58958L24.143763 183.65208L27.784388 183.65208Q28.237513 183.65208 28.362513 183.60521Q28.487513 183.54271 28.565638 183.41771Q28.643763 183.29271 28.643763 183.05833Q28.643763 182.87083 28.612513 182.58958ZM31.940638 181.93333L30.956263 182.05833Q31.050013 181.71458 31.050013 181.44896Q31.050013 181.10521 30.925013 180.90208Q30.815638 180.68333 30.612513 180.54271Q30.440638 180.44896 29.815638 180.21458Q29.737513 180.19896 29.565638 180.12083L23.331263 182.49583L23.331263 181.35521L26.925013 180.05833Q27.612513 179.80833 28.378138 179.60521Q27.643763 179.41771 26.956263 179.16771L23.331263 177.83958L23.331263 176.79271L29.659388 179.15208Q30.675013 179.54271 31.065638 179.74583Q31.596888 180.02708 31.831263 180.40208Q32.08126 180.76146 32.08126 181.26146Q32.08126 181.55833 31.940638 181.93333Z" fill-rule="nonzero"/><path fill="#000000" d="M51.440624 108.3898L51.440624 99.79605L53.159374 99.79605L55.190624 105.874176Q55.471874 106.73355 55.596874 107.155426Q55.7375 106.686676 56.05 105.780426L58.1125 99.79605L59.64375 99.79605L59.64375 108.3898L58.55 108.3898L58.55 101.2023L56.05 108.3898L55.01875 108.3898L52.534374 101.0773L52.534374 108.3898L51.440624 108.3898ZM64.59688 106.3898L65.69063 106.5148Q65.44063 107.467926 64.7375 107.999176Q64.03438 108.530426 62.95625 108.530426Q61.596874 108.530426 60.784374 107.686676Q59.9875 106.842926 59.9875 105.3273Q59.9875 103.7648 60.8 102.905426Q61.6125 102.030426 62.89375 102.030426Q64.14375 102.030426 64.925 102.874176Q65.72188 103.717926 65.72188 105.2648Q65.72188 105.35855 65.72188 105.54605L61.08125 105.54605Q61.14375 106.5773 61.659374 107.124176Q62.175 107.655426 62.95625 107.655426Q63.534374 107.655426 63.940624 107.35855Q64.3625 107.04605 64.59688 106.3898ZM61.14375 104.686676L64.6125 104.686676Q64.55 103.8898 64.22188 103.499176Q63.70625 102.8898 62.909374 102.8898Q62.175 102.8898 61.675 103.374176Q61.190624 103.85855 61.14375 104.686676ZM69.64375 107.4523L69.8 108.374176Q69.34688 108.467926 69.00313 108.467926Q68.425 108.467926 68.1125 108.29605Q67.8 108.10855 67.65938 107.811676Q67.53438 107.5148 67.53438 106.561676L67.53438 102.98355L66.76875 102.98355L66.76875 102.17105L67.53438 102.17105L67.53438 100.624176L68.58125 99.999176L68.58125 102.17105L69.64375 102.17105L69.64375 102.98355L68.58125 102.98355L68.58125 106.624176Q68.58125 107.0773 68.62813 107.2023Q68.69063 107.3273 68.81563 107.405426Q68.94063 107.48355 69.175 107.48355Q69.3625 107.48355 69.64375 107.4523ZM70.33125 108.3898L70.33125 102.17105L71.28438 102.17105L71.28438 103.10855Q71.64375 102.4523 71.94063 102.249176Q72.25313 102.030426 72.62813 102.030426Q73.15938 102.030426 73.70625 102.35855L73.34688 103.342926Q72.95625 103.10855 72.58125 103.10855Q72.22188 103.10855 71.94063 103.3273Q71.675 103.530426 71.56563 103.905426Q71.37813 104.467926 71.37813 105.124176L71.37813 108.3898L70.33125 108.3898ZM73.95625 105.280426Q73.95625 103.54605 74.90938 102.717926Q75.70625 102.030426 76.8625 102.030426Q78.14375 102.030426 78.95625 102.874176Q79.78438 103.7023 79.78438 105.186676Q79.78438 106.3898 79.425 107.0773Q79.06563 107.7648 78.3625 108.155426Q77.675 108.530426 76.8625 108.530426Q75.56563 108.530426 74.75313 107.7023Q73.95625 106.85855 73.95625 105.280426ZM75.03438 105.280426Q75.03438 106.467926 75.55 107.061676Q76.08125 107.655426 76.8625 107.655426Q77.65938 107.655426 78.175 107.061676Q78.69063 106.467926 78.69063 105.249176Q78.69063 104.092926 78.15938 103.499176Q77.64375 102.905426 76.8625 102.905426Q76.08125 102.905426 75.55 103.499176Q75.03438 104.0773 75.03438 105.280426ZM81.34688 110.780426L81.34688 102.17105L82.3 102.17105L82.3 102.967926Q82.64375 102.499176 83.06563 102.2648Q83.50313 102.030426 84.1125 102.030426Q84.90938 102.030426 85.51875 102.436676Q86.12813 102.842926 86.425 103.592926Q86.7375 104.342926 86.7375 105.23355Q86.7375 106.186676 86.39375 106.9523Q86.06563 107.717926 85.40938 108.124176Q84.75313 108.530426 84.03438 108.530426Q83.50313 108.530426 83.08125 108.311676Q82.65938 108.0773 82.39375 107.749176L82.39375 110.780426L81.34688 110.780426ZM82.3 105.311676Q82.3 106.5148 82.78438 107.092926Q83.26875 107.655426 83.95625 107.655426Q84.65938 107.655426 85.15938 107.061676Q85.65938 106.467926 85.65938 105.217926Q85.65938 104.030426 85.175 103.4523Q84.69063 102.85855 84.00313 102.85855Q83.33125 102.85855 82.81563 103.48355Q82.3 104.10855 82.3 105.311676ZM87.95625 105.280426Q87.95625 103.54605 88.90938 102.717926Q89.70625 102.030426 90.8625 102.030426Q92.14375 102.030426 92.95625 102.874176Q93.78438 103.7023 93.78438 105.186676Q93.78438 106.3898 93.425 107.0773Q93.06563 107.7648 92.3625 108.155426Q91.675 108.530426 90.8625 108.530426Q89.56563 108.530426 88.75313 107.7023Q87.95625 106.85855 87.95625 105.280426ZM89.03438 105.280426Q89.03438 106.467926 89.55 107.061676Q90.08125 107.655426 90.8625 107.655426Q91.65938 107.655426 92.175 107.061676Q92.69063 106.467926 92.69063 105.249176Q92.69063 104.092926 92.15938 103.499176Q91.64375 102.905426 90.8625 102.905426Q90.08125 102.905426 89.55 103.499176Q89.03438 104.0773 89.03438 105.280426ZM95.31563 108.3898L95.31563 99.79605L96.37813 99.79605L96.37813 108.3898L95.31563 108.3898ZM98.34688 101.0148L98.34688 99.79605L99.40938 99.79605L99.40938 101.0148L98.34688 101.0148ZM98.34688 108.3898L98.34688 102.17105L99.40938 102.17105L99.40938 108.3898L98.34688 108.3898ZM103.64375 107.4523L103.8 108.374176Q103.34688 108.467926 103.00313 108.467926Q102.425 108.467926 102.1125 108.29605Q101.8 108.10855 101.65938 107.811676Q101.53438 107.5148 101.53438 106.561676L101.53438 102.98355L100.76875 102.98355L100.76875 102.17105L101.53438 102.17105L101.53438 100.624176L102.58125 99.999176L102.58125 102.17105L103.64375 102.17105L103.64375 102.98355L102.58125 102.98355L102.58125 106.624176Q102.58125 107.0773 102.62813 107.2023Q102.69063 107.3273 102.81563 107.405426Q102.94063 107.48355 103.175 107.48355Q103.3625 107.48355 103.64375 107.4523ZM104.34688 101.0148L104.34688 99.79605L105.40938 99.79605L105.40938 101.0148L104.34688 101.0148ZM104.34688 108.3898L104.34688 102.17105L105.40938 102.17105L105.40938 108.3898L104.34688 108.3898ZM111.40938 107.624176Q110.81563 108.124176 110.26875 108.3273Q109.7375 108.530426 109.1125 108.530426Q108.08125 108.530426 107.53438 108.030426Q106.9875 107.530426 106.9875 106.749176Q106.9875 106.29605 107.19063 105.92105Q107.39375 105.530426 107.7375 105.311676Q108.08125 105.0773 108.50313 104.967926Q108.8 104.874176 109.44063 104.79605Q110.70625 104.655426 111.31563 104.436676Q111.31563 104.217926 111.31563 104.17105Q111.31563 103.5148 111.01875 103.249176Q110.6125 102.905426 109.81563 102.905426Q109.08125 102.905426 108.72188 103.17105Q108.3625 103.42105 108.19063 104.0773L107.15938 103.936676Q107.3 103.280426 107.62813 102.874176Q107.95625 102.467926 108.56563 102.249176Q109.175 102.030426 109.97188 102.030426Q110.76875 102.030426 111.26875 102.217926Q111.76875 102.405426 112.00313 102.686676Q112.2375 102.967926 112.33125 103.405426Q112.37813 103.67105 112.37813 104.374176L112.37813 105.780426Q112.37813 107.249176 112.44063 107.6398Q112.51875 108.030426 112.72188 108.3898L111.6125 108.3898Q111.45625 108.061676 111.40938 107.624176ZM111.31563 105.2648Q110.7375 105.499176 109.59688 105.67105Q108.94063 105.7648 108.675 105.8898Q108.40938 105.999176 108.25313 106.217926Q108.1125 106.436676 108.1125 106.717926Q108.1125 107.1398 108.425 107.42105Q108.75313 107.7023 109.3625 107.7023Q109.97188 107.7023 110.44063 107.436676Q110.925 107.17105 111.14375 106.7023Q111.31563 106.342926 111.31563 105.655426L111.31563 105.2648ZM114.34688 108.3898L114.34688 102.17105L115.28438 102.17105L115.28438 103.04605Q115.97188 102.030426 117.26875 102.030426Q117.83125 102.030426 118.3 102.23355Q118.78438 102.436676 119.01875 102.7648Q119.25313 103.092926 119.34688 103.530426Q119.39375 103.8273 119.39375 104.561676L119.39375 108.3898L118.34688 108.3898L118.34688 104.60855Q118.34688 103.9523 118.22188 103.6398Q118.09688 103.3273 117.78438 103.1398Q117.47188 102.936676 117.05 102.936676Q116.37813 102.936676 115.87813 103.374176Q115.39375 103.79605 115.39375 104.98355L115.39375 108.3898L114.34688 108.3898Z" fill-rule="nonzero"/><path fill="#000000" d="M54.096874 178.91771L55.159374 178.82396Q55.2375 179.48021 55.51875 179.88646Q55.8 180.29271 56.378124 180.55833Q56.971874 180.80833 57.70625 180.80833Q58.346874 180.80833 58.846874 180.62083Q59.346874 180.41771 59.58125 180.08958Q59.83125 179.74583 59.83125 179.35521Q59.83125 178.94896 59.596874 178.65208Q59.3625 178.33958 58.83125 178.13646Q58.471874 177.99583 57.284374 177.71458Q56.1125 177.43333 55.64375 177.18333Q55.01875 176.85521 54.721874 176.38646Q54.425 175.90208 54.425 175.30833Q54.425 174.66771 54.784374 174.10521Q55.159374 173.52708 55.8625 173.24583Q56.58125 172.94896 57.440624 172.94896Q58.39375 172.94896 59.128124 173.26146Q59.8625 173.55833 60.253124 174.16771Q60.64375 174.76146 60.675 175.51146L59.58125 175.58958Q59.4875 174.77708 58.971874 174.37083Q58.471874 173.94896 57.4875 173.94896Q56.45625 173.94896 55.9875 174.32396Q55.51875 174.69896 55.51875 175.23021Q55.51875 175.69896 55.846874 175.99583Q56.175 176.29271 57.55 176.60521Q58.940624 176.91771 59.45625 177.15208Q60.20625 177.51146 60.565624 178.04271Q60.925 178.55833 60.925 179.26146Q60.925 179.94896 60.534374 180.55833Q60.14375 181.15208 59.409374 181.49583Q58.675 181.82396 57.753124 181.82396Q56.58125 181.82396 55.784374 181.49583Q55.003124 181.15208 54.55 180.46458Q54.1125 179.77708 54.096874 178.91771ZM66.59688 179.68333L67.69063 179.80833Q67.44063 180.76146 66.7375 181.29271Q66.03438 181.82396 64.95625 181.82396Q63.596874 181.82396 62.784374 180.98021Q61.9875 180.13646 61.9875 178.62083Q61.9875 177.05833 62.8 176.19896Q63.6125 175.32396 64.89375 175.32396Q66.14375 175.32396 66.925 176.16771Q67.72188 177.01146 67.72188 178.55833Q67.72188 178.65208 67.72188 178.83958L63.08125 178.83958Q63.14375 179.87083 63.659374 180.41771Q64.175 180.94896 64.95625 180.94896Q65.53438 180.94896 65.94063 180.65208Q66.3625 180.33958 66.59688 179.68333ZM63.14375 177.98021L66.6125 177.98021Q66.55 177.18333 66.22188 176.79271Q65.70625 176.18333 64.90938 176.18333Q64.175 176.18333 63.675 176.66771Q63.190624 177.15208 63.14375 177.98021ZM69.34688 181.68333L69.34688 175.46458L70.28438 175.46458L70.28438 176.33958Q70.58125 175.87083 71.06563 175.60521Q71.55 175.32396 72.175 175.32396Q72.8625 175.32396 73.3 175.60521Q73.75313 175.88646 73.925 176.40208Q74.675 175.32396 75.84688 175.32396Q76.78438 175.32396 77.26875 175.83958Q77.76875 176.33958 77.76875 177.41771L77.76875 181.68333L76.72188 181.68333L76.72188 177.76146Q76.72188 177.13646 76.6125 176.85521Q76.51875 176.57396 76.25313 176.40208Q75.9875 176.23021 75.6125 176.23021Q74.95625 176.23021 74.51875 176.66771Q74.09688 177.10521 74.09688 178.07396L74.09688 181.68333L73.03438 181.68333L73.03438 177.63646Q73.03438 176.93333 72.76875 176.58958Q72.51875 176.23021 71.94063 176.23021Q71.4875 176.23021 71.1125 176.46458Q70.7375 176.69896 70.56563 177.15208Q70.39375 177.60521 70.39375 178.44896L70.39375 181.68333L69.34688 181.68333ZM80.34688 174.30833L80.34688 173.08958L81.40938 173.08958L81.40938 174.30833L80.34688 174.30833ZM80.34688 181.68333L80.34688 175.46458L81.40938 175.46458L81.40938 181.68333L80.34688 181.68333ZM82.925 179.10521L82.925 178.04271L86.175 178.04271L86.175 179.10521L82.925 179.10521ZM93.1125 173.08958L94.25313 173.08958L94.25313 178.05833Q94.25313 179.35521 93.95625 180.12083Q93.65938 180.87083 92.89375 181.35521Q92.12813 181.82396 90.89375 181.82396Q89.69063 181.82396 88.90938 181.41771Q88.14375 180.99583 87.81563 180.21458Q87.4875 179.41771 87.4875 178.05833L87.4875 173.08958L88.62813 173.08958L88.62813 178.04271Q88.62813 179.16771 88.83125 179.69896Q89.05 180.23021 89.55 180.52708Q90.06563 180.80833 90.8 180.80833Q92.05 180.80833 92.58125 180.24583Q93.1125 179.66771 93.1125 178.04271L93.1125 173.08958ZM96.33125 181.68333L96.33125 175.46458L97.28438 175.46458L97.28438 176.40208Q97.64375 175.74583 97.94063 175.54271Q98.25313 175.32396 98.62813 175.32396Q99.15938 175.32396 99.70625 175.65208L99.34688 176.63646Q98.95625 176.40208 98.58125 176.40208Q98.22188 176.40208 97.94063 176.62083Q97.675 176.82396 97.56563 177.19896Q97.37813 177.76146 97.37813 178.41771L97.37813 181.68333L96.33125 181.68333ZM101.31563 181.68333L100.33125 181.68333L100.33125 173.08958L101.39375 173.08958L101.39375 176.15208Q102.06563 175.32396 103.09688 175.32396Q103.675 175.32396 104.175 175.55833Q104.69063 175.77708 105.01875 176.19896Q105.3625 176.62083 105.55 177.21458Q105.7375 177.80833 105.7375 178.48021Q105.7375 180.07396 104.94063 180.94896Q104.14375 181.82396 103.05 181.82396Q101.94063 181.82396 101.31563 180.90208L101.31563 181.68333ZM101.3 178.52708Q101.3 179.63646 101.6125 180.13646Q102.1125 180.94896 102.95625 180.94896Q103.64375 180.94896 104.14375 180.35521Q104.65938 179.76146 104.65938 178.55833Q104.65938 177.33958 104.175 176.76146Q103.69063 176.18333 103.00313 176.18333Q102.31563 176.18333 101.8 176.79271Q101.3 177.38646 101.3 178.52708ZM111.40938 180.91771Q110.81563 181.41771 110.26875 181.62083Q109.7375 181.82396 109.1125 181.82396Q108.08125 181.82396 107.53438 181.32396Q106.9875 180.82396 106.9875 180.04271Q106.9875 179.58958 107.19063 179.21458Q107.39375 178.82396 107.7375 178.60521Q108.08125 178.37083 108.50313 178.26146Q108.8 178.16771 109.44063 178.08958Q110.70625 177.94896 111.31563 177.73021Q111.31563 177.51146 111.31563 177.46458Q111.31563 176.80833 111.01875 176.54271Q110.6125 176.19896 109.81563 176.19896Q109.08125 176.19896 108.72188 176.46458Q108.3625 176.71458 108.19063 177.37083L107.15938 177.23021Q107.3 176.57396 107.62813 176.16771Q107.95625 175.76146 108.56563 175.54271Q109.175 175.32396 109.97188 175.32396Q110.76875 175.32396 111.26875 175.51146Q111.76875 175.69896 112.00313 175.98021Q112.2375 176.26146 112.33125 176.69896Q112.37813 176.96458 112.37813 177.66771L112.37813 179.07396Q112.37813 180.54271 112.44063 180.93333Q112.51875 181.32396 112.72188 181.68333L111.6125 181.68333Q111.45625 181.35521 111.40938 180.91771ZM111.31563 178.55833Q110.7375 178.79271 109.59688 178.96458Q108.94063 179.05833 108.675 179.18333Q108.40938 179.29271 108.25313 179.51146Q108.1125 179.73021 108.1125 180.01146Q108.1125 180.43333 108.425 180.71458Q108.75313 180.99583 109.3625 180.99583Q109.97188 180.99583 110.44063 180.73021Q110.925 180.46458 111.14375 179.99583Q111.31563 179.63646 111.31563 178.94896L111.31563 178.55833ZM114.34688 181.68333L114.34688 175.46458L115.28438 175.46458L115.28438 176.33958Q115.97188 175.32396 117.26875 175.32396Q117.83125 175.32396 118.3 175.52708Q118.78438 175.73021 119.01875 176.05833Q119.25313 176.38646 119.34688 176.82396Q119.39375 177.12083 119.39375 177.85521L119.39375 181.68333L118.34688 181.68333L118.34688 177.90208Q118.34688 177.24583 118.22188 176.93333Q118.09688 176.62083 117.78438 176.43333Q117.47188 176.23021 117.05 176.23021Q116.37813 176.23021 115.87813 176.66771Q115.39375 177.08958 115.39375 178.27708L115.39375 181.68333L114.34688 181.68333Z" fill-rule="nonzero"/><path fill="#000000" d="M93.1125 246.38312L94.25313 246.38312L94.25313 251.35187Q94.25313 252.64874 93.95625 253.41437Q93.65938 254.16437 92.89375 254.64874Q92.12813 255.1175 90.89375 255.1175Q89.69063 255.1175 88.90938 254.71124Q88.14375 254.28937 87.81563 253.50812Q87.4875 252.71124 87.4875 251.35187L87.4875 246.38312L88.62813 246.38312L88.62813 251.33624Q88.62813 252.46124 88.83125 252.9925Q89.05 253.52374 89.55 253.82062Q90.06563 254.10187 90.8 254.10187Q92.05 254.10187 92.58125 253.53937Q93.1125 252.96124 93.1125 251.33624L93.1125 246.38312ZM96.33125 254.97687L96.33125 248.75812L97.28438 248.75812L97.28438 249.69562Q97.64375 249.03937 97.94063 248.83624Q98.25313 248.6175 98.62813 248.6175Q99.15938 248.6175 99.70625 248.94562L99.34688 249.93Q98.95625 249.69562 98.58125 249.69562Q98.22188 249.69562 97.94063 249.91437Q97.675 250.1175 97.56563 250.4925Q97.37813 251.055 97.37813 251.71124L97.37813 254.97687L96.33125 254.97687ZM101.31563 254.97687L100.33125 254.97687L100.33125 246.38312L101.39375 246.38312L101.39375 249.44562Q102.06563 248.6175 103.09688 248.6175Q103.675 248.6175 104.175 248.85187Q104.69063 249.07062 105.01875 249.4925Q105.3625 249.91437 105.55 250.50812Q105.7375 251.10187 105.7375 251.77374Q105.7375 253.3675 104.94063 254.2425Q104.14375 255.1175 103.05 255.1175Q101.94063 255.1175 101.31563 254.19562L101.31563 254.97687ZM101.3 251.82062Q101.3 252.93 101.6125 253.43Q102.1125 254.2425 102.95625 254.2425Q103.64375 254.2425 104.14375 253.64874Q104.65938 253.055 104.65938 251.85187Q104.65938 250.63312 104.175 250.055Q103.69063 249.47687 103.00313 249.47687Q102.31563 249.47687 101.8 250.08624Q101.3 250.68 101.3 251.82062ZM111.40938 254.21124Q110.81563 254.71124 110.26875 254.91437Q109.7375 255.1175 109.1125 255.1175Q108.08125 255.1175 107.53438 254.6175Q106.9875 254.1175 106.9875 253.33624Q106.9875 252.88312 107.19063 252.50812Q107.39375 252.1175 107.7375 251.89874Q108.08125 251.66437 108.50313 251.555Q108.8 251.46124 109.44063 251.38312Q110.70625 251.2425 111.31563 251.02374Q111.31563 250.805 111.31563 250.75812Q111.31563 250.10187 111.01875 249.83624Q110.6125 249.4925 109.81563 249.4925Q109.08125 249.4925 108.72188 249.75812Q108.3625 250.00812 108.19063 250.66437L107.15938 250.52374Q107.3 249.8675 107.62813 249.46124Q107.95625 249.055 108.56563 248.83624Q109.175 248.6175 109.97188 248.6175Q110.76875 248.6175 111.26875 248.805Q111.76875 248.9925 112.00313 249.27374Q112.2375 249.555 112.33125 249.9925Q112.37813 250.25812 112.37813 250.96124L112.37813 252.3675Q112.37813 253.83624 112.44063 254.22687Q112.51875 254.6175 112.72188 254.97687L111.6125 254.97687Q111.45625 254.64874 111.40938 254.21124ZM111.31563 251.85187Q110.7375 252.08624 109.59688 252.25812Q108.94063 252.35187 108.675 252.47687Q108.40938 252.58624 108.25313 252.805Q108.1125 253.02374 108.1125 253.305Q108.1125 253.72687 108.425 254.00812Q108.75313 254.28937 109.3625 254.28937Q109.97188 254.28937 110.44063 254.02374Q110.925 253.75812 111.14375 253.28937Q111.31563 252.93 111.31563 252.2425L111.31563 251.85187ZM114.34688 254.97687L114.34688 248.75812L115.28438 248.75812L115.28438 249.63312Q115.97188 248.6175 117.26875 248.6175Q117.83125 248.6175 118.3 248.82062Q118.78438 249.02374 119.01875 249.35187Q119.25313 249.68 119.34688 250.1175Q119.39375 250.41437 119.39375 251.14874L119.39375 254.97687L118.34688 254.97687L118.34688 251.19562Q118.34688 250.53937 118.22188 250.22687Q118.09688 249.91437 117.78438 249.72687Q117.47188 249.52374 117.05 249.52374Q116.37813 249.52374 115.87813 249.96124Q115.39375 250.38312 115.39375 251.57062L115.39375 254.97687L114.34688 254.97687Z" fill-rule="nonzero"/><path fill="#000000" d="M123.55 313.21564Q123.55 311.6844 123.8625 310.7625Q124.175 309.825 124.78438 309.325Q125.40938 308.825 126.34688 308.825Q127.03438 308.825 127.55 309.10626Q128.08125 309.3875 128.425 309.91876Q128.76875 310.4344 128.95625 311.1844Q129.14375 311.9344 129.14375 313.21564Q129.14375 314.73126 128.83125 315.65314Q128.53438 316.575 127.90938 317.09064Q127.3 317.59064 126.34688 317.59064Q125.1125 317.59064 124.39375 316.7Q123.55 315.6375 123.55 313.21564ZM124.62813 313.21564Q124.62813 315.325 125.12813 316.02814Q125.62813 316.73126 126.34688 316.73126Q127.08125 316.73126 127.56563 316.02814Q128.06563 315.325 128.06563 313.21564Q128.06563 311.09064 127.56563 310.40314Q127.08125 309.7 126.33125 309.7Q125.6125 309.7 125.175 310.3094Q124.62813 311.09064 124.62813 313.21564Z" fill-rule="nonzero"/><path fill="#000000" d="M214.99875 317.45L213.95187 317.45L213.95187 310.73126Q213.56125 311.09064 212.93625 311.46564Q212.32687 311.825 211.8425 311.9969L211.8425 310.98126Q212.7175 310.5594 213.37375 309.98126Q214.04562 309.3875 214.32687 308.825L214.99875 308.825L214.99875 317.45ZM218.03 313.21564Q218.03 311.6844 218.3425 310.7625Q218.655 309.825 219.26437 309.325Q219.88937 308.825 220.82687 308.825Q221.51437 308.825 222.03 309.10626Q222.56125 309.3875 222.905 309.91876Q223.24875 310.4344 223.43625 311.1844Q223.62375 311.9344 223.62375 313.21564Q223.62375 314.73126 223.31125 315.65314Q223.01437 316.575 222.38937 317.09064Q221.78 317.59064 220.82687 317.59064Q219.5925 317.59064 218.87375 316.7Q218.03 315.6375 218.03 313.21564ZM219.10812 313.21564Q219.10812 315.325 219.60812 316.02814Q220.10812 316.73126 220.82687 316.73126Q221.56125 316.73126 222.04562 316.02814Q222.54562 315.325 222.54562 313.21564Q222.54562 311.09064 222.04562 310.40314Q221.56125 309.7 220.81125 309.7Q220.0925 309.7 219.655 310.3094Q219.10812 311.09064 219.10812 313.21564Z" fill-rule="nonzero"/><path fill="#000000" d="M307.5569 316.4344L307.5569 317.45L301.8694 317.45Q301.8694 317.075 301.9944 316.71564Q302.21313 316.1375 302.6819 315.575Q303.16626 315.0125 304.0725 314.27814Q305.47876 313.1219 305.96313 312.45Q306.46313 311.77814 306.46313 311.1844Q306.46313 310.5594 306.01 310.1375Q305.5569 309.7 304.83813 309.7Q304.0725 309.7 303.6194 310.15314Q303.16626 310.60626 303.15063 311.41876L302.0725 311.3094Q302.1819 310.09064 302.90063 309.46564Q303.635 308.825 304.8694 308.825Q306.10376 308.825 306.8225 309.5125Q307.54126 310.2 307.54126 311.21564Q307.54126 311.73126 307.3225 312.23126Q307.1194 312.71564 306.6194 313.27814Q306.135 313.825 305.01 314.77814Q304.0569 315.575 303.77563 315.8719Q303.51 316.15314 303.33813 316.4344L307.5569 316.4344ZM309.01 313.21564Q309.01 311.6844 309.3225 310.7625Q309.635 309.825 310.2444 309.325Q310.8694 308.825 311.8069 308.825Q312.4944 308.825 313.01 309.10626Q313.54126 309.3875 313.885 309.91876Q314.22876 310.4344 314.41626 311.1844Q314.60376 311.9344 314.60376 313.21564Q314.60376 314.73126 314.29126 315.65314Q313.9944 316.575 313.3694 317.09064Q312.76 317.59064 311.8069 317.59064Q310.5725 317.59064 309.85376 316.7Q309.01 315.6375 309.01 313.21564ZM310.08813 313.21564Q310.08813 315.325 310.58813 316.02814Q311.08813 316.73126 311.8069 316.73126Q312.54126 316.73126 313.02563 316.02814Q313.52563 315.325 313.52563 313.21564Q313.52563 311.09064 313.02563 310.40314Q312.54126 309.7 311.79126 309.7Q311.0725 309.7 310.635 310.3094Q310.08813 311.09064 310.08813 313.21564Z" fill-rule="nonzero"/><path fill="#000000" d="M392.99 315.1844L394.0525 315.04376Q394.22437 315.9344 394.66187 316.34064Q395.09937 316.73126 395.72437 316.73126Q396.47437 316.73126 396.99 316.21564Q397.5056 315.7 397.5056 314.9344Q397.5056 314.21564 397.02124 313.7469Q396.5525 313.2625 395.8181 313.2625Q395.52124 313.2625 395.0681 313.3875L395.1931 312.45Q395.3025 312.46564 395.365 312.46564Q396.03687 312.46564 396.5681 312.1219Q397.115 311.7625 397.115 311.02814Q397.115 310.45 396.72437 310.075Q396.33374 309.6844 395.70874 309.6844Q395.09937 309.6844 394.6775 310.075Q394.27124 310.46564 394.16187 311.23126L393.09937 311.04376Q393.28687 309.9969 393.97437 309.41876Q394.66187 308.825 395.6775 308.825Q396.3806 308.825 396.97437 309.1375Q397.5681 309.4344 397.8806 309.95Q398.1931 310.46564 398.1931 311.0594Q398.1931 311.60626 397.89624 312.075Q397.59937 312.52814 397.02124 312.79376Q397.77124 312.96564 398.1931 313.52814Q398.615 314.075 398.615 314.91876Q398.615 316.04376 397.78687 316.825Q396.97437 317.60626 395.72437 317.60626Q394.59937 317.60626 393.84937 316.9344Q393.09937 316.2469 392.99 315.1844ZM399.99 313.21564Q399.99 311.6844 400.3025 310.7625Q400.615 309.825 401.22437 309.325Q401.84937 308.825 402.78687 308.825Q403.47437 308.825 403.99 309.10626Q404.52124 309.3875 404.865 309.91876Q405.20874 310.4344 405.39624 311.1844Q405.58374 311.9344 405.58374 313.21564Q405.58374 314.73126 405.27124 315.65314Q404.97437 316.575 404.34937 317.09064Q403.74 317.59064 402.78687 317.59064Q401.5525 317.59064 400.83374 316.7Q399.99 315.6375 399.99 313.21564ZM401.0681 313.21564Q401.0681 315.325 401.5681 316.02814Q402.0681 316.73126 402.78687 316.73126Q403.52124 316.73126 404.0056 316.02814Q404.5056 315.325 404.5056 313.21564Q404.5056 311.09064 404.0056 310.40314Q403.52124 309.7 402.77124 309.7Q402.0525 309.7 401.615 310.3094Q401.0681 311.09064 401.0681 313.21564Z" fill-rule="nonzero"/><path fill="#000000" d="M487.345 317.45L487.345 315.3875L483.62625 315.3875L483.62625 314.41876L487.54813 308.85626L488.4075 308.85626L488.4075 314.41876L489.56375 314.41876L489.56375 315.3875L488.4075 315.3875L488.4075 317.45L487.345 317.45ZM487.345 314.41876L487.345 310.5594L484.6575 314.41876L487.345 314.41876ZM490.97 313.21564Q490.97 311.6844 491.2825 310.7625Q491.595 309.825 492.20438 309.325Q492.82938 308.825 493.76688 308.825Q494.45438 308.825 494.97 309.10626Q495.50125 309.3875 495.845 309.91876Q496.18875 310.4344 496.37625 311.1844Q496.56375 311.9344 496.56375 313.21564Q496.56375 314.73126 496.25125 315.65314Q495.95438 316.575 495.32938 317.09064Q494.72 317.59064 493.76688 317.59064Q492.5325 317.59064 491.81375 316.7Q490.97 315.6375 490.97 313.21564ZM492.04813 313.21564Q492.04813 315.325 492.54813 316.02814Q493.04813 316.73126 493.76688 316.73126Q494.50125 316.73126 494.98563 316.02814Q495.48563 315.325 495.48563 313.21564Q495.48563 311.09064 494.98563 310.40314Q494.50125 309.7 493.75125 309.7Q493.0325 309.7 492.595 310.3094Q492.04813 311.09064 492.04813 313.21564Z" fill-rule="nonzero"/><path fill="#000000" d="M574.95 315.2L576.0594 315.10626Q576.1844 315.91876 576.6219 316.325Q577.075 316.73126 577.71564 316.73126Q578.46564 316.73126 578.9969 316.15314Q579.52814 315.575 579.52814 314.6375Q579.52814 313.73126 579.0125 313.21564Q578.5125 312.6844 577.6844 312.6844Q577.1844 312.6844 576.7625 312.91876Q576.35626 313.15314 576.1219 313.5125L575.1375 313.3875L575.96564 308.98126L580.2469 308.98126L580.2469 309.98126L576.8094 309.98126L576.35626 312.29376Q577.1219 311.7469 577.96564 311.7469Q579.09064 311.7469 579.85626 312.52814Q580.6375 313.3094 580.6375 314.54376Q580.6375 315.7 579.96564 316.5594Q579.1375 317.59064 577.71564 317.59064Q576.54376 317.59064 575.79376 316.9344Q575.0594 316.27814 574.95 315.2ZM581.95 313.21564Q581.95 311.6844 582.2625 310.7625Q582.575 309.825 583.1844 309.325Q583.8094 308.825 584.7469 308.825Q585.4344 308.825 585.95 309.10626Q586.48126 309.3875 586.825 309.91876Q587.16876 310.4344 587.35626 311.1844Q587.54376 311.9344 587.54376 313.21564Q587.54376 314.73126 587.23126 315.65314Q586.9344 316.575 586.3094 317.09064Q585.7 317.59064 584.7469 317.59064Q583.5125 317.59064 582.79376 316.7Q581.95 315.6375 581.95 313.21564ZM583.02814 313.21564Q583.02814 315.325 583.52814 316.02814Q584.02814 316.73126 584.7469 316.73126Q585.48126 316.73126 585.96564 316.02814Q586.46564 315.325 586.46564 313.21564Q586.46564 311.09064 585.96564 310.40314Q585.48126 309.7 584.73126 309.7Q584.0125 309.7 583.575 310.3094Q583.02814 311.09064 583.02814 313.21564Z" fill-rule="nonzero"/><path fill="#757575" d="M18.51875 37.55L24.01875 23.2375L26.065624 23.2375L31.925 37.55L29.76875 37.55L28.096874 33.20625L22.1125 33.20625L20.534374 37.55L18.51875 37.55ZM22.659374 31.675L27.503124 31.675L26.01875 27.70625Q25.33125 25.89375 25.003124 24.7375Q24.721874 26.1125 24.221874 27.471874L22.659374 31.675ZM37.190624 37.55L31.64375 23.2375L33.690624 23.2375L37.409374 33.628124Q37.8625 34.878124 38.159374 35.971874Q38.4875 34.8 38.940624 33.628124L42.8 23.2375L44.7375 23.2375L39.128124 37.55L37.190624 37.55ZM46.128124 37.55L46.128124 23.2375L56.4875 23.2375L56.4875 24.925L48.034374 24.925L48.034374 29.3L55.940624 29.3L55.940624 30.9875L48.034374 30.9875L48.034374 35.8625L56.815624 35.8625L56.815624 37.55L46.128124 37.55ZM59.128124 37.55L59.128124 23.2375L65.47188 23.2375Q67.37813 23.2375 68.37813 23.628124Q69.37813 24.003124 69.97188 24.9875Q70.56563 25.95625 70.56563 27.14375Q70.56563 28.659374 69.58125 29.70625Q68.59688 30.753124 66.53438 31.034374Q67.28438 31.39375 67.675 31.753124Q68.50313 32.503124 69.25313 33.659374L71.7375 37.55L69.3625 37.55L67.45625 34.565624Q66.62813 33.284374 66.09688 32.596874Q65.56563 31.909374 65.12813 31.64375Q64.70625 31.3625 64.26875 31.253124Q63.940624 31.190624 63.221874 31.190624L61.01875 31.190624L61.01875 37.55L59.128124 37.55ZM61.01875 29.55L65.09688 29.55Q66.39375 29.55 67.1125 29.284374Q67.84688 29.01875 68.22188 28.425Q68.6125 27.83125 68.6125 27.14375Q68.6125 26.128124 67.87813 25.471874Q67.14375 24.815624 65.55 24.815624L61.01875 24.815624L61.01875 29.55ZM71.51875 37.55L77.01875 23.2375L79.06563 23.2375L84.925 37.55L82.76875 37.55L81.09688 33.20625L75.1125 33.20625L73.53438 37.55L71.51875 37.55ZM75.65938 31.675L80.50313 31.675L79.01875 27.70625Q78.33125 25.89375 78.00313 24.7375Q77.72188 26.1125 77.22188 27.471874L75.65938 31.675ZM92.8 31.940624L92.8 30.253124L98.8625 30.2375L98.8625 35.55Q97.45625 36.675 95.97188 37.2375Q94.4875 37.8 92.925 37.8Q90.81563 37.8 89.09688 36.89375Q87.37813 35.9875 86.4875 34.284374Q85.6125 32.565624 85.6125 30.45625Q85.6125 28.3625 86.4875 26.565624Q87.3625 24.753124 89.00313 23.878124Q90.64375 22.9875 92.78438 22.9875Q94.33125 22.9875 95.58125 23.4875Q96.84688 23.9875 97.55 24.89375Q98.26875 25.784374 98.64375 27.2375L96.94063 27.70625Q96.6125 26.6125 96.12813 25.9875Q95.65938 25.3625 94.76875 24.9875Q93.87813 24.6125 92.8 24.6125Q91.4875 24.6125 90.53438 25.003124Q89.59688 25.39375 89.01875 26.05Q88.44063 26.690624 88.1125 27.45625Q87.56563 28.784374 87.56563 30.346874Q87.56563 32.253124 88.22188 33.55Q88.89375 34.83125 90.14375 35.45625Q91.40938 36.08125 92.81563 36.08125Q94.05 36.08125 95.22188 35.6125Q96.39375 35.14375 97.00313 34.596874L97.00313 31.940624L92.8 31.940624ZM102.12813 37.55L102.12813 23.2375L112.4875 23.2375L112.4875 24.925L104.03438 24.925L104.03438 29.3L111.94063 29.3L111.94063 30.9875L104.03438 30.9875L104.03438 35.8625L112.81563 35.8625L112.81563 37.55L102.12813 37.55ZM120.22188 32.3625Q120.22188 29.4875 121.81563 28.096874Q123.15938 26.940624 125.08125 26.940624Q127.22188 26.940624 128.56563 28.346874Q129.925 29.753124 129.925 32.221874Q129.925 34.221874 129.33125 35.378124Q128.7375 36.51875 127.58125 37.159374Q126.44063 37.784374 125.08125 37.784374Q122.89375 37.784374 121.55 36.39375Q120.22188 34.9875 120.22188 32.3625ZM122.01875 32.3625Q122.01875 34.3625 122.87813 35.346874Q123.75313 36.33125 125.08125 36.33125Q126.39375 36.33125 127.25313 35.346874Q128.12813 34.346874 128.12813 32.3Q128.12813 30.378124 127.25313 29.39375Q126.37813 28.39375 125.08125 28.39375Q123.75313 28.39375 122.87813 29.39375Q122.01875 30.378124 122.01875 32.3625ZM132.28438 37.55L132.28438 28.55L130.7375 28.55L130.7375 27.175L132.28438 27.175L132.28438 26.08125Q132.28438 25.034374 132.47188 24.51875Q132.72188 23.83125 133.3625 23.409374Q134.00313 22.9875 135.15938 22.9875Q135.90938 22.9875 136.8 23.159374L136.53438 24.690624Q135.9875 24.596874 135.50313 24.596874Q134.70625 24.596874 134.3625 24.940624Q134.03438 25.284374 134.03438 26.221874L134.03438 27.175L136.06563 27.175L136.06563 28.55L134.03438 28.55L134.03438 37.55L132.28438 37.55ZM147.7375 37.55L147.7375 24.925L143.01875 24.925L143.01875 23.2375L154.3625 23.2375L154.3625 24.925L149.62813 24.925L149.62813 37.55L147.7375 37.55ZM155.87813 25.253124L155.87813 23.2375L157.64375 23.2375L157.64375 25.253124L155.87813 25.253124ZM155.87813 37.55L155.87813 27.175L157.64375 27.175L157.64375 37.55L155.87813 37.55ZM159.8625 37.55L159.8625 27.175L161.44063 27.175L161.44063 28.628124Q161.925 27.878124 162.7375 27.409374Q163.55 26.940624 164.58125 26.940624Q165.7375 26.940624 166.47188 27.425Q167.20625 27.89375 167.51875 28.753124Q168.75313 26.940624 170.72188 26.940624Q172.26875 26.940624 173.09688 27.8Q173.925 28.659374 173.925 30.425L173.925 37.55L172.175 37.55L172.175 31.01875Q172.175 29.95625 172.00313 29.503124Q171.83125 29.034374 171.37813 28.753124Q170.94063 28.471874 170.33125 28.471874Q169.2375 28.471874 168.50313 29.20625Q167.78438 29.925 167.78438 31.51875L167.78438 37.55L166.03438 37.55L166.03438 30.815624Q166.03438 29.64375 165.59688 29.065624Q165.175 28.471874 164.19063 28.471874Q163.45625 28.471874 162.81563 28.8625Q162.19063 29.253124 161.90938 30.003124Q161.62813 30.753124 161.62813 32.175L161.62813 37.55L159.8625 37.55ZM182.97188 34.20625L184.78438 34.440624Q184.3625 36.01875 183.19063 36.909374Q182.03438 37.784374 180.22188 37.784374Q177.95625 37.784374 176.6125 36.39375Q175.28438 34.9875 175.28438 32.45625Q175.28438 29.83125 176.62813 28.39375Q177.97188 26.940624 180.12813 26.940624Q182.20625 26.940624 183.51875 28.3625Q184.84688 29.76875 184.84688 32.346874Q184.84688 32.503124 184.83125 32.815624L177.09688 32.815624Q177.19063 34.51875 178.06563 35.425Q178.94063 36.33125 180.2375 36.33125Q181.20625 36.33125 181.87813 35.83125Q182.56563 35.315624 182.97188 34.20625ZM177.19063 31.3625L182.9875 31.3625Q182.87813 30.065624 182.33125 29.409374Q181.4875 28.39375 180.14375 28.39375Q178.94063 28.39375 178.1125 29.20625Q177.28438 30.003124 177.19063 31.3625ZM196.22188 41.753124Q194.76875 39.925 193.76875 37.471874Q192.76875 35.003124 192.76875 32.3625Q192.76875 30.034374 193.51875 27.909374Q194.39375 25.440624 196.22188 22.9875L197.4875 22.9875Q196.3 25.01875 195.925 25.89375Q195.33125 27.2375 194.9875 28.70625Q194.56563 30.534374 194.56563 32.378124Q194.56563 37.065624 197.4875 41.753124L196.22188 41.753124ZM199.8625 37.55L199.8625 27.175L201.44063 27.175L201.44063 28.628124Q201.925 27.878124 202.7375 27.409374Q203.55 26.940624 204.58125 26.940624Q205.7375 26.940624 206.47188 27.425Q207.20625 27.89375 207.51875 28.753124Q208.75313 26.940624 210.72188 26.940624Q212.26875 26.940624 213.09688 27.8Q213.925 28.659374 213.925 30.425L213.925 37.55L212.175 37.55L212.175 31.01875Q212.175 29.95625 212.00313 29.503124Q211.83125 29.034374 211.37813 28.753124Q210.94063 28.471874 210.33125 28.471874Q209.2375 28.471874 208.50313 29.20625Q207.78438 29.925 207.78438 31.51875L207.78438 37.55L206.03438 37.55L206.03438 30.815624Q206.03438 29.64375 205.59688 29.065624Q205.175 28.471874 204.19063 28.471874Q203.45625 28.471874 202.81563 28.8625Q202.19063 29.253124 201.90938 30.003124Q201.62813 30.753124 201.62813 32.175L201.62813 37.55L199.8625 37.55ZM215.87813 25.253124L215.87813 23.2375L217.64375 23.2375L217.64375 25.253124L215.87813 25.253124ZM215.87813 37.55L215.87813 27.175L217.64375 27.175L217.64375 37.55L215.87813 37.55ZM219.8625 37.55L219.8625 27.175L221.45625 27.175L221.45625 28.659374Q222.59688 26.940624 224.75313 26.940624Q225.69063 26.940624 226.47188 27.284374Q227.26875 27.6125 227.65938 28.159374Q228.05 28.70625 228.20625 29.45625Q228.3 29.95625 228.3 31.175L228.3 37.55L226.53438 37.55L226.53438 31.2375Q226.53438 30.159374 226.33125 29.628124Q226.12813 29.096874 225.59688 28.784374Q225.08125 28.471874 224.37813 28.471874Q223.25313 28.471874 222.44063 29.190624Q221.62813 29.89375 221.62813 31.878124L221.62813 37.55L219.8625 37.55ZM231.01875 41.753124L229.76875 41.753124Q232.675 37.065624 232.675 32.378124Q232.675 30.534374 232.26875 28.7375Q231.925 27.26875 231.33125 25.925Q230.95625 25.034374 229.76875 22.9875L231.01875 22.9875Q232.8625 25.440624 233.7375 27.909374Q234.4875 30.034374 234.4875 32.3625Q234.4875 35.003124 233.47188 37.471874Q232.47188 39.925 231.01875 41.753124ZM245.75313 37.55L241.8 27.175L243.65938 27.175L245.89375 33.39375Q246.25313 34.39375 246.55 35.471874Q246.78438 34.659374 247.20625 33.503124L249.50313 27.175L251.31563 27.175L247.39375 37.55L245.75313 37.55ZM251.15938 34.45625L252.90938 34.175Q253.05 35.221874 253.72188 35.784374Q254.39375 36.33125 255.59688 36.33125Q256.8 36.33125 257.3781 35.846874Q257.97186 35.346874 257.97186 34.690624Q257.97186 34.096874 257.45624 33.753124Q257.09686 33.51875 255.65938 33.159374Q253.72188 32.659374 252.97188 32.315624Q252.2375 31.95625 251.84688 31.33125Q251.45625 30.690624 251.45625 29.925Q251.45625 29.2375 251.76875 28.64375Q252.09688 28.05 252.64375 27.659374Q253.05 27.3625 253.75313 27.159374Q254.47188 26.940624 255.28438 26.940624Q256.5031 26.940624 257.425 27.3Q258.34686 27.64375 258.78436 28.253124Q259.22186 28.846874 259.39374 29.846874L257.675 30.08125Q257.55 29.284374 256.9875 28.846874Q256.425 28.39375 255.40938 28.39375Q254.19063 28.39375 253.675 28.8Q253.15938 29.190624 253.15938 29.721874Q253.15938 30.065624 253.37813 30.346874Q253.58125 30.628124 254.05 30.815624Q254.31563 30.909374 255.59688 31.253124Q257.47186 31.753124 258.20624 32.08125Q258.9406 32.39375 259.3625 33.003124Q259.78436 33.596874 259.78436 34.503124Q259.78436 35.378124 259.26874 36.159374Q258.7531 36.940624 257.78436 37.3625Q256.8156 37.784374 255.59688 37.784374Q253.58125 37.784374 252.51875 36.940624Q251.45625 36.096874 251.15938 34.45625ZM262.3625 37.55L262.3625 35.55L264.3625 35.55L264.3625 37.55L262.3625 37.55ZM284.3156 32.534374L286.20624 33.003124Q285.6125 35.346874 284.0656 36.58125Q282.51874 37.8 280.26874 37.8Q277.95624 37.8 276.5031 36.8625Q275.0656 35.909374 274.3 34.128124Q273.55 32.33125 273.55 30.284374Q273.55 28.05 274.39374 26.39375Q275.2531 24.721874 276.83124 23.8625Q278.40936 22.9875 280.3 22.9875Q282.45624 22.9875 283.90936 24.08125Q285.3781 25.175 285.95624 27.159374L284.09686 27.596874Q283.59686 26.034374 282.64374 25.33125Q281.70624 24.6125 280.26874 24.6125Q278.6125 24.6125 277.5031 25.409374Q276.39374 26.190624 275.9406 27.534374Q275.5031 28.8625 275.5031 30.26875Q275.5031 32.096874 276.03436 33.471874Q276.5656 34.83125 277.6906 35.503124Q278.8156 36.175 280.1125 36.175Q281.70624 36.175 282.8156 35.253124Q283.925 34.33125 284.3156 32.534374ZM287.8781 25.253124L287.8781 23.2375L289.64374 23.2375L289.64374 25.253124L287.8781 25.253124ZM287.8781 37.55L287.8781 27.175L289.64374 27.175L289.64374 37.55L287.8781 37.55ZM295.70624 35.971874L295.95624 37.534374Q295.22186 37.690624 294.6281 37.690624Q293.675 37.690624 293.14374 37.39375Q292.6281 37.08125 292.40936 36.596874Q292.1906 36.096874 292.1906 34.51875L292.1906 28.55L290.90936 28.55L290.90936 27.175L292.1906 27.175L292.1906 24.6125L293.9406 23.55L293.9406 27.175L295.70624 27.175L295.70624 28.55L293.9406 28.55L293.9406 34.6125Q293.9406 35.3625 294.03436 35.58125Q294.1281 35.784374 294.33124 35.925Q294.55 36.05 294.9406 36.05Q295.22186 36.05 295.70624 35.971874ZM297.78436 41.55L297.59686 39.89375Q298.175 40.05 298.59686 40.05Q299.1906 40.05 299.53436 39.846874Q299.89374 39.659374 300.1125 39.315624Q300.28436 39.05 300.65936 38.003124Q300.70624 37.846874 300.8156 37.565624L296.8781 27.175L298.76874 27.175L300.925 33.190624Q301.34686 34.33125 301.675 35.58125Q301.9875 34.378124 302.39374 33.221874L304.6125 27.175L306.3781 27.175L302.425 37.721874Q301.8 39.440624 301.4406 40.08125Q300.97186 40.95625 300.3625 41.346874Q299.76874 41.753124 298.925 41.753124Q298.40936 41.753124 297.78436 41.55Z" fill-rule="nonzero"/></svg>