<svg version="1.1" viewBox="0.0 0.0 600.0 371.0" fill="none" stroke="none" stroke-linecap="square" stroke-miterlimit="10" width="600" height="371" xmlns:xlink="http://www.w3.org/1999/xlink" xmlns="http://www.w3.org/2000/svg"><path fill="#ffffff" d="M0 0L600.0 0L600.0 371.0L0 371.0L0 0Z" fill-rule="nonzero"/><path stroke="#333333" stroke-width="1.0" stroke-linecap="butt" d="M100.5 54.5L100.5 300.5" fill-rule="nonzero"/><path stroke="#cccccc" stroke-width="1.0" stroke-linecap="butt" d="M220.5 54.5L220.5 300.5" fill-rule="nonzero"/><path stroke="#cccccc" stroke-width="1.0" stroke-linecap="butt" d="M341.5 54.5L341.5 300.5" fill-rule="nonzero"/><path stroke="#cccccc" stroke-width="1.0" stroke-linecap="butt" d="M461.5 54.5L461.5 300.5" fill-rule="nonzero"/><path stroke="#cccccc" stroke-width="1.0" stroke-linecap="butt" d="M581.5 54.5L581.5 300.5" fill-rule="nonzero"/><clipPath id="id_0"><path d="M100.55 54.916668L581.45 54.916668L581.45 300.45L100.55 300.45L100.55 54.916668Z" clip-rule="nonzero"/></clipPath><path stroke="#000000" stroke-width="2.0" stroke-linecap="butt" stroke-opacity="0.0" clip-path="url(#id_0)" d="M101.0 112.0L101.0 75.0L475.0 75.0C476.10458 75.0 477.0 75.89543 477.0 77.0L477.0 110.0C477.0 111.10457 476.10458 112.0 475.0 112.0Z" fill-rule="nonzero"/><path fill="#4285f4" clip-path="url(#id_0)" d="M101.0 112.0L101.0 75.0L475.0 75.0C476.10458 75.0 477.0 75.89543 477.0 77.0L477.0 110.0C477.0 111.10457 476.10458 112.0 475.0 112.0Z" fill-rule="nonzero"/><path stroke="#000000" stroke-width="2.0" stroke-linecap="butt" stroke-opacity="0.0" clip-path="url(#id_0)" d="M101.0 168.0L101.0 131.0L426.0 131.0C427.10458 131.0 428.0 131.89543 428.0 133.0L428.0 166.0C428.0 167.10457 427.10458 168.0 426.0 168.0Z" fill-rule="nonzero"/><path fill="#4285f4" clip-path="url(#id_0)" d="M101.0 168.0L101.0 131.0L426.0 131.0C427.10458 131.0 428.0 131.89543 428.0 133.0L428.0 166.0C428.0 167.10457 427.10458 168.0 426.0 168.0Z" fill-rule="nonzero"/><path stroke="#000000" stroke-width="2.0" stroke-linecap="butt" stroke-opacity="0.0" clip-path="url(#id_0)" d="M101.0 225.0L101.0 188.0L420.0 188.0C421.10458 188.0 422.0 188.89543 422.0 190.0L422.0 223.0C422.0 224.10457 421.10458 225.0 420.0 225.0Z" fill-rule="nonzero"/><path fill="#4285f4" clip-path="url(#id_0)" d="M101.0 225.0L101.0 188.0L420.0 188.0C421.10458 188.0 422.0 188.89543 422.0 190.0L422.0 223.0C422.0 224.10457 421.10458 225.0 420.0 225.0Z" fill-rule="nonzero"/><path stroke="#000000" stroke-width="2.0" stroke-linecap="butt" stroke-opacity="0.0" clip-path="url(#id_0)" d="M101.0 281.0L101.0 244.0L354.0 244.0C355.10458 244.0 356.0 244.89543 356.0 246.0L356.0 279.0C356.0 280.10458 355.10458 281.0 354.0 281.0Z" fill-rule="nonzero"/><path fill="#4285f4" clip-path="url(#id_0)" d="M101.0 281.0L101.0 244.0L354.0 244.0C355.10458 244.0 356.0 244.89543 356.0 246.0L356.0 279.0C356.0 280.10458 355.10458 281.0 354.0 281.0Z" fill-rule="nonzero"/><path fill="#000000" d="M275.48438 349.45L278.78125 340.85626L280.0 340.85626L283.51562 349.45L282.23438 349.45L281.21875 346.84064L277.64062 346.84064L276.6875 349.45L275.48438 349.45ZM277.96875 345.91876L280.875 345.91876L279.98438 343.54376Q279.5625 342.46564 279.375 341.7625Q279.20312 342.59064 278.90625 343.40314L277.96875 345.91876ZM285.875 349.45L282.54688 340.85626L283.78125 340.85626L286.01562 347.10626Q286.28125 347.85626 286.46875 348.5125Q286.67188 347.8094 286.9375 347.10626L289.25 340.85626L290.40625 340.85626L287.04688 349.45L285.875 349.45ZM290.45312 349.45L290.45312 340.85626L296.65625 340.85626L296.65625 341.8719L291.59375 341.8719L291.59375 344.4969L296.34375 344.4969L296.34375 345.5125L291.59375 345.5125L291.59375 348.4344L296.85938 348.4344L296.85938 349.45L290.45312 349.45ZM298.4375 349.45L298.4375 340.85626L302.25 340.85626Q303.40625 340.85626 304.0 341.09064Q304.59375 341.325 304.95312 341.91876Q305.3125 342.4969 305.3125 343.2Q305.3125 344.1219 304.71875 344.7469Q304.125 345.3719 302.89062 345.54376Q303.34375 345.7625 303.57812 345.96564Q304.07812 346.41876 304.51562 347.10626L306.01562 349.45L304.57812 349.45L303.45312 347.66876Q302.95312 346.8875 302.625 346.48126Q302.3125 346.075 302.04688 345.91876Q301.79688 345.7469 301.53125 345.66876Q301.34375 345.6375 300.90625 345.6375L299.57812 345.6375L299.57812 349.45L298.4375 349.45ZM299.57812 344.65314L302.03125 344.65314Q302.79688 344.65314 303.23438 344.4969Q303.6875 344.325 303.90625 343.98126Q304.14062 343.6219 304.14062 343.2Q304.14062 342.59064 303.6875 342.2Q303.25 341.8094 302.29688 341.8094L299.57812 341.8094L299.57812 344.65314ZM306.48438 349.45L309.78125 340.85626L311.0 340.85626L314.51562 349.45L313.23438 349.45L312.21875 346.84064L308.64062 346.84064L307.6875 349.45L306.48438 349.45ZM308.96875 345.91876L311.875 345.91876L310.98438 343.54376Q310.5625 342.46564 310.375 341.7625Q310.20312 342.59064 309.90625 343.40314L308.96875 345.91876ZM318.45312 346.075L318.45312 345.075L322.07812 345.0594L322.07812 348.2469Q321.25 348.91876 320.35938 349.2625Q319.46875 349.59064 318.53125 349.59064Q317.26562 349.59064 316.21875 349.0594Q315.1875 348.5125 314.65625 347.4969Q314.14062 346.46564 314.14062 345.2Q314.14062 343.9344 314.65625 342.85626Q315.1875 341.7625 316.17188 341.2469Q317.15625 340.71564 318.4375 340.71564Q319.375 340.71564 320.125 341.0125Q320.875 341.3094 321.29688 341.85626Q321.73438 342.3875 321.95312 343.2625L320.9375 343.54376Q320.73438 342.8875 320.4375 342.5125Q320.15625 342.1375 319.625 341.91876Q319.09375 341.6844 318.45312 341.6844Q317.67188 341.6844 317.09375 341.91876Q316.53125 342.15314 316.17188 342.54376Q315.82812 342.9344 315.64062 343.40314Q315.3125 344.2 315.3125 345.1219Q315.3125 346.27814 315.70312 347.0594Q316.10938 347.825 316.85938 348.2Q317.60938 348.575 318.46875 348.575Q319.20312 348.575 319.90625 348.29376Q320.60938 347.9969 320.96875 347.6844L320.96875 346.075L318.45312 346.075ZM323.45312 349.45L323.45312 340.85626L329.65625 340.85626L329.65625 341.8719L324.59375 341.8719L324.59375 344.4969L329.34375 344.4969L329.34375 345.5125L324.59375 345.5125L324.59375 348.4344L329.85938 348.4344L329.85938 349.45L323.45312 349.45ZM333.90625 346.34064Q333.90625 344.60626 334.85938 343.77814Q335.65625 343.09064 336.8125 343.09064Q338.09375 343.09064 338.90625 343.9344Q339.73438 344.7625 339.73438 346.2469Q339.73438 347.45 339.375 348.1375Q339.01562 348.825 338.3125 349.21564Q337.625 349.59064 336.8125 349.59064Q335.51562 349.59064 334.70312 348.7625Q333.90625 347.91876 333.90625 346.34064ZM334.98438 346.34064Q334.98438 347.52814 335.5 348.1219Q336.03125 348.71564 336.8125 348.71564Q337.60938 348.71564 338.125 348.1219Q338.64062 347.52814 338.64062 346.3094Q338.64062 345.15314 338.10938 344.5594Q337.59375 343.96564 336.8125 343.96564Q336.03125 343.96564 335.5 344.5594Q334.98438 345.1375 334.98438 346.34064ZM341.54688 349.45L341.54688 344.04376L340.60938 344.04376L340.60938 343.23126L341.54688 343.23126L341.54688 342.5594Q341.54688 341.9344 341.65625 341.6375Q341.8125 341.21564 342.1875 340.96564Q342.57812 340.71564 343.26562 340.71564Q343.71875 340.71564 344.25 340.825L344.09375 341.73126Q343.76562 341.6844 343.46875 341.6844Q342.98438 341.6844 342.78125 341.8875Q342.59375 342.09064 342.59375 342.65314L342.59375 343.23126L343.8125 343.23126L343.8125 344.04376L342.59375 344.04376L342.59375 349.45L341.54688 349.45ZM349.60938 349.45L349.60938 341.8719L346.78125 341.8719L346.78125 340.85626L353.59375 340.85626L353.59375 341.8719L350.75 341.8719L350.75 349.45L349.60938 349.45ZM354.29688 342.075L354.29688 340.85626L355.35938 340.85626L355.35938 342.075L354.29688 342.075ZM354.29688 349.45L354.29688 343.23126L355.35938 343.23126L355.35938 349.45L354.29688 349.45ZM357.29688 349.45L357.29688 343.23126L358.23438 343.23126L358.23438 344.10626Q358.53125 343.6375 359.01562 343.3719Q359.5 343.09064 360.125 343.09064Q360.8125 343.09064 361.25 343.3719Q361.70312 343.65314 361.875 344.16876Q362.625 343.09064 363.79688 343.09064Q364.73438 343.09064 365.21875 343.60626Q365.71875 344.10626 365.71875 345.1844L365.71875 349.45L364.67188 349.45L364.67188 345.52814Q364.67188 344.90314 364.5625 344.6219Q364.46875 344.34064 364.20312 344.16876Q363.9375 343.9969 363.5625 343.9969Q362.90625 343.9969 362.46875 344.4344Q362.04688 344.8719 362.04688 345.84064L362.04688 349.45L360.98438 349.45L360.98438 345.40314Q360.98438 344.7 360.71875 344.35626Q360.46875 343.9969 359.89062 343.9969Q359.4375 343.9969 359.0625 344.23126Q358.6875 344.46564 358.51562 344.91876Q358.34375 345.3719 358.34375 346.21564L358.34375 349.45L357.29688 349.45ZM372.54688 347.45L373.64062 347.575Q373.39062 348.52814 372.6875 349.0594Q371.98438 349.59064 370.90625 349.59064Q369.54688 349.59064 368.73438 348.7469Q367.9375 347.90314 367.9375 346.3875Q367.9375 344.825 368.75 343.96564Q369.5625 343.09064 370.84375 343.09064Q372.09375 343.09064 372.875 343.9344Q373.67188 344.77814 373.67188 346.325Q373.67188 346.41876 373.67188 346.60626L369.03125 346.60626Q369.09375 347.6375 369.60938 348.1844Q370.125 348.71564 370.90625 348.71564Q371.48438 348.71564 371.89062 348.41876Q372.3125 348.10626 372.54688 347.45ZM369.09375 345.7469L372.5625 345.7469Q372.5 344.95 372.17188 344.5594Q371.65625 343.95 370.85938 343.95Q370.125 343.95 369.625 344.4344Q369.14062 344.91876 369.09375 345.7469ZM380.3125 351.98126Q379.4375 350.8719 378.82812 349.40314Q378.23438 347.91876 378.23438 346.34064Q378.23438 344.95 378.67188 343.66876Q379.20312 342.1844 380.3125 340.71564L381.0625 340.71564Q380.35938 341.9344 380.125 342.45Q379.76562 343.2625 379.5625 344.1375Q379.3125 345.23126 379.3125 346.34064Q379.3125 349.16876 381.0625 351.98126L380.3125 351.98126ZM382.29688 349.45L382.29688 343.23126L383.23438 343.23126L383.23438 344.10626Q383.53125 343.6375 384.01562 343.3719Q384.5 343.09064 385.125 343.09064Q385.8125 343.09064 386.25 343.3719Q386.70312 343.65314 386.875 344.16876Q387.625 343.09064 388.79688 343.09064Q389.73438 343.09064 390.21875 343.60626Q390.71875 344.10626 390.71875 345.1844L390.71875 349.45L389.67188 349.45L389.67188 345.52814Q389.67188 344.90314 389.5625 344.6219Q389.46875 344.34064 389.20312 344.16876Q388.9375 343.9969 388.5625 343.9969Q387.90625 343.9969 387.46875 344.4344Q387.04688 344.8719 387.04688 345.84064L387.04688 349.45L385.98438 349.45L385.98438 345.40314Q385.98438 344.7 385.71875 344.35626Q385.46875 343.9969 384.89062 343.9969Q384.4375 343.9969 384.0625 344.23126Q383.6875 344.46564 383.51562 344.91876Q383.34375 345.3719 383.34375 346.21564L383.34375 349.45L382.29688 349.45ZM393.29688 342.075L393.29688 340.85626L394.35938 340.85626L394.35938 342.075L393.29688 342.075ZM393.29688 349.45L393.29688 343.23126L394.35938 343.23126L394.35938 349.45L393.29688 349.45ZM396.29688 349.45L396.29688 343.23126L397.23438 343.23126L397.23438 344.10626Q397.92188 343.09064 399.21875 343.09064Q399.78125 343.09064 400.25 343.29376Q400.73438 343.4969 400.96875 343.825Q401.20312 344.15314 401.29688 344.59064Q401.34375 344.8875 401.34375 345.6219L401.34375 349.45L400.29688 349.45L400.29688 345.66876Q400.29688 345.0125 400.17188 344.7Q400.04688 344.3875 399.73438 344.2Q399.42188 343.9969 399.0 343.9969Q398.32812 343.9969 397.82812 344.4344Q397.34375 344.85626 397.34375 346.04376L397.34375 349.45L396.29688 349.45ZM403.98438 351.98126L403.23438 351.98126Q404.98438 349.16876 404.98438 346.34064Q404.98438 345.2469 404.73438 344.15314Q404.53125 343.27814 404.17188 342.46564Q403.9375 341.95 403.23438 340.71564L403.98438 340.71564Q405.07812 342.1844 405.60938 343.66876Q406.0625 344.95 406.0625 346.34064Q406.0625 347.91876 405.45312 349.40314Q404.84375 350.8719 403.98438 351.98126Z" fill-rule="nonzero"/><path fill="#000000" d="M29.550013 242.74583L20.956263 242.74583L20.956263 238.93333Q20.956263 237.77708 21.190638 237.18333Q21.425013 236.58958 22.018763 236.23021Q22.596888 235.87083 23.300013 235.87083Q24.221888 235.87083 24.846888 236.46458Q25.471888 237.05833 25.643763 238.29271Q25.862513 237.83958 26.065638 237.60521Q26.518763 237.10521 27.206263 236.66771L29.550013 235.16771L29.550013 236.60521L27.768763 237.73021Q26.987513 238.23021 26.581263 238.55833Q26.175013 238.87083 26.018763 239.13646Q25.846888 239.38646 25.768763 239.65208Q25.737513 239.83958 25.737513 240.27708L25.737513 241.60521L29.550013 241.60521L29.550013 242.74583ZM24.753138 241.60521L24.753138 239.15208Q24.753138 238.38646 24.596888 237.94896Q24.425013 237.49583 24.081263 237.27708Q23.721888 237.04271 23.300013 237.04271Q22.690638 237.04271 22.300013 237.49583Q21.909388 237.93333 21.909388 238.88646L21.909388 241.60521L24.753138 241.60521ZM26.440638 234.27708Q24.706263 234.27708 23.878138 233.32396Q23.190638 232.52708 23.190638 231.37083Q23.190638 230.08958 24.034388 229.27708Q24.862513 228.44896 26.346888 228.44896Q27.550013 228.44896 28.237513 228.80833Q28.925013 229.16771 29.315638 229.87083Q29.690638 230.55833 29.690638 231.37083Q29.690638 232.66771 28.862513 233.48021Q28.018763 234.27708 26.440638 234.27708ZM26.440638 233.19896Q27.628138 233.19896 28.221888 232.68333Q28.815638 232.15208 28.815638 231.37083Q28.815638 230.57396 28.221888 230.05833Q27.628138 229.54271 26.409388 229.54271Q25.253138 229.54271 24.659388 230.07396Q24.065638 230.58958 24.065638 231.37083Q24.065638 232.15208 24.659388 232.68333Q25.237513 233.19896 26.440638 233.19896ZM28.784388 222.82396Q29.284388 223.41771 29.487513 223.96458Q29.690638 224.49583 29.690638 225.12083Q29.690638 226.15208 29.190638 226.69896Q28.690638 227.24583 27.909388 227.24583Q27.456263 227.24583 27.081263 227.04271Q26.690638 226.83958 26.471888 226.49583Q26.237513 226.15208 26.128138 225.73021Q26.034388 225.43333 25.956263 224.79271Q25.815638 223.52708 25.596888 222.91771Q25.378138 222.91771 25.331263 222.91771Q24.675013 222.91771 24.409388 223.21458Q24.065638 223.62083 24.065638 224.41771Q24.065638 225.15208 24.331263 225.51146Q24.581263 225.87083 25.237513 226.04271L25.096888 227.07396Q24.440638 226.93333 24.034388 226.60521Q23.628138 226.27708 23.409388 225.66771Q23.190638 225.05833 23.190638 224.26146Q23.190638 223.46458 23.378138 222.96458Q23.565638 222.46458 23.846888 222.23021Q24.128138 221.99583 24.565638 221.90208Q24.831263 221.85521 25.534388 221.85521L26.940638 221.85521Q28.409388 221.85521 28.800013 221.79271Q29.190638 221.71458 29.550013 221.51146L29.550013 222.62083Q29.221888 222.77708 28.784388 222.82396ZM26.425013 222.91771Q26.659388 223.49583 26.831263 224.63646Q26.925013 225.29271 27.050013 225.55833Q27.159388 225.82396 27.378138 225.98021Q27.596888 226.12083 27.878138 226.12083Q28.300013 226.12083 28.581263 225.80833Q28.862513 225.48021 28.862513 224.87083Q28.862513 224.26146 28.596888 223.79271Q28.331263 223.30833 27.862513 223.08958Q27.503138 222.91771 26.815638 222.91771L26.425013 222.91771ZM29.550013 215.85521L28.768763 215.85521Q29.690638 216.44896 29.690638 217.58958Q29.690638 218.33958 29.284388 218.96458Q28.862513 219.58958 28.128138 219.93333Q27.393763 220.27708 26.440638 220.27708Q25.518763 220.27708 24.753138 219.96458Q23.987513 219.65208 23.596888 219.02708Q23.190638 218.40208 23.190638 217.63646Q23.190638 217.07396 23.425013 216.63646Q23.659388 216.19896 24.034388 215.91771L20.956263 215.91771L20.956263 214.87083L29.550013 214.87083L29.550013 215.85521ZM26.440638 219.18333Q27.643763 219.18333 28.237513 218.68333Q28.815638 218.18333 28.815638 217.49583Q28.815638 216.80833 28.253138 216.32396Q27.690638 215.83958 26.534388 215.83958Q25.253138 215.83958 24.659388 216.33958Q24.065638 216.82396 24.065638 217.54271Q24.065638 218.24583 24.643763 218.71458Q25.206263 219.18333 26.440638 219.18333ZM31.940638 213.87083L31.175013 213.87083L31.175013 206.87083L31.940638 206.87083L31.940638 213.87083ZM28.612513 203.58958L29.534388 203.43333Q29.628138 203.88646 29.628138 204.23021Q29.628138 204.80833 29.456263 205.12083Q29.268763 205.43333 28.971888 205.57396Q28.675013 205.69896 27.721888 205.69896L24.143763 205.69896L24.143763 206.46458L23.331263 206.46458L23.331263 205.69896L21.784388 205.69896L21.159388 204.65208L23.331263 204.65208L23.331263 203.58958L24.143763 203.58958L24.143763 204.65208L27.784388 204.65208Q28.237513 204.65208 28.362513 204.60521Q28.487513 204.54271 28.565638 204.41771Q28.643763 204.29271 28.643763 204.05833Q28.643763 203.87083 28.612513 203.58958ZM29.550013 202.90208L23.331263 202.90208L23.331263 201.94896L24.268763 201.94896Q23.612513 201.58958 23.409388 201.29271Q23.190638 200.98021 23.190638 200.60521Q23.190638 200.07396 23.518763 199.52708L24.503138 199.88646Q24.268763 200.27708 24.268763 200.65208Q24.268763 201.01146 24.487513 201.29271Q24.690638 201.55833 25.065638 201.66771Q25.628138 201.85521 26.284388 201.85521L29.550013 201.85521L29.550013 202.90208ZM28.784388 194.82396Q29.284388 195.41771 29.487513 195.96458Q29.690638 196.49583 29.690638 197.12083Q29.690638 198.15208 29.190638 198.69896Q28.690638 199.24583 27.909388 199.24583Q27.456263 199.24583 27.081263 199.04271Q26.690638 198.83958 26.471888 198.49583Q26.237513 198.15208 26.128138 197.73021Q26.034388 197.43333 25.956263 196.79271Q25.815638 195.52708 25.596888 194.91771Q25.378138 194.91771 25.331263 194.91771Q24.675013 194.91771 24.409388 195.21458Q24.065638 195.62083 24.065638 196.41771Q24.065638 197.15208 24.331263 197.51146Q24.581263 197.87083 25.237513 198.04271L25.096888 199.07396Q24.440638 198.93333 24.034388 198.60521Q23.628138 198.27708 23.409388 197.66771Q23.190638 197.05833 23.190638 196.26146Q23.190638 195.46458 23.378138 194.96458Q23.565638 194.46458 23.846888 194.23021Q24.128138 193.99583 24.565638 193.90208Q24.831263 193.85521 25.534388 193.85521L26.940638 193.85521Q28.409388 193.85521 28.800013 193.79271Q29.190638 193.71458 29.550013 193.51146L29.550013 194.62083Q29.221888 194.77708 28.784388 194.82396ZM26.425013 194.91771Q26.659388 195.49583 26.831263 196.63646Q26.925013 197.29271 27.050013 197.55833Q27.159388 197.82396 27.378138 197.98021Q27.596888 198.12083 27.878138 198.12083Q28.300013 198.12083 28.581263 197.80833Q28.862513 197.48021 28.862513 196.87083Q28.862513 196.26146 28.596888 195.79271Q28.331263 195.30833 27.862513 195.08958Q27.503138 194.91771 26.815638 194.91771L26.425013 194.91771ZM29.550013 191.63646L24.143763 191.63646L24.143763 192.57396L23.331263 192.57396L23.331263 191.63646L22.659388 191.63646Q22.034388 191.63646 21.737513 191.52708Q21.315638 191.37083 21.065638 190.99583Q20.815638 190.60521 20.815638 189.91771Q20.815638 189.46458 20.925013 188.93333L21.831263 189.08958Q21.784388 189.41771 21.784388 189.71458Q21.784388 190.19896 21.987513 190.40208Q22.190638 190.58958 22.753138 190.58958L23.331263 190.58958L23.331263 189.37083L24.143763 189.37083L24.143763 190.58958L29.550013 190.58958L29.550013 191.63646ZM29.550013 188.63646L24.143763 188.63646L24.143763 189.57396L23.331263 189.57396L23.331263 188.63646L22.659388 188.63646Q22.034388 188.63646 21.737513 188.52708Q21.315638 188.37083 21.065638 187.99583Q20.815638 187.60521 20.815638 186.91771Q20.815638 186.46458 20.925013 185.93333L21.831263 186.08958Q21.784388 186.41771 21.784388 186.71458Q21.784388 187.19896 21.987513 187.40208Q22.190638 187.58958 22.753138 187.58958L23.331263 187.58958L23.331263 186.37083L24.143763 186.37083L24.143763 187.58958L29.550013 187.58958L29.550013 188.63646ZM22.175013 185.88646L20.956263 185.88646L20.956263 184.82396L22.175013 184.82396L22.175013 185.88646ZM29.550013 185.88646L23.331263 185.88646L23.331263 184.82396L29.550013 184.82396L29.550013 185.88646ZM27.268763 178.82396L27.409388 177.79271Q28.471888 177.96458 29.081263 178.66771Q29.690638 179.37083 29.690638 180.38646Q29.690638 181.66771 28.862513 182.44896Q28.018763 183.21458 26.456263 183.21458Q25.456263 183.21458 24.706263 182.88646Q23.940638 182.54271 23.565638 181.87083Q23.190638 181.18333 23.190638 180.37083Q23.190638 179.37083 23.706263 178.73021Q24.206263 178.07396 25.159388 177.88646L25.315638 178.91771Q24.690638 179.05833 24.378138 179.43333Q24.050013 179.80833 24.050013 180.33958Q24.050013 181.13646 24.628138 181.63646Q25.190638 182.13646 26.425013 182.13646Q27.690638 182.13646 28.253138 181.65208Q28.815638 181.16771 28.815638 180.40208Q28.815638 179.77708 28.440638 179.37083Q28.065638 178.94896 27.268763 178.82396ZM31.940638 177.87083L31.175013 177.87083L31.175013 170.87083L31.940638 170.87083L31.940638 177.87083ZM29.550013 165.85521L28.768763 165.85521Q29.690638 166.44896 29.690638 167.58958Q29.690638 168.33958 29.284388 168.96458Q28.862513 169.58958 28.128138 169.93333Q27.393763 170.27708 26.440638 170.27708Q25.518763 170.27708 24.753138 169.96458Q23.987513 169.65208 23.596888 169.02708Q23.190638 168.40208 23.190638 167.63646Q23.190638 167.07396 23.425013 166.63646Q23.659388 166.19896 24.034388 165.91771L20.956263 165.91771L20.956263 164.87083L29.550013 164.87083L29.550013 165.85521ZM26.440638 169.18333Q27.643763 169.18333 28.237513 168.68333Q28.815638 168.18333 28.815638 167.49583Q28.815638 166.80833 28.253138 166.32396Q27.690638 165.83958 26.534388 165.83958Q25.253138 165.83958 24.659388 166.33958Q24.065638 166.82396 24.065638 167.54271Q24.065638 168.24583 24.643763 168.71458Q25.206263 169.18333 26.440638 169.18333ZM27.550013 158.63646L27.675013 157.54271Q28.628138 157.79271 29.159388 158.49583Q29.690638 159.19896 29.690638 160.27708Q29.690638 161.63646 28.846888 162.44896Q28.003138 163.24583 26.487513 163.24583Q24.925013 163.24583 24.065638 162.43333Q23.190638 161.62083 23.190638 160.33958Q23.190638 159.08958 24.034388 158.30833Q24.878138 157.51146 26.425013 157.51146Q26.518763 157.51146 26.706263 157.51146L26.706263 162.15208Q27.737513 162.08958 28.284388 161.57396Q28.815638 161.05833 28.815638 160.27708Q28.815638 159.69896 28.518763 159.29271Q28.206263 158.87083 27.550013 158.63646ZM25.846888 162.08958L25.846888 158.62083Q25.050013 158.68333 24.659388 159.01146Q24.050013 159.52708 24.050013 160.32396Q24.050013 161.05833 24.534388 161.55833Q25.018763 162.04271 25.846888 162.08958ZM29.550013 155.88646L23.331263 155.88646L23.331263 154.94896L24.206263 154.94896Q23.190638 154.26146 23.190638 152.96458Q23.190638 152.40208 23.393763 151.93333Q23.596888 151.44896 23.925013 151.21458Q24.253138 150.98021 24.690638 150.88646Q24.987513 150.83958 25.721888 150.83958L29.550013 150.83958L29.550013 151.88646L25.768763 151.88646Q25.112513 151.88646 24.800013 152.01146Q24.487513 152.13646 24.300013 152.44896Q24.096888 152.76146 24.096888 153.18333Q24.096888 153.85521 24.534388 154.35521Q24.956263 154.83958 26.143763 154.83958L29.550013 154.83958L29.550013 155.88646ZM27.690638 149.30833L27.534388 148.27708Q28.159388 148.18333 28.487513 147.79271Q28.815638 147.38646 28.815638 146.65208Q28.815638 145.93333 28.534388 145.58958Q28.237513 145.23021 27.831263 145.23021Q27.471888 145.23021 27.268763 145.54271Q27.128138 145.76146 26.909388 146.62083Q26.612513 147.77708 26.409388 148.23021Q26.190638 148.66771 25.815638 148.90208Q25.440638 149.13646 24.971888 149.13646Q24.565638 149.13646 24.206263 148.94896Q23.846888 148.76146 23.612513 148.43333Q23.440638 148.18333 23.315638 147.76146Q23.190638 147.33958 23.190638 146.83958Q23.190638 146.12083 23.409388 145.57396Q23.612513 145.01146 23.971888 144.74583Q24.331263 144.48021 24.925013 144.38646L25.065638 145.41771Q24.596888 145.48021 24.331263 145.82396Q24.050013 146.15208 24.050013 146.77708Q24.050013 147.49583 24.300013 147.80833Q24.534388 148.12083 24.862513 148.12083Q25.065638 148.12083 25.221888 147.99583Q25.393763 147.85521 25.503138 147.58958Q25.565638 147.43333 25.768763 146.65208Q26.081263 145.52708 26.268763 145.08958Q26.456263 144.65208 26.815638 144.40208Q27.175013 144.15208 27.721888 144.15208Q28.253138 144.15208 28.721888 144.46458Q29.175013 144.76146 29.440638 145.33958Q29.690638 145.91771 29.690638 146.65208Q29.690638 147.87083 29.190638 148.51146Q28.675013 149.13646 27.690638 149.30833ZM22.175013 141.88646L20.956263 141.88646L20.956263 140.82396L22.175013 140.82396L22.175013 141.88646ZM29.550013 141.88646L23.331263 141.88646L23.331263 140.82396L29.550013 140.82396L29.550013 141.88646ZM28.612513 136.58958L29.534388 136.43333Q29.628138 136.88646 29.628138 137.23021Q29.628138 137.80833 29.456263 138.12083Q29.268763 138.43333 28.971888 138.57396Q28.675013 138.69896 27.721888 138.69896L24.143763 138.69896L24.143763 139.46458L23.331263 139.46458L23.331263 138.69896L21.784388 138.69896L21.159388 137.65208L23.331263 137.65208L23.331263 136.58958L24.143763 136.58958L24.143763 137.65208L27.784388 137.65208Q28.237513 137.65208 28.362513 137.60521Q28.487513 137.54271 28.565638 137.41771Q28.643763 137.29271 28.643763 137.05833Q28.643763 136.87083 28.612513 136.58958ZM31.940638 135.93333L30.956263 136.05833Q31.050013 135.71458 31.050013 135.44896Q31.050013 135.10521 30.925013 134.90208Q30.815638 134.68333 30.612513 134.54271Q30.440638 134.44896 29.815638 134.21458Q29.737513 134.19896 29.565638 134.12083L23.331263 136.49583L23.331263 135.35521L26.925013 134.05833Q27.612513 133.80833 28.378138 133.60521Q27.643763 133.41771 26.956263 133.16771L23.331263 131.83958L23.331263 130.79271L29.659388 133.15208Q30.675013 133.54271 31.065638 133.74583Q31.596888 134.02708 31.831263 134.40208Q32.08126 134.76146 32.08126 135.26146Q32.08126 135.55833 31.940638 135.93333Z" fill-rule="nonzero"/><path fill="#000000" d="M70.89375 94.57917L71.925 94.438545Q71.95625 95.42292 72.28438 95.782295Q72.6125 96.14167 73.20625 96.14167Q73.62813 96.14167 73.94063 95.95417Q74.25313 95.751045 74.3625 95.42292Q74.4875 95.07917 74.4875 94.344795L74.4875 88.42292L75.6125 88.42292L75.6125 94.282295Q75.6125 95.36042 75.34688 95.95417Q75.09688 96.54792 74.53438 96.86042Q73.97188 97.157295 73.20625 97.157295Q72.08125 97.157295 71.47188 96.51667Q70.87813 95.86042 70.89375 94.57917ZM81.40938 96.251045Q80.81563 96.751045 80.26875 96.95417Q79.7375 97.157295 79.1125 97.157295Q78.08125 97.157295 77.53438 96.657295Q76.9875 96.157295 76.9875 95.376045Q76.9875 94.92292 77.19063 94.54792Q77.39375 94.157295 77.7375 93.938545Q78.08125 93.70417 78.50313 93.594795Q78.8 93.501045 79.44063 93.42292Q80.70625 93.282295 81.31563 93.063545Q81.31563 92.844795 81.31563 92.79792Q81.31563 92.14167 81.01875 91.876045Q80.6125 91.532295 79.81563 91.532295Q79.08125 91.532295 78.72188 91.79792Q78.3625 92.04792 78.19063 92.70417L77.15938 92.563545Q77.3 91.907295 77.62813 91.501045Q77.95625 91.094795 78.56563 90.876045Q79.175 90.657295 79.97188 90.657295Q80.76875 90.657295 81.26875 90.844795Q81.76875 91.032295 82.00313 91.313545Q82.2375 91.594795 82.33125 92.032295Q82.37813 92.29792 82.37813 93.001045L82.37813 94.407295Q82.37813 95.876045 82.44063 96.26667Q82.51875 96.657295 82.72188 97.01667L81.6125 97.01667Q81.45625 96.688545 81.40938 96.251045ZM81.31563 93.89167Q80.7375 94.126045 79.59688 94.29792Q78.94063 94.39167 78.675 94.51667Q78.40938 94.626045 78.25313 94.844795Q78.1125 95.063545 78.1125 95.344795Q78.1125 95.76667 78.425 96.04792Q78.75313 96.32917 79.3625 96.32917Q79.97188 96.32917 80.44063 96.063545Q80.925 95.79792 81.14375 95.32917Q81.31563 94.969795 81.31563 94.282295L81.31563 93.89167ZM84.34688 97.01667L84.34688 90.79792L85.28438 90.79792L85.28438 91.67292Q85.58125 91.20417 86.06563 90.938545Q86.55 90.657295 87.175 90.657295Q87.8625 90.657295 88.3 90.938545Q88.75313 91.219795 88.925 91.73542Q89.675 90.657295 90.84688 90.657295Q91.78438 90.657295 92.26875 91.17292Q92.76875 91.67292 92.76875 92.751045L92.76875 97.01667L91.72188 97.01667L91.72188 93.094795Q91.72188 92.469795 91.6125 92.188545Q91.51875 91.907295 91.25313 91.73542Q90.9875 91.563545 90.6125 91.563545Q89.95625 91.563545 89.51875 92.001045Q89.09688 92.438545 89.09688 93.407295L89.09688 97.01667L88.03438 97.01667L88.03438 92.969795Q88.03438 92.26667 87.76875 91.92292Q87.51875 91.563545 86.94063 91.563545Q86.4875 91.563545 86.1125 91.79792Q85.7375 92.032295 85.56563 92.48542Q85.39375 92.938545 85.39375 93.782295L85.39375 97.01667L84.34688 97.01667Z" fill-rule="nonzero"/><path fill="#000000" d="M69.51875 153.4611L69.51875 144.86736L70.64375 144.86736L70.64375 148.3986L75.1125 148.3986L75.1125 144.86736L76.25313 144.86736L76.25313 153.4611L75.1125 153.4611L75.1125 149.41423L70.64375 149.41423L70.64375 153.4611L69.51875 153.4611ZM78.34688 146.0861L78.34688 144.86736L79.40938 144.86736L79.40938 146.0861L78.34688 146.0861ZM78.34688 153.4611L78.34688 147.24236L79.40938 147.24236L79.40938 153.4611L78.34688 153.4611ZM81.14375 153.97673L82.175 154.13298Q82.2375 154.60173 82.53438 154.82048Q82.925 155.11736 83.59688 155.11736Q84.33125 155.11736 84.72188 154.82048Q85.12813 154.5236 85.26875 154.00798Q85.3625 153.67986 85.34688 152.6486Q84.65938 153.4611 83.62813 153.4611Q82.34688 153.4611 81.64375 152.53923Q80.94063 151.60173 80.94063 150.32048Q80.94063 149.42986 81.25313 148.67986Q81.58125 147.91423 82.19063 147.50798Q82.8 147.10173 83.62813 147.10173Q84.7375 147.10173 85.45625 147.99236L85.45625 147.24236L86.425 147.24236L86.425 152.61736Q86.425 154.07048 86.12813 154.67986Q85.83125 155.28923 85.19063 155.63298Q84.55 155.99236 83.6125 155.99236Q82.50313 155.99236 81.81563 155.49236Q81.12813 154.99236 81.14375 153.97673ZM82.01875 150.24236Q82.01875 151.4611 82.50313 152.0236Q82.9875 152.5861 83.72188 152.5861Q84.45625 152.5861 84.94063 152.0236Q85.44063 151.4611 85.44063 150.2736Q85.44063 149.13298 84.925 148.55486Q84.425 147.97673 83.70625 147.97673Q83.00313 147.97673 82.50313 148.55486Q82.01875 149.11736 82.01875 150.24236ZM88.34688 153.4611L88.34688 144.86736L89.39375 144.86736L89.39375 147.94548Q90.12813 147.10173 91.25313 147.10173Q91.95625 147.10173 92.45625 147.38298Q92.97188 147.6486 93.19063 148.13298Q93.40938 148.60173 93.40938 149.5236L93.40938 153.4611L92.3625 153.4611L92.3625 149.5236Q92.3625 148.72673 92.01875 148.36736Q91.675 148.00798 91.05 148.00798Q90.58125 148.00798 90.15938 148.25798Q89.75313 148.49236 89.56563 148.91423Q89.39375 149.32048 89.39375 150.05486L89.39375 153.4611L88.34688 153.4611Z" fill-rule="nonzero"/><path fill="#000000" d="M51.440624 209.90555L51.440624 201.3118L53.159374 201.3118L55.190624 207.38992Q55.471874 208.2493 55.596874 208.67117Q55.7375 208.20242 56.05 207.29617L58.1125 201.3118L59.64375 201.3118L59.64375 209.90555L58.55 209.90555L58.55 202.71805L56.05 209.90555L55.01875 209.90555L52.534374 202.59305L52.534374 209.90555L51.440624 209.90555ZM64.59688 207.90555L65.69063 208.03055Q65.44063 208.98367 64.7375 209.51492Q64.03438 210.04617 62.95625 210.04617Q61.596874 210.04617 60.784374 209.20242Q59.9875 208.35867 59.9875 206.84305Q59.9875 205.28055 60.8 204.42117Q61.6125 203.54617 62.89375 203.54617Q64.14375 203.54617 64.925 204.38992Q65.72188 205.23367 65.72188 206.78055Q65.72188 206.8743 65.72188 207.0618L61.08125 207.0618Q61.14375 208.09305 61.659374 208.63992Q62.175 209.17117 62.95625 209.17117Q63.534374 209.17117 63.940624 208.8743Q64.3625 208.5618 64.59688 207.90555ZM61.14375 206.20242L64.6125 206.20242Q64.55 205.40555 64.22188 205.01492Q63.70625 204.40555 62.909374 204.40555Q62.175 204.40555 61.675 204.88992Q61.190624 205.3743 61.14375 206.20242ZM71.37813 209.90555L71.37813 209.1243Q70.78438 210.04617 69.64375 210.04617Q68.89375 210.04617 68.26875 209.63992Q67.64375 209.21805 67.3 208.48367Q66.95625 207.7493 66.95625 206.79617Q66.95625 205.8743 67.26875 205.10867Q67.58125 204.34305 68.20625 203.95242Q68.83125 203.54617 69.59688 203.54617Q70.15938 203.54617 70.59688 203.78055Q71.03438 204.01492 71.31563 204.38992L71.31563 201.3118L72.3625 201.3118L72.3625 209.90555L71.37813 209.90555ZM68.05 206.79617Q68.05 207.9993 68.55 208.59305Q69.05 209.17117 69.7375 209.17117Q70.425 209.17117 70.90938 208.60867Q71.39375 208.04617 71.39375 206.88992Q71.39375 205.60867 70.89375 205.01492Q70.40938 204.42117 69.69063 204.42117Q68.9875 204.42117 68.51875 204.9993Q68.05 205.5618 68.05 206.79617ZM74.34688 202.53055L74.34688 201.3118L75.40938 201.3118L75.40938 202.53055L74.34688 202.53055ZM74.34688 209.90555L74.34688 203.6868L75.40938 203.6868L75.40938 209.90555L74.34688 209.90555ZM81.425 209.90555L81.425 208.98367Q80.69063 210.04617 79.44063 210.04617Q78.89375 210.04617 78.40938 209.84305Q77.94063 209.6243 77.70625 209.3118Q77.47188 208.98367 77.37813 208.51492Q77.31563 208.21805 77.31563 207.53055L77.31563 203.6868L78.37813 203.6868L78.37813 207.13992Q78.37813 207.95242 78.44063 208.2493Q78.53438 208.65555 78.84688 208.90555Q79.175 209.13992 79.65938 209.13992Q80.12813 209.13992 80.53438 208.90555Q80.95625 208.65555 81.12813 208.23367Q81.31563 207.8118 81.31563 207.01492L81.31563 203.6868L82.3625 203.6868L82.3625 209.90555L81.425 209.90555ZM84.34688 209.90555L84.34688 203.6868L85.28438 203.6868L85.28438 204.5618Q85.58125 204.09305 86.06563 203.82742Q86.55 203.54617 87.175 203.54617Q87.8625 203.54617 88.3 203.82742Q88.75313 204.10867 88.925 204.6243Q89.675 203.54617 90.84688 203.54617Q91.78438 203.54617 92.26875 204.0618Q92.76875 204.5618 92.76875 205.63992L92.76875 209.90555L91.72188 209.90555L91.72188 205.98367Q91.72188 205.35867 91.6125 205.07742Q91.51875 204.79617 91.25313 204.6243Q90.9875 204.45242 90.6125 204.45242Q89.95625 204.45242 89.51875 204.88992Q89.09688 205.32742 89.09688 206.29617L89.09688 209.90555L88.03438 209.90555L88.03438 205.85867Q88.03438 205.15555 87.76875 204.8118Q87.51875 204.45242 86.94063 204.45242Q86.4875 204.45242 86.1125 204.6868Q85.7375 204.92117 85.56563 205.3743Q85.39375 205.82742 85.39375 206.67117L85.39375 209.90555L84.34688 209.90555Z" fill-rule="nonzero"/><path fill="#000000" d="M72.425 266.35L72.425 257.75626L73.56563 257.75626L73.56563 265.33438L77.8 265.33438L77.8 266.35L72.425 266.35ZM78.95625 263.24063Q78.95625 261.50626 79.90938 260.67813Q80.70625 259.99063 81.8625 259.99063Q83.14375 259.99063 83.95625 260.83438Q84.78438 261.6625 84.78438 263.14688Q84.78438 264.35 84.425 265.0375Q84.06563 265.725 83.3625 266.11563Q82.675 266.49063 81.8625 266.49063Q80.56563 266.49063 79.75313 265.6625Q78.95625 264.81876 78.95625 263.24063ZM80.03438 263.24063Q80.03438 264.42813 80.55 265.02188Q81.08125 265.61563 81.8625 265.61563Q82.65938 265.61563 83.175 265.02188Q83.69063 264.42813 83.69063 263.20938Q83.69063 262.05313 83.15938 261.45938Q82.64375 260.86563 81.8625 260.86563Q81.08125 260.86563 80.55 261.45938Q80.03438 262.0375 80.03438 263.24063ZM87.4875 266.35L85.58125 260.13126L86.675 260.13126L87.65938 263.725L88.03438 265.05313Q88.06563 264.95938 88.3625 263.77188L89.34688 260.13126L90.425 260.13126L91.3625 263.74063L91.675 264.92813L92.03438 263.725L93.09688 260.13126L94.12813 260.13126L92.175 266.35L91.08125 266.35L90.09688 262.61563L89.84688 261.56876L88.59688 266.35L87.4875 266.35Z" fill-rule="nonzero"/><path fill="#000000" d="M97.55 313.21564Q97.55 311.6844 97.8625 310.7625Q98.175 309.825 98.78438 309.325Q99.40938 308.825 100.34688 308.825Q101.03438 308.825 101.55 309.10626Q102.08125 309.3875 102.425 309.91876Q102.76875 310.4344 102.95625 311.1844Q103.14375 311.9344 103.14375 313.21564Q103.14375 314.73126 102.83125 315.65314Q102.53438 316.575 101.90938 317.09064Q101.3 317.59064 100.34688 317.59064Q99.1125 317.59064 98.39375 316.7Q97.55 315.6375 97.55 313.21564ZM98.62813 313.21564Q98.62813 315.325 99.12813 316.02814Q99.62813 316.73126 100.34688 316.73126Q101.08125 316.73126 101.56563 316.02814Q102.06563 315.325 102.06563 313.21564Q102.06563 311.09064 101.56563 310.40314Q101.08125 309.7 100.33125 309.7Q99.6125 309.7 99.175 310.3094Q98.62813 311.09064 98.62813 313.21564Z" fill-rule="nonzero"/><path fill="#000000" d="M218.24374 317.45L217.19687 317.45L217.19687 310.73126Q216.80624 311.09064 216.18124 311.46564Q215.57187 311.825 215.0875 311.9969L215.0875 310.98126Q215.9625 310.5594 216.61874 309.98126Q217.29062 309.3875 217.57187 308.825L218.24374 308.825L218.24374 317.45ZM221.275 313.21564Q221.275 311.6844 221.5875 310.7625Q221.9 309.825 222.50937 309.325Q223.13437 308.825 224.07187 308.825Q224.75937 308.825 225.275 309.10626Q225.80624 309.3875 226.15 309.91876Q226.49374 310.4344 226.68124 311.1844Q226.86874 311.9344 226.86874 313.21564Q226.86874 314.73126 226.55624 315.65314Q226.25937 316.575 225.63437 317.09064Q225.025 317.59064 224.07187 317.59064Q222.8375 317.59064 222.11874 316.7Q221.275 315.6375 221.275 313.21564ZM222.35312 313.21564Q222.35312 315.325 222.85312 316.02814Q223.35312 316.73126 224.07187 316.73126Q224.80624 316.73126 225.29062 316.02814Q225.79062 315.325 225.79062 313.21564Q225.79062 311.09064 225.29062 310.40314Q224.80624 309.7 224.05624 309.7Q223.3375 309.7 222.9 310.3094Q222.35312 311.09064 222.35312 313.21564Z" fill-rule="nonzero"/><path fill="#000000" d="M340.04688 316.4344L340.04688 317.45L334.35938 317.45Q334.35938 317.075 334.48438 316.71564Q334.70312 316.1375 335.17188 315.575Q335.65625 315.0125 336.5625 314.27814Q337.96875 313.1219 338.45312 312.45Q338.95312 311.77814 338.95312 311.1844Q338.95312 310.5594 338.5 310.1375Q338.04688 309.7 337.32812 309.7Q336.5625 309.7 336.10938 310.15314Q335.65625 310.60626 335.64062 311.41876L334.5625 311.3094Q334.67188 310.09064 335.39062 309.46564Q336.125 308.825 337.35938 308.825Q338.59375 308.825 339.3125 309.5125Q340.03125 310.2 340.03125 311.21564Q340.03125 311.73126 339.8125 312.23126Q339.60938 312.71564 339.10938 313.27814Q338.625 313.825 337.5 314.77814Q336.54688 315.575 336.26562 315.8719Q336.0 316.15314 335.82812 316.4344L340.04688 316.4344ZM341.5 313.21564Q341.5 311.6844 341.8125 310.7625Q342.125 309.825 342.73438 309.325Q343.35938 308.825 344.29688 308.825Q344.98438 308.825 345.5 309.10626Q346.03125 309.3875 346.375 309.91876Q346.71875 310.4344 346.90625 311.1844Q347.09375 311.9344 347.09375 313.21564Q347.09375 314.73126 346.78125 315.65314Q346.48438 316.575 345.85938 317.09064Q345.25 317.59064 344.29688 317.59064Q343.0625 317.59064 342.34375 316.7Q341.5 315.6375 341.5 313.21564ZM342.57812 313.21564Q342.57812 315.325 343.07812 316.02814Q343.57812 316.73126 344.29688 316.73126Q345.03125 316.73126 345.51562 316.02814Q346.01562 315.325 346.01562 313.21564Q346.01562 311.09064 345.51562 310.40314Q345.03125 309.7 344.28125 309.7Q343.5625 309.7 343.125 310.3094Q342.57812 311.09064 342.57812 313.21564Z" fill-rule="nonzero"/><path fill="#000000" d="M454.725 315.1844L455.7875 315.04376Q455.95938 315.9344 456.39688 316.34064Q456.83438 316.73126 457.45938 316.73126Q458.20938 316.73126 458.725 316.21564Q459.24063 315.7 459.24063 314.9344Q459.24063 314.21564 458.75626 313.7469Q458.2875 313.2625 457.55313 313.2625Q457.25626 313.2625 456.80313 313.3875L456.92813 312.45Q457.0375 312.46564 457.1 312.46564Q457.77188 312.46564 458.30313 312.1219Q458.85 311.7625 458.85 311.02814Q458.85 310.45 458.45938 310.075Q458.06876 309.6844 457.44376 309.6844Q456.83438 309.6844 456.4125 310.075Q456.00626 310.46564 455.89688 311.23126L454.83438 311.04376Q455.02188 309.9969 455.70938 309.41876Q456.39688 308.825 457.4125 308.825Q458.11563 308.825 458.70938 309.1375Q459.30313 309.4344 459.61563 309.95Q459.92813 310.46564 459.92813 311.0594Q459.92813 311.60626 459.63126 312.075Q459.33438 312.52814 458.75626 312.79376Q459.50626 312.96564 459.92813 313.52814Q460.35 314.075 460.35 314.91876Q460.35 316.04376 459.52188 316.825Q458.70938 317.60626 457.45938 317.60626Q456.33438 317.60626 455.58438 316.9344Q454.83438 316.2469 454.725 315.1844ZM461.725 313.21564Q461.725 311.6844 462.0375 310.7625Q462.35 309.825 462.95938 309.325Q463.58438 308.825 464.52188 308.825Q465.20938 308.825 465.725 309.10626Q466.25626 309.3875 466.6 309.91876Q466.94376 310.4344 467.13126 311.1844Q467.31876 311.9344 467.31876 313.21564Q467.31876 314.73126 467.00626 315.65314Q466.70938 316.575 466.08438 317.09064Q465.475 317.59064 464.52188 317.59064Q463.2875 317.59064 462.56876 316.7Q461.725 315.6375 461.725 313.21564ZM462.80313 313.21564Q462.80313 315.325 463.30313 316.02814Q463.80313 316.73126 464.52188 316.73126Q465.25626 316.73126 465.74063 316.02814Q466.24063 315.325 466.24063 313.21564Q466.24063 311.09064 465.74063 310.40314Q465.25626 309.7 464.50626 309.7Q463.7875 309.7 463.35 310.3094Q462.80313 311.09064 462.80313 313.21564Z" fill-rule="nonzero"/><path fill="#000000" d="M578.325 317.45L578.325 315.3875L574.60626 315.3875L574.60626 314.41876L578.52814 308.85626L579.3875 308.85626L579.3875 314.41876L580.54376 314.41876L580.54376 315.3875L579.3875 315.3875L579.3875 317.45L578.325 317.45ZM578.325 314.41876L578.325 310.5594L575.6375 314.41876L578.325 314.41876ZM581.95 313.21564Q581.95 311.6844 582.2625 310.7625Q582.575 309.825 583.1844 309.325Q583.8094 308.825 584.7469 308.825Q585.4344 308.825 585.95 309.10626Q586.48126 309.3875 586.825 309.91876Q587.16876 310.4344 587.35626 311.1844Q587.54376 311.9344 587.54376 313.21564Q587.54376 314.73126 587.23126 315.65314Q586.9344 316.575 586.3094 317.09064Q585.7 317.59064 584.7469 317.59064Q583.5125 317.59064 582.79376 316.7Q581.95 315.6375 581.95 313.21564ZM583.02814 313.21564Q583.02814 315.325 583.52814 316.02814Q584.02814 316.73126 584.7469 316.73126Q585.48126 316.73126 585.96564 316.02814Q586.46564 315.325 586.46564 313.21564Q586.46564 311.09064 585.96564 310.40314Q585.48126 309.7 584.73126 309.7Q584.0125 309.7 583.575 310.3094Q583.02814 311.09064 583.02814 313.21564Z" fill-rule="nonzero"/><path fill="#757575" d="M18.51875 37.55L24.01875 23.2375L26.065624 23.2375L31.925 37.55L29.76875 37.55L28.096874 33.20625L22.1125 33.20625L20.534374 37.55L18.51875 37.55ZM22.659374 31.675L27.503124 31.675L26.01875 27.70625Q25.33125 25.89375 25.003124 24.7375Q24.721874 26.1125 24.221874 27.471874L22.659374 31.675ZM37.190624 37.55L31.64375 23.2375L33.690624 23.2375L37.409374 33.628124Q37.8625 34.878124 38.159374 35.971874Q38.4875 34.8 38.940624 33.628124L42.8 23.2375L44.7375 23.2375L39.128124 37.55L37.190624 37.55ZM46.128124 37.55L46.128124 23.2375L56.4875 23.2375L56.4875 24.925L48.034374 24.925L48.034374 29.3L55.940624 29.3L55.940624 30.9875L48.034374 30.9875L48.034374 35.8625L56.815624 35.8625L56.815624 37.55L46.128124 37.55ZM59.128124 37.55L59.128124 23.2375L65.47188 23.2375Q67.37813 23.2375 68.37813 23.628124Q69.37813 24.003124 69.97188 24.9875Q70.56563 25.95625 70.56563 27.14375Q70.56563 28.659374 69.58125 29.70625Q68.59688 30.753124 66.53438 31.034374Q67.28438 31.39375 67.675 31.753124Q68.50313 32.503124 69.25313 33.659374L71.7375 37.55L69.3625 37.55L67.45625 34.565624Q66.62813 33.284374 66.09688 32.596874Q65.56563 31.909374 65.12813 31.64375Q64.70625 31.3625 64.26875 31.253124Q63.940624 31.190624 63.221874 31.190624L61.01875 31.190624L61.01875 37.55L59.128124 37.55ZM61.01875 29.55L65.09688 29.55Q66.39375 29.55 67.1125 29.284374Q67.84688 29.01875 68.22188 28.425Q68.6125 27.83125 68.6125 27.14375Q68.6125 26.128124 67.87813 25.471874Q67.14375 24.815624 65.55 24.815624L61.01875 24.815624L61.01875 29.55ZM71.51875 37.55L77.01875 23.2375L79.06563 23.2375L84.925 37.55L82.76875 37.55L81.09688 33.20625L75.1125 33.20625L73.53438 37.55L71.51875 37.55ZM75.65938 31.675L80.50313 31.675L79.01875 27.70625Q78.33125 25.89375 78.00313 24.7375Q77.72188 26.1125 77.22188 27.471874L75.65938 31.675ZM92.8 31.940624L92.8 30.253124L98.8625 30.2375L98.8625 35.55Q97.45625 36.675 95.97188 37.2375Q94.4875 37.8 92.925 37.8Q90.81563 37.8 89.09688 36.89375Q87.37813 35.9875 86.4875 34.284374Q85.6125 32.565624 85.6125 30.45625Q85.6125 28.3625 86.4875 26.565624Q87.3625 24.753124 89.00313 23.878124Q90.64375 22.9875 92.78438 22.9875Q94.33125 22.9875 95.58125 23.4875Q96.84688 23.9875 97.55 24.89375Q98.26875 25.784374 98.64375 27.2375L96.94063 27.70625Q96.6125 26.6125 96.12813 25.9875Q95.65938 25.3625 94.76875 24.9875Q93.87813 24.6125 92.8 24.6125Q91.4875 24.6125 90.53438 25.003124Q89.59688 25.39375 89.01875 26.05Q88.44063 26.690624 88.1125 27.45625Q87.56563 28.784374 87.56563 30.346874Q87.56563 32.253124 88.22188 33.55Q88.89375 34.83125 90.14375 35.45625Q91.40938 36.08125 92.81563 36.08125Q94.05 36.08125 95.22188 35.6125Q96.39375 35.14375 97.00313 34.596874L97.00313 31.940624L92.8 31.940624ZM102.12813 37.55L102.12813 23.2375L112.4875 23.2375L112.4875 24.925L104.03438 24.925L104.03438 29.3L111.94063 29.3L111.94063 30.9875L104.03438 30.9875L104.03438 35.8625L112.81563 35.8625L112.81563 37.55L102.12813 37.55ZM120.22188 32.3625Q120.22188 29.4875 121.81563 28.096874Q123.15938 26.940624 125.08125 26.940624Q127.22188 26.940624 128.56563 28.346874Q129.925 29.753124 129.925 32.221874Q129.925 34.221874 129.33125 35.378124Q128.7375 36.51875 127.58125 37.159374Q126.44063 37.784374 125.08125 37.784374Q122.89375 37.784374 121.55 36.39375Q120.22188 34.9875 120.22188 32.3625ZM122.01875 32.3625Q122.01875 34.3625 122.87813 35.346874Q123.75313 36.33125 125.08125 36.33125Q126.39375 36.33125 127.25313 35.346874Q128.12813 34.346874 128.12813 32.3Q128.12813 30.378124 127.25313 29.39375Q126.37813 28.39375 125.08125 28.39375Q123.75313 28.39375 122.87813 29.39375Q122.01875 30.378124 122.01875 32.3625ZM132.28438 37.55L132.28438 28.55L130.7375 28.55L130.7375 27.175L132.28438 27.175L132.28438 26.08125Q132.28438 25.034374 132.47188 24.51875Q132.72188 23.83125 133.3625 23.409374Q134.00313 22.9875 135.15938 22.9875Q135.90938 22.9875 136.8 23.159374L136.53438 24.690624Q135.9875 24.596874 135.50313 24.596874Q134.70625 24.596874 134.3625 24.940624Q134.03438 25.284374 134.03438 26.221874L134.03438 27.175L136.06563 27.175L136.06563 28.55L134.03438 28.55L134.03438 37.55L132.28438 37.55ZM147.7375 37.55L147.7375 24.925L143.01875 24.925L143.01875 23.2375L154.3625 23.2375L154.3625 24.925L149.62813 24.925L149.62813 37.55L147.7375 37.55ZM155.87813 25.253124L155.87813 23.2375L157.64375 23.2375L157.64375 25.253124L155.87813 25.253124ZM155.87813 37.55L155.87813 27.175L157.64375 27.175L157.64375 37.55L155.87813 37.55ZM159.8625 37.55L159.8625 27.175L161.44063 27.175L161.44063 28.628124Q161.925 27.878124 162.7375 27.409374Q163.55 26.940624 164.58125 26.940624Q165.7375 26.940624 166.47188 27.425Q167.20625 27.89375 167.51875 28.753124Q168.75313 26.940624 170.72188 26.940624Q172.26875 26.940624 173.09688 27.8Q173.925 28.659374 173.925 30.425L173.925 37.55L172.175 37.55L172.175 31.01875Q172.175 29.95625 172.00313 29.503124Q171.83125 29.034374 171.37813 28.753124Q170.94063 28.471874 170.33125 28.471874Q169.2375 28.471874 168.50313 29.20625Q167.78438 29.925 167.78438 31.51875L167.78438 37.55L166.03438 37.55L166.03438 30.815624Q166.03438 29.64375 165.59688 29.065624Q165.175 28.471874 164.19063 28.471874Q163.45625 28.471874 162.81563 28.8625Q162.19063 29.253124 161.90938 30.003124Q161.62813 30.753124 161.62813 32.175L161.62813 37.55L159.8625 37.55ZM182.97188 34.20625L184.78438 34.440624Q184.3625 36.01875 183.19063 36.909374Q182.03438 37.784374 180.22188 37.784374Q177.95625 37.784374 176.6125 36.39375Q175.28438 34.9875 175.28438 32.45625Q175.28438 29.83125 176.62813 28.39375Q177.97188 26.940624 180.12813 26.940624Q182.20625 26.940624 183.51875 28.3625Q184.84688 29.76875 184.84688 32.346874Q184.84688 32.503124 184.83125 32.815624L177.09688 32.815624Q177.19063 34.51875 178.06563 35.425Q178.94063 36.33125 180.2375 36.33125Q181.20625 36.33125 181.87813 35.83125Q182.56563 35.315624 182.97188 34.20625ZM177.19063 31.3625L182.9875 31.3625Q182.87813 30.065624 182.33125 29.409374Q181.4875 28.39375 180.14375 28.39375Q178.94063 28.39375 178.1125 29.20625Q177.28438 30.003124 177.19063 31.3625ZM196.22188 41.753124Q194.76875 39.925 193.76875 37.471874Q192.76875 35.003124 192.76875 32.3625Q192.76875 30.034374 193.51875 27.909374Q194.39375 25.440624 196.22188 22.9875L197.4875 22.9875Q196.3 25.01875 195.925 25.89375Q195.33125 27.2375 194.9875 28.70625Q194.56563 30.534374 194.56563 32.378124Q194.56563 37.065624 197.4875 41.753124L196.22188 41.753124ZM199.8625 37.55L199.8625 27.175L201.44063 27.175L201.44063 28.628124Q201.925 27.878124 202.7375 27.409374Q203.55 26.940624 204.58125 26.940624Q205.7375 26.940624 206.47188 27.425Q207.20625 27.89375 207.51875 28.753124Q208.75313 26.940624 210.72188 26.940624Q212.26875 26.940624 213.09688 27.8Q213.925 28.659374 213.925 30.425L213.925 37.55L212.175 37.55L212.175 31.01875Q212.175 29.95625 212.00313 29.503124Q211.83125 29.034374 211.37813 28.753124Q210.94063 28.471874 210.33125 28.471874Q209.2375 28.471874 208.50313 29.20625Q207.78438 29.925 207.78438 31.51875L207.78438 37.55L206.03438 37.55L206.03438 30.815624Q206.03438 29.64375 205.59688 29.065624Q205.175 28.471874 204.19063 28.471874Q203.45625 28.471874 202.81563 28.8625Q202.19063 29.253124 201.90938 30.003124Q201.62813 30.753124 201.62813 32.175L201.62813 37.55L199.8625 37.55ZM215.87813 25.253124L215.87813 23.2375L217.64375 23.2375L217.64375 25.253124L215.87813 25.253124ZM215.87813 37.55L215.87813 27.175L217.64375 27.175L217.64375 37.55L215.87813 37.55ZM219.8625 37.55L219.8625 27.175L221.45625 27.175L221.45625 28.659374Q222.59688 26.940624 224.75313 26.940624Q225.69063 26.940624 226.47188 27.284374Q227.26875 27.6125 227.65938 28.159374Q228.05 28.70625 228.20625 29.45625Q228.3 29.95625 228.3 31.175L228.3 37.55L226.53438 37.55L226.53438 31.2375Q226.53438 30.159374 226.33125 29.628124Q226.12813 29.096874 225.59688 28.784374Q225.08125 28.471874 224.37813 28.471874Q223.25313 28.471874 222.44063 29.190624Q221.62813 29.89375 221.62813 31.878124L221.62813 37.55L219.8625 37.55ZM231.01875 41.753124L229.76875 41.753124Q232.675 37.065624 232.675 32.378124Q232.675 30.534374 232.26875 28.7375Q231.925 27.26875 231.33125 25.925Q230.95625 25.034374 229.76875 22.9875L231.01875 22.9875Q232.8625 25.440624 233.7375 27.909374Q234.4875 30.034374 234.4875 32.3625Q234.4875 35.003124 233.47188 37.471874Q232.47188 39.925 231.01875 41.753124ZM245.75313 37.55L241.8 27.175L243.65938 27.175L245.89375 33.39375Q246.25313 34.39375 246.55 35.471874Q246.78438 34.659374 247.20625 33.503124L249.50313 27.175L251.31563 27.175L247.39375 37.55L245.75313 37.55ZM251.15938 34.45625L252.90938 34.175Q253.05 35.221874 253.72188 35.784374Q254.39375 36.33125 255.59688 36.33125Q256.8 36.33125 257.3781 35.846874Q257.97186 35.346874 257.97186 34.690624Q257.97186 34.096874 257.45624 33.753124Q257.09686 33.51875 255.65938 33.159374Q253.72188 32.659374 252.97188 32.315624Q252.2375 31.95625 251.84688 31.33125Q251.45625 30.690624 251.45625 29.925Q251.45625 29.2375 251.76875 28.64375Q252.09688 28.05 252.64375 27.659374Q253.05 27.3625 253.75313 27.159374Q254.47188 26.940624 255.28438 26.940624Q256.5031 26.940624 257.425 27.3Q258.34686 27.64375 258.78436 28.253124Q259.22186 28.846874 259.39374 29.846874L257.675 30.08125Q257.55 29.284374 256.9875 28.846874Q256.425 28.39375 255.40938 28.39375Q254.19063 28.39375 253.675 28.8Q253.15938 29.190624 253.15938 29.721874Q253.15938 30.065624 253.37813 30.346874Q253.58125 30.628124 254.05 30.815624Q254.31563 30.909374 255.59688 31.253124Q257.47186 31.753124 258.20624 32.08125Q258.9406 32.39375 259.3625 33.003124Q259.78436 33.596874 259.78436 34.503124Q259.78436 35.378124 259.26874 36.159374Q258.7531 36.940624 257.78436 37.3625Q256.8156 37.784374 255.59688 37.784374Q253.58125 37.784374 252.51875 36.940624Q251.45625 36.096874 251.15938 34.45625ZM262.3625 37.55L262.3625 35.55L264.3625 35.55L264.3625 37.55L262.3625 37.55ZM274.1281 37.55L274.1281 23.2375L280.47186 23.2375Q282.3781 23.2375 283.3781 23.628124Q284.3781 24.003124 284.97186 24.9875Q285.5656 25.95625 285.5656 27.14375Q285.5656 28.659374 284.58124 29.70625Q283.59686 30.753124 281.53436 31.034374Q282.28436 31.39375 282.675 31.753124Q283.5031 32.503124 284.2531 33.659374L286.7375 37.55L284.3625 37.55L282.45624 34.565624Q281.6281 33.284374 281.09686 32.596874Q280.5656 31.909374 280.1281 31.64375Q279.70624 31.3625 279.26874 31.253124Q278.9406 31.190624 278.22186 31.190624L276.01874 31.190624L276.01874 37.55L274.1281 37.55ZM276.01874 29.55L280.09686 29.55Q281.39374 29.55 282.1125 29.284374Q282.84686 29.01875 283.22186 28.425Q283.6125 27.83125 283.6125 27.14375Q283.6125 26.128124 282.8781 25.471874Q282.14374 24.815624 280.55 24.815624L276.01874 24.815624L276.01874 29.55ZM287.22186 32.3625Q287.22186 29.4875 288.8156 28.096874Q290.15936 26.940624 292.08124 26.940624Q294.22186 26.940624 295.5656 28.346874Q296.925 29.753124 296.925 32.221874Q296.925 34.221874 296.33124 35.378124Q295.7375 36.51875 294.58124 37.159374Q293.4406 37.784374 292.08124 37.784374Q289.89374 37.784374 288.55 36.39375Q287.22186 34.9875 287.22186 32.3625ZM289.01874 32.3625Q289.01874 34.3625 289.8781 35.346874Q290.7531 36.33125 292.08124 36.33125Q293.39374 36.33125 294.2531 35.346874Q295.1281 34.346874 295.1281 32.3Q295.1281 30.378124 294.2531 29.39375Q293.3781 28.39375 292.08124 28.39375Q290.7531 28.39375 289.8781 29.39375Q289.01874 30.378124 289.01874 32.3625ZM305.64374 36.26875Q304.65936 37.096874 303.7531 37.440624Q302.84686 37.784374 301.8156 37.784374Q300.1125 37.784374 299.1906 36.95625Q298.26874 36.1125 298.26874 34.815624Q298.26874 34.05 298.6125 33.425Q298.97186 32.8 299.53436 32.425Q300.09686 32.034374 300.8 31.83125Q301.3156 31.70625 302.3625 31.565624Q304.4875 31.315624 305.4875 30.971874Q305.5031 30.6125 305.5031 30.503124Q305.5031 29.440624 305.0031 28.9875Q304.33124 28.39375 303.0031 28.39375Q301.7531 28.39375 301.15936 28.83125Q300.58124 29.26875 300.3 30.378124L298.58124 30.14375Q298.8156 29.034374 299.34686 28.3625Q299.8781 27.675 300.89374 27.315624Q301.90936 26.940624 303.2531 26.940624Q304.58124 26.940624 305.40936 27.253124Q306.2375 27.565624 306.6281 28.05Q307.01874 28.51875 307.175 29.2375Q307.26874 29.690624 307.26874 30.8625L307.26874 33.20625Q307.26874 35.659374 307.3781 36.315624Q307.4875 36.95625 307.83124 37.55L305.9875 37.55Q305.72186 37.003124 305.64374 36.26875ZM305.4875 32.346874Q304.53436 32.7375 302.6125 33.003124Q301.53436 33.159374 301.08124 33.3625Q300.64374 33.55 300.39374 33.925Q300.14374 34.3 300.14374 34.76875Q300.14374 35.471874 300.675 35.940624Q301.20624 36.409374 302.2375 36.409374Q303.2531 36.409374 304.03436 35.971874Q304.83124 35.51875 305.20624 34.753124Q305.4875 34.14375 305.4875 32.9875L305.4875 32.346874ZM316.59686 37.55L316.59686 36.2375Q315.6125 37.784374 313.6906 37.784374Q312.45624 37.784374 311.40936 37.096874Q310.3781 36.409374 309.8 35.190624Q309.2375 33.971874 309.2375 32.378124Q309.2375 30.815624 309.7531 29.55Q310.26874 28.284374 311.3 27.6125Q312.34686 26.940624 313.6125 26.940624Q314.55 26.940624 315.28436 27.346874Q316.01874 27.7375 316.4875 28.3625L316.4875 23.2375L318.22186 23.2375L318.22186 37.55L316.59686 37.55ZM311.03436 32.378124Q311.03436 34.3625 311.8781 35.346874Q312.72186 36.33125 313.8625 36.33125Q315.01874 36.33125 315.8156 35.39375Q316.6281 34.45625 316.6281 32.51875Q316.6281 30.39375 315.8 29.39375Q314.9875 28.39375 313.78436 28.39375Q312.6125 28.39375 311.8156 29.3625Q311.03436 30.315624 311.03436 32.378124ZM319.2531 41.51875L319.2531 40.253124L330.89374 40.253124L330.89374 41.51875L319.2531 41.51875ZM335.70624 35.971874L335.95624 37.534374Q335.22186 37.690624 334.6281 37.690624Q333.675 37.690624 333.14374 37.39375Q332.6281 37.08125 332.40936 36.596874Q332.1906 36.096874 332.1906 34.51875L332.1906 28.55L330.90936 28.55L330.90936 27.175L332.1906 27.175L332.1906 24.6125L333.9406 23.55L333.9406 27.175L335.70624 27.175L335.70624 28.55L333.9406 28.55L333.9406 34.6125Q333.9406 35.3625 334.03436 35.58125Q334.1281 35.784374 334.33124 35.925Q334.55 36.05 334.9406 36.05Q335.22186 36.05 335.70624 35.971874ZM337.84686 37.55L337.84686 27.175L339.425 27.175L339.425 28.753124Q340.03436 27.64375 340.55 27.3Q341.0656 26.940624 341.675 26.940624Q342.5656 26.940624 343.4875 27.503124L342.8781 29.14375Q342.2375 28.753124 341.59686 28.753124Q341.01874 28.753124 340.55 29.1125Q340.09686 29.45625 339.89374 30.065624Q339.6125 31.003124 339.6125 32.1125L339.6125 37.55L337.84686 37.55ZM351.64374 36.26875Q350.65936 37.096874 349.7531 37.440624Q348.84686 37.784374 347.8156 37.784374Q346.1125 37.784374 345.1906 36.95625Q344.26874 36.1125 344.26874 34.815624Q344.26874 34.05 344.6125 33.425Q344.97186 32.8 345.53436 32.425Q346.09686 32.034374 346.8 31.83125Q347.3156 31.70625 348.3625 31.565624Q350.4875 31.315624 351.4875 30.971874Q351.5031 30.6125 351.5031 30.503124Q351.5031 29.440624 351.0031 28.9875Q350.33124 28.39375 349.0031 28.39375Q347.7531 28.39375 347.15936 28.83125Q346.58124 29.26875 346.3 30.378124L344.58124 30.14375Q344.8156 29.034374 345.34686 28.3625Q345.8781 27.675 346.89374 27.315624Q347.90936 26.940624 349.2531 26.940624Q350.58124 26.940624 351.40936 27.253124Q352.2375 27.565624 352.6281 28.05Q353.01874 28.51875 353.175 29.2375Q353.26874 29.690624 353.26874 30.8625L353.26874 33.20625Q353.26874 35.659374 353.3781 36.315624Q353.4875 36.95625 353.83124 37.55L351.9875 37.55Q351.72186 37.003124 351.64374 36.26875ZM351.4875 32.346874Q350.53436 32.7375 348.6125 33.003124Q347.53436 33.159374 347.08124 33.3625Q346.64374 33.55 346.39374 33.925Q346.14374 34.3 346.14374 34.76875Q346.14374 35.471874 346.675 35.940624Q347.20624 36.409374 348.2375 36.409374Q349.2531 36.409374 350.03436 35.971874Q350.83124 35.51875 351.20624 34.753124Q351.4875 34.14375 351.4875 32.9875L351.4875 32.346874ZM356.28436 37.55L356.28436 28.55L354.7375 28.55L354.7375 27.175L356.28436 27.175L356.28436 26.08125Q356.28436 25.034374 356.47186 24.51875Q356.72186 23.83125 357.3625 23.409374Q358.0031 22.9875 359.15936 22.9875Q359.90936 22.9875 360.8 23.159374L360.53436 24.690624Q359.9875 24.596874 359.5031 24.596874Q358.70624 24.596874 358.3625 24.940624Q358.03436 25.284374 358.03436 26.221874L358.03436 27.175L360.0656 27.175L360.0656 28.55L358.03436 28.55L358.03436 37.55L356.28436 37.55ZM362.28436 37.55L362.28436 28.55L360.7375 28.55L360.7375 27.175L362.28436 27.175L362.28436 26.08125Q362.28436 25.034374 362.47186 24.51875Q362.72186 23.83125 363.3625 23.409374Q364.0031 22.9875 365.15936 22.9875Q365.90936 22.9875 366.8 23.159374L366.53436 24.690624Q365.9875 24.596874 365.5031 24.596874Q364.70624 24.596874 364.3625 24.940624Q364.03436 25.284374 364.03436 26.221874L364.03436 27.175L366.0656 27.175L366.0656 28.55L364.03436 28.55L364.03436 37.55L362.28436 37.55ZM367.8781 25.253124L367.8781 23.2375L369.64374 23.2375L369.64374 25.253124L367.8781 25.253124ZM367.8781 37.55L367.8781 27.175L369.64374 27.175L369.64374 37.55L367.8781 37.55ZM378.64374 33.753124L380.3625 33.971874Q380.08124 35.76875 378.90936 36.784374Q377.7531 37.784374 376.05 37.784374Q373.925 37.784374 372.6281 36.39375Q371.33124 35.003124 371.33124 32.409374Q371.33124 30.721874 371.8781 29.471874Q372.4406 28.20625 373.58124 27.58125Q374.72186 26.940624 376.0656 26.940624Q377.7531 26.940624 378.8156 27.8Q379.89374 28.659374 380.20624 30.221874L378.4875 30.4875Q378.2531 29.440624 377.6281 28.925Q377.0031 28.39375 376.1281 28.39375Q374.8 28.39375 373.97186 29.346874Q373.14374 30.3 373.14374 32.346874Q373.14374 34.440624 373.9406 35.39375Q374.7375 36.33125 376.03436 36.33125Q377.0656 36.33125 377.7531 35.70625Q378.45624 35.065624 378.64374 33.753124ZM380.2531 41.51875L380.2531 40.253124L391.89374 40.253124L391.89374 41.51875L380.2531 41.51875ZM399.59686 37.55L399.59686 36.2375Q398.6125 37.784374 396.6906 37.784374Q395.45624 37.784374 394.40936 37.096874Q393.3781 36.409374 392.8 35.190624Q392.2375 33.971874 392.2375 32.378124Q392.2375 30.815624 392.7531 29.55Q393.26874 28.284374 394.3 27.6125Q395.34686 26.940624 396.6125 26.940624Q397.55 26.940624 398.28436 27.346874Q399.01874 27.7375 399.4875 28.3625L399.4875 23.2375L401.22186 23.2375L401.22186 37.55L399.59686 37.55ZM394.03436 32.378124Q394.03436 34.3625 394.8781 35.346874Q395.72186 36.33125 396.8625 36.33125Q398.01874 36.33125 398.8156 35.39375Q399.6281 34.45625 399.6281 32.51875Q399.6281 30.39375 398.8 29.39375Q397.9875 28.39375 396.78436 28.39375Q395.6125 28.39375 394.8156 29.3625Q394.03436 30.315624 394.03436 32.378124ZM410.97186 34.20625L412.78436 34.440624Q412.3625 36.01875 411.1906 36.909374Q410.03436 37.784374 408.22186 37.784374Q405.95624 37.784374 404.6125 36.39375Q403.28436 34.9875 403.28436 32.45625Q403.28436 29.83125 404.6281 28.39375Q405.97186 26.940624 408.1281 26.940624Q410.20624 26.940624 411.51874 28.3625Q412.84686 29.76875 412.84686 32.346874Q412.84686 32.503124 412.83124 32.815624L405.09686 32.815624Q405.1906 34.51875 406.0656 35.425Q406.9406 36.33125 408.2375 36.33125Q409.20624 36.33125 409.8781 35.83125Q410.5656 35.315624 410.97186 34.20625ZM405.1906 31.3625L410.9875 31.3625Q410.8781 30.065624 410.33124 29.409374Q409.4875 28.39375 408.14374 28.39375Q406.9406 28.39375 406.1125 29.20625Q405.28436 30.003124 405.1906 31.3625ZM414.8625 37.55L414.8625 27.175L416.45624 27.175L416.45624 28.659374Q417.59686 26.940624 419.7531 26.940624Q420.6906 26.940624 421.47186 27.284374Q422.26874 27.6125 422.65936 28.159374Q423.05 28.70625 423.20624 29.45625Q423.3 29.95625 423.3 31.175L423.3 37.55L421.53436 37.55L421.53436 31.2375Q421.53436 30.159374 421.33124 29.628124Q421.1281 29.096874 420.59686 28.784374Q420.08124 28.471874 419.3781 28.471874Q418.2531 28.471874 417.4406 29.190624Q416.6281 29.89375 416.6281 31.878124L416.6281 37.55L414.8625 37.55ZM424.15936 34.45625L425.90936 34.175Q426.05 35.221874 426.72186 35.784374Q427.39374 36.33125 428.59686 36.33125Q429.8 36.33125 430.3781 35.846874Q430.97186 35.346874 430.97186 34.690624Q430.97186 34.096874 430.45624 33.753124Q430.09686 33.51875 428.65936 33.159374Q426.72186 32.659374 425.97186 32.315624Q425.2375 31.95625 424.84686 31.33125Q424.45624 30.690624 424.45624 29.925Q424.45624 29.2375 424.76874 28.64375Q425.09686 28.05 425.64374 27.659374Q426.05 27.3625 426.7531 27.159374Q427.47186 26.940624 428.28436 26.940624Q429.5031 26.940624 430.425 27.3Q431.34686 27.64375 431.78436 28.253124Q432.22186 28.846874 432.39374 29.846874L430.675 30.08125Q430.55 29.284374 429.9875 28.846874Q429.425 28.39375 428.40936 28.39375Q427.1906 28.39375 426.675 28.8Q426.15936 29.190624 426.15936 29.721874Q426.15936 30.065624 426.3781 30.346874Q426.58124 30.628124 427.05 30.815624Q427.3156 30.909374 428.59686 31.253124Q430.47186 31.753124 431.20624 32.08125Q431.9406 32.39375 432.3625 33.003124Q432.78436 33.596874 432.78436 34.503124Q432.78436 35.378124 432.26874 36.159374Q431.7531 36.940624 430.78436 37.3625Q429.8156 37.784374 428.59686 37.784374Q426.58124 37.784374 425.51874 36.940624Q424.45624 36.096874 424.15936 34.45625ZM434.8781 25.253124L434.8781 23.2375L436.64374 23.2375L436.64374 25.253124L434.8781 25.253124ZM434.8781 37.55L434.8781 27.175L436.64374 27.175L436.64374 37.55L434.8781 37.55ZM442.70624 35.971874L442.95624 37.534374Q442.22186 37.690624 441.6281 37.690624Q440.675 37.690624 440.14374 37.39375Q439.6281 37.08125 439.40936 36.596874Q439.1906 36.096874 439.1906 34.51875L439.1906 28.55L437.90936 28.55L437.90936 27.175L439.1906 27.175L439.1906 24.6125L440.9406 23.55L440.9406 27.175L442.70624 27.175L442.70624 28.55L440.9406 28.55L440.9406 34.6125Q440.9406 35.3625 441.03436 35.58125Q441.1281 35.784374 441.33124 35.925Q441.55 36.05 441.9406 36.05Q442.22186 36.05 442.70624 35.971874ZM444.78436 41.55L444.59686 39.89375Q445.175 40.05 445.59686 40.05Q446.1906 40.05 446.53436 39.846874Q446.89374 39.659374 447.1125 39.315624Q447.28436 39.05 447.65936 38.003124Q447.70624 37.846874 447.8156 37.565624L443.8781 27.175L445.76874 27.175L447.925 33.190624Q448.34686 34.33125 448.675 35.58125Q448.9875 34.378124 449.39374 33.221874L451.6125 27.175L453.3781 27.175L449.425 37.721874Q448.8 39.440624 448.4406 40.08125Q447.97186 40.95625 447.3625 41.346874Q446.76874 41.753124 445.925 41.753124Q445.40936 41.753124 444.78436 41.55Z" fill-rule="nonzero"/></svg>