<svg version="1.1" viewBox="0.0 0.0 600.0 371.0" fill="none" stroke="none" stroke-linecap="square" stroke-miterlimit="10" width="600" height="371" xmlns:xlink="http://www.w3.org/1999/xlink" xmlns="http://www.w3.org/2000/svg"><path fill="#ffffff" d="M0 0L600.0 0L600.0 371.0L0 371.0L0 0Z" fill-rule="nonzero"/><path stroke="#333333" stroke-width="1.0" stroke-linecap="butt" d="M100.5 54.5L100.5 300.5" fill-rule="nonzero"/><path stroke="#cccccc" stroke-width="1.0" stroke-linecap="butt" d="M220.5 54.5L220.5 300.5" fill-rule="nonzero"/><path stroke="#cccccc" stroke-width="1.0" stroke-linecap="butt" d="M341.5 54.5L341.5 300.5" fill-rule="nonzero"/><path stroke="#cccccc" stroke-width="1.0" stroke-linecap="butt" d="M461.5 54.5L461.5 300.5" fill-rule="nonzero"/><path stroke="#cccccc" stroke-width="1.0" stroke-linecap="butt" d="M581.5 54.5L581.5 300.5" fill-rule="nonzero"/><clipPath id="id_0"><path d="M100.55 54.916668L581.45 54.916668L581.45 300.45L100.55 300.45L100.55 54.916668Z" clip-rule="nonzero"/></clipPath><path stroke="#000000" stroke-width="2.0" stroke-linecap="butt" stroke-opacity="0.0" clip-path="url(#id_0)" d="M101.0 112.0L101.0 75.0L475.0 75.0C476.10458 75.0 477.0 75.89543 477.0 77.0L477.0 110.0C477.0 111.10457 476.10458 112.0 475.0 112.0Z" fill-rule="nonzero"/><path fill="#4285f4" clip-path="url(#id_0)" d="M101.0 112.0L101.0 75.0L475.0 75.0C476.10458 75.0 477.0 75.89543 477.0 77.0L477.0 110.0C477.0 111.10457 476.10458 112.0 475.0 112.0Z" fill-rule="nonzero"/><path stroke="#000000" stroke-width="2.0" stroke-linecap="butt" stroke-opacity="0.0" clip-path="url(#id_0)" d="M101.0 168.0L101.0 131.0L426.0 131.0C427.10458 131.0 428.0 131.89543 428.0 133.0L428.0 166.0C428.0 167.10457 427.10458 168.0 426.0 168.0Z" fill-rule="nonzero"/><path fill="#4285f4" clip-path="url(#id_0)" d="M101.0 168.0L101.0 131.0L426.0 131.0C427.10458 131.0 428.0 131.89543 428.0 133.0L428.0 166.0C428.0 167.10457 427.10458 168.0 426.0 168.0Z" fill-rule="nonzero"/><path stroke="#000000" stroke-width="2.0" stroke-linecap="butt" stroke-opacity="0.0" clip-path="url(#id_0)" d="M101.0 225.0L101.0 188.0L420.0 188.0C421.10458 188.0 422.0 188.89543 422.0 190.0L422.0 223.0C422.0 224.10457 421.10458 225.0 420.0 225.0Z" fill-rule="nonzero"/><path fill="#4285f4" clip-path="url(#id_0)" d="M101.0 225.0L101.0 188.0L420.0 188.0C421.10458 188.0 422.0 188.89543 422.0 190.0L422.0 223.0C422.0 224.10457 421.10458 225.0 420.0 225.0Z" fill-rule="nonzero"/><path stroke="#000000" stroke-width="2.0" stroke-linecap="butt" stroke-opacity="0.0" clip-path="url(#id_0)" d="M101.0 281.0L101.0 244.0L354.0 244.0C355.10458 244.0 356.0 244.89543 356.0 246.0L356.0 279.0C356.0 280.10458 355.10458 281.0 354.0 281.0Z" fill-rule="nonzero"/><path fill="#4285f4" clip-path="url(#id_0)" d="M101.0 281.0L101.0 244.0L354.0 244.0C355.10458 244.0 356.0 244.89543 356.0 246.0L356.0 279.0C356.0 280.10458 355.10458 281.0 354.0 281.0Z" fill-rule="nonzero"/><path fill="#000000" d="M275.48438 349.45L278.78125 340.85626L280.0 340.85626L283.51562 349.45L282.23438 349.45L281.21875 346.84064L277.64062 346.84064L276.6875 349.45L275.48438 349.45ZM277.96875 345.91876L280.875 345.91876L279.98438 343.54376Q279.5625 342.46564 279.375 341.7625Q279.20312 342.59064 278.90625 343.40314L277.96875 345.91876ZM285.875 349.45L282.54688 340.85626L283.78125 340.85626L286.01562 347.10626Q286.28125 347.85626 286.46875 348.5125Q286.67188 347.8094 286.9375 347.10626L289.25 340.85626L290.40625 340.85626L287.04688 349.45L285.875 349.45ZM290.45312 349.45L290.45312 340.85626L296.65625 340.85626L296.65625 341.8719L291.59375 341.8719L291.59375 344.4969L296.34375 344.4969L296.34375 345.5125L291.59375 345.5125L291.59375 348.4344L296.85938 348.4344L296.85938 349.45L290.45312 349.45ZM298.4375 349.45L298.4375 340.85626L302.25 340.85626Q303.40625 340.85626 304.0 341.09064Q304.59375 341.325 304.95312 341.91876Q305.3125 342.4969 305.3125 343.2Q305.3125 344.1219 304.71875 344.7469Q304.125 345.3719 302.89062 345.54376Q303.34375 345.7625 303.57812 345.96564Q304.07812 346.41876 304.51562 347.10626L306.01562 349.45L304.57812 349.45L303.45312 347.66876Q302.95312 346.8875 302.625 346.48126Q302.3125 346.075 302.04688 345.91876Q301.79688 345.7469 301.53125 345.66876Q301.34375 345.6375 300.90625 345.6375L299.57812 345.6375L299.57812 349.45L298.4375 349.45ZM299.57812 344.65314L302.03125 344.65314Q302.79688 344.65314 303.23438 344.4969Q303.6875 344.325 303.90625 343.98126Q304.14062 343.6219 304.14062 343.2Q304.14062 342.59064 303.6875 342.2Q303.25 341.8094 302.29688 341.8094L299.57812 341.8094L299.57812 344.65314ZM306.48438 349.45L309.78125 340.85626L311.0 340.85626L314.51562 349.45L313.23438 349.45L312.21875 346.84064L308.64062 346.84064L307.6875 349.45L306.48438 349.45ZM308.96875 345.91876L311.875 345.91876L310.98438 343.54376Q310.5625 342.46564 310.375 341.7625Q310.20312 342.59064 309.90625 343.40314L308.96875 345.91876ZM318.45312 346.075L318.45312 345.075L322.07812 345.0594L322.07812 348.2469Q321.25 348.91876 320.35938 349.2625Q319.46875 349.59064 318.53125 349.59064Q317.26562 349.59064 316.21875 349.0594Q315.1875 348.5125 314.65625 347.4969Q314.14062 346.46564 314.14062 345.2Q314.14062 343.9344 314.65625 342.85626Q315.1875 341.7625 316.17188 341.2469Q317.15625 340.71564 318.4375 340.71564Q319.375 340.71564 320.125 341.0125Q320.875 341.3094 321.29688 341.85626Q321.73438 342.3875 321.95312 343.2625L320.9375 343.54376Q320.73438 342.8875 320.4375 342.5125Q320.15625 342.1375 319.625 341.91876Q319.09375 341.6844 318.45312 341.6844Q317.67188 341.6844 317.09375 341.91876Q316.53125 342.15314 316.17188 342.54376Q315.82812 342.9344 315.64062 343.40314Q315.3125 344.2 315.3125 345.1219Q315.3125 346.27814 315.70312 347.0594Q316.10938 347.825 316.85938 348.2Q317.60938 348.575 318.46875 348.575Q319.20312 348.575 319.90625 348.29376Q320.60938 347.9969 320.96875 347.6844L320.96875 346.075L318.45312 346.075ZM323.45312 349.45L323.45312 340.85626L329.65625 340.85626L329.65625 341.8719L324.59375 341.8719L324.59375 344.4969L329.34375 344.4969L329.34375 345.5125L324.59375 345.5125L324.59375 348.4344L329.85938 348.4344L329.85938 349.45L323.45312 349.45ZM333.90625 346.34064Q333.90625 344.60626 334.85938 343.77814Q335.65625 343.09064 336.8125 343.09064Q338.09375 343.09064 338.90625 343.9344Q339.73438 344.7625 339.73438 346.2469Q339.73438 347.45 339.375 348.1375Q339.01562 348.825 338.3125 349.21564Q337.625 349.59064 336.8125 349.59064Q335.51562 349.59064 334.70312 348.7625Q333.90625 347.91876 333.90625 346.34064ZM334.98438 346.34064Q334.98438 347.52814 335.5 348.1219Q336.03125 348.71564 336.8125 348.71564Q337.60938 348.71564 338.125 348.1219Q338.64062 347.52814 338.64062 346.3094Q338.64062 345.15314 338.10938 344.5594Q337.59375 343.96564 336.8125 343.96564Q336.03125 343.96564 335.5 344.5594Q334.98438 345.1375 334.98438 346.34064ZM341.54688 349.45L341.54688 344.04376L340.60938 344.04376L340.60938 343.23126L341.54688 343.23126L341.54688 342.5594Q341.54688 341.9344 341.65625 341.6375Q341.8125 341.21564 342.1875 340.96564Q342.57812 340.71564 343.26562 340.71564Q343.71875 340.71564 344.25 340.825L344.09375 341.73126Q343.76562 341.6844 343.46875 341.6844Q342.98438 341.6844 342.78125 341.8875Q342.59375 342.09064 342.59375 342.65314L342.59375 343.23126L343.8125 343.23126L343.8125 344.04376L342.59375 344.04376L342.59375 349.45L341.54688 349.45ZM349.60938 349.45L349.60938 341.8719L346.78125 341.8719L346.78125 340.85626L353.59375 340.85626L353.59375 341.8719L350.75 341.8719L350.75 349.45L349.60938 349.45ZM354.29688 342.075L354.29688 340.85626L355.35938 340.85626L355.35938 342.075L354.29688 342.075ZM354.29688 349.45L354.29688 343.23126L355.35938 343.23126L355.35938 349.45L354.29688 349.45ZM357.29688 349.45L357.29688 343.23126L358.23438 343.23126L358.23438 344.10626Q358.53125 343.6375 359.01562 343.3719Q359.5 343.09064 360.125 343.09064Q360.8125 343.09064 361.25 343.3719Q361.70312 343.65314 361.875 344.16876Q362.625 343.09064 363.79688 343.09064Q364.73438 343.09064 365.21875 343.60626Q365.71875 344.10626 365.71875 345.1844L365.71875 349.45L364.67188 349.45L364.67188 345.52814Q364.67188 344.90314 364.5625 344.6219Q364.46875 344.34064 364.20312 344.16876Q363.9375 343.9969 363.5625 343.9969Q362.90625 343.9969 362.46875 344.4344Q362.04688 344.8719 362.04688 345.84064L362.04688 349.45L360.98438 349.45L360.98438 345.40314Q360.98438 344.7 360.71875 344.35626Q360.46875 343.9969 359.89062 343.9969Q359.4375 343.9969 359.0625 344.23126Q358.6875 344.46564 358.51562 344.91876Q358.34375 345.3719 358.34375 346.21564L358.34375 349.45L357.29688 349.45ZM372.54688 347.45L373.64062 347.575Q373.39062 348.52814 372.6875 349.0594Q371.98438 349.59064 370.90625 349.59064Q369.54688 349.59064 368.73438 348.7469Q367.9375 347.90314 367.9375 346.3875Q367.9375 344.825 368.75 343.96564Q369.5625 343.09064 370.84375 343.09064Q372.09375 343.09064 372.875 343.9344Q373.67188 344.77814 373.67188 346.325Q373.67188 346.41876 373.67188 346.60626L369.03125 346.60626Q369.09375 347.6375 369.60938 348.1844Q370.125 348.71564 370.90625 348.71564Q371.48438 348.71564 371.89062 348.41876Q372.3125 348.10626 372.54688 347.45ZM369.09375 345.7469L372.5625 345.7469Q372.5 344.95 372.17188 344.5594Q371.65625 343.95 370.85938 343.95Q370.125 343.95 369.625 344.4344Q369.14062 344.91876 369.09375 345.7469ZM380.3125 351.98126Q379.4375 350.8719 378.82812 349.40314Q378.23438 347.91876 378.23438 346.34064Q378.23438 344.95 378.67188 343.66876Q379.20312 342.1844 380.3125 340.71564L381.0625 340.71564Q380.35938 341.9344 380.125 342.45Q379.76562 343.2625 379.5625 344.1375Q379.3125 345.23126 379.3125 346.34064Q379.3125 349.16876 381.0625 351.98126L380.3125 351.98126ZM382.29688 349.45L382.29688 343.23126L383.23438 343.23126L383.23438 344.10626Q383.53125 343.6375 384.01562 343.3719Q384.5 343.09064 385.125 343.09064Q385.8125 343.09064 386.25 343.3719Q386.70312 343.65314 386.875 344.16876Q387.625 343.09064 388.79688 343.09064Q389.73438 343.09064 390.21875 343.60626Q390.71875 344.10626 390.71875 345.1844L390.71875 349.45L389.67188 349.45L389.67188 345.52814Q389.67188 344.90314 389.5625 344.6219Q389.46875 344.34064 389.20312 344.16876Q388.9375 343.9969 388.5625 343.9969Q387.90625 343.9969 387.46875 344.4344Q387.04688 344.8719 387.04688 345.84064L387.04688 349.45L385.98438 349.45L385.98438 345.40314Q385.98438 344.7 385.71875 344.35626Q385.46875 343.9969 384.89062 343.9969Q384.4375 343.9969 384.0625 344.23126Q383.6875 344.46564 383.51562 344.91876Q383.34375 345.3719 383.34375 346.21564L383.34375 349.45L382.29688 349.45ZM393.29688 342.075L393.29688 340.85626L394.35938 340.85626L394.35938 342.075L393.29688 342.075ZM393.29688 349.45L393.29688 343.23126L394.35938 343.23126L394.35938 349.45L393.29688 349.45ZM396.29688 349.45L396.29688 343.23126L397.23438 343.23126L397.23438 344.10626Q397.92188 343.09064 399.21875 343.09064Q399.78125 343.09064 400.25 343.29376Q400.73438 343.4969 400.96875 343.825Q401.20312 344.15314 401.29688 344.59064Q401.34375 344.8875 401.34375 345.6219L401.34375 349.45L400.29688 349.45L400.29688 345.66876Q400.29688 345.0125 400.17188 344.7Q400.04688 344.3875 399.73438 344.2Q399.42188 343.9969 399.0 343.9969Q398.32812 343.9969 397.82812 344.4344Q397.34375 344.85626 397.34375 346.04376L397.34375 349.45L396.29688 349.45ZM403.98438 351.98126L403.23438 351.98126Q404.98438 349.16876 404.98438 346.34064Q404.98438 345.2469 404.73438 344.15314Q404.53125 343.27814 404.17188 342.46564Q403.9375 341.95 403.23438 340.71564L403.98438 340.71564Q405.07812 342.1844 405.60938 343.66876Q406.0625 344.95 406.0625 346.34064Q406.0625 347.91876 405.45312 349.40314Q404.84375 350.8719 403.98438 351.98126Z" fill-rule="nonzero"/><path fill="#000000" d="M29.550013 223.07396L21.971888 223.07396L21.971888 225.90208L20.956263 225.90208L20.956263 219.08958L21.971888 219.08958L21.971888 221.93333L29.550013 221.93333L29.550013 223.07396ZM29.550013 218.40208L23.331263 218.40208L23.331263 217.44896L24.268763 217.44896Q23.612513 217.08958 23.409388 216.79271Q23.190638 216.48021 23.190638 216.10521Q23.190638 215.57396 23.518763 215.02708L24.503138 215.38646Q24.268763 215.77708 24.268763 216.15208Q24.268763 216.51146 24.487513 216.79271Q24.690638 217.05833 25.065638 217.16771Q25.628138 217.35521 26.284388 217.35521L29.550013 217.35521L29.550013 218.40208ZM28.784388 210.32396Q29.284388 210.91771 29.487513 211.46458Q29.690638 211.99583 29.690638 212.62083Q29.690638 213.65208 29.190638 214.19896Q28.690638 214.74583 27.909388 214.74583Q27.456263 214.74583 27.081263 214.54271Q26.690638 214.33958 26.471888 213.99583Q26.237513 213.65208 26.128138 213.23021Q26.034388 212.93333 25.956263 212.29271Q25.815638 211.02708 25.596888 210.41771Q25.378138 210.41771 25.331263 210.41771Q24.675013 210.41771 24.409388 210.71458Q24.065638 211.12083 24.065638 211.91771Q24.065638 212.65208 24.331263 213.01146Q24.581263 213.37083 25.237513 213.54271L25.096888 214.57396Q24.440638 214.43333 24.034388 214.10521Q23.628138 213.77708 23.409388 213.16771Q23.190638 212.55833 23.190638 211.76146Q23.190638 210.96458 23.378138 210.46458Q23.565638 209.96458 23.846888 209.73021Q24.128138 209.49583 24.565638 209.40208Q24.831263 209.35521 25.534388 209.35521L26.940638 209.35521Q28.409388 209.35521 28.800013 209.29271Q29.190638 209.21458 29.550013 209.01146L29.550013 210.12083Q29.221888 210.27708 28.784388 210.32396ZM26.425013 210.41771Q26.659388 210.99583 26.831263 212.13646Q26.925013 212.79271 27.050013 213.05833Q27.159388 213.32396 27.378138 213.48021Q27.596888 213.62083 27.878138 213.62083Q28.300013 213.62083 28.581263 213.30833Q28.862513 212.98021 28.862513 212.37083Q28.862513 211.76146 28.596888 211.29271Q28.331263 210.80833 27.862513 210.58958Q27.503138 210.41771 26.815638 210.41771L26.425013 210.41771ZM29.550013 207.13646L24.143763 207.13646L24.143763 208.07396L23.331263 208.07396L23.331263 207.13646L22.659388 207.13646Q22.034388 207.13646 21.737513 207.02708Q21.315638 206.87083 21.065638 206.49583Q20.815638 206.10521 20.815638 205.41771Q20.815638 204.96458 20.925013 204.43333L21.831263 204.58958Q21.784388 204.91771 21.784388 205.21458Q21.784388 205.69896 21.987513 205.90208Q22.190638 206.08958 22.753138 206.08958L23.331263 206.08958L23.331263 204.87083L24.143763 204.87083L24.143763 206.08958L29.550013 206.08958L29.550013 207.13646ZM29.550013 204.13646L24.143763 204.13646L24.143763 205.07396L23.331263 205.07396L23.331263 204.13646L22.659388 204.13646Q22.034388 204.13646 21.737513 204.02708Q21.315638 203.87083 21.065638 203.49583Q20.815638 203.10521 20.815638 202.41771Q20.815638 201.96458 20.925013 201.43333L21.831263 201.58958Q21.784388 201.91771 21.784388 202.21458Q21.784388 202.69896 21.987513 202.90208Q22.190638 203.08958 22.753138 203.08958L23.331263 203.08958L23.331263 201.87083L24.143763 201.87083L24.143763 203.08958L29.550013 203.08958L29.550013 204.13646ZM22.175013 201.38646L20.956263 201.38646L20.956263 200.32396L22.175013 200.32396L22.175013 201.38646ZM29.550013 201.38646L23.331263 201.38646L23.331263 200.32396L29.550013 200.32396L29.550013 201.38646ZM27.268763 194.32396L27.409388 193.29271Q28.471888 193.46458 29.081263 194.16771Q29.690638 194.87083 29.690638 195.88646Q29.690638 197.16771 28.862513 197.94896Q28.018763 198.71458 26.456263 198.71458Q25.456263 198.71458 24.706263 198.38646Q23.940638 198.04271 23.565638 197.37083Q23.190638 196.68333 23.190638 195.87083Q23.190638 194.87083 23.706263 194.23021Q24.206263 193.57396 25.159388 193.38646L25.315638 194.41771Q24.690638 194.55833 24.378138 194.93333Q24.050013 195.30833 24.050013 195.83958Q24.050013 196.63646 24.628138 197.13646Q25.190638 197.63646 26.425013 197.63646Q27.690638 197.63646 28.253138 197.15208Q28.815638 196.66771 28.815638 195.90208Q28.815638 195.27708 28.440638 194.87083Q28.065638 194.44896 27.268763 194.32396ZM29.550013 189.26146L20.956263 189.26146L20.956263 186.29271Q20.956263 185.29271 21.081263 184.76146Q21.253138 184.02708 21.690638 183.51146Q22.268763 182.82396 23.175013 182.49583Q24.065638 182.15208 25.206263 182.15208Q26.190638 182.15208 26.940638 182.38646Q27.690638 182.60521 28.190638 182.96458Q28.690638 183.32396 28.971888 183.76146Q29.253138 184.18333 29.409388 184.77708Q29.550013 185.37083 29.550013 186.15208L29.550013 189.26146ZM28.534388 188.12083L28.534388 186.29271Q28.534388 185.43333 28.378138 184.94896Q28.221888 184.46458 27.925013 184.18333Q27.534388 183.77708 26.846888 183.55833Q26.159388 183.32396 25.190638 183.32396Q23.846888 183.32396 23.128138 183.77708Q22.393763 184.21458 22.143763 184.83958Q21.971888 185.30833 21.971888 186.30833L21.971888 188.12083L28.534388 188.12083ZM27.550013 176.13646L27.675013 175.04271Q28.628138 175.29271 29.159388 175.99583Q29.690638 176.69896 29.690638 177.77708Q29.690638 179.13646 28.846888 179.94896Q28.003138 180.74583 26.487513 180.74583Q24.925013 180.74583 24.065638 179.93333Q23.190638 179.12083 23.190638 177.83958Q23.190638 176.58958 24.034388 175.80833Q24.878138 175.01146 26.425013 175.01146Q26.518763 175.01146 26.706263 175.01146L26.706263 179.65208Q27.737513 179.58958 28.284388 179.07396Q28.815638 178.55833 28.815638 177.77708Q28.815638 177.19896 28.518763 176.79271Q28.206263 176.37083 27.550013 176.13646ZM25.846888 179.58958L25.846888 176.12083Q25.050013 176.18333 24.659388 176.51146Q24.050013 177.02708 24.050013 177.82396Q24.050013 178.55833 24.534388 179.05833Q25.018763 179.54271 25.846888 179.58958ZM29.550013 173.38646L23.331263 173.38646L23.331263 172.44896L24.206263 172.44896Q23.190638 171.76146 23.190638 170.46458Q23.190638 169.90208 23.393763 169.43333Q23.596888 168.94896 23.925013 168.71458Q24.253138 168.48021 24.690638 168.38646Q24.987513 168.33958 25.721888 168.33958L29.550013 168.33958L29.550013 169.38646L25.768763 169.38646Q25.112513 169.38646 24.800013 169.51146Q24.487513 169.63646 24.300013 169.94896Q24.096888 170.26146 24.096888 170.68333Q24.096888 171.35521 24.534388 171.85521Q24.956263 172.33958 26.143763 172.33958L29.550013 172.33958L29.550013 173.38646ZM27.690638 166.80833L27.534388 165.77708Q28.159388 165.68333 28.487513 165.29271Q28.815638 164.88646 28.815638 164.15208Q28.815638 163.43333 28.534388 163.08958Q28.237513 162.73021 27.831263 162.73021Q27.471888 162.73021 27.268763 163.04271Q27.128138 163.26146 26.909388 164.12083Q26.612513 165.27708 26.409388 165.73021Q26.190638 166.16771 25.815638 166.40208Q25.440638 166.63646 24.971888 166.63646Q24.565638 166.63646 24.206263 166.44896Q23.846888 166.26146 23.612513 165.93333Q23.440638 165.68333 23.315638 165.26146Q23.190638 164.83958 23.190638 164.33958Q23.190638 163.62083 23.409388 163.07396Q23.612513 162.51146 23.971888 162.24583Q24.331263 161.98021 24.925013 161.88646L25.065638 162.91771Q24.596888 162.98021 24.331263 163.32396Q24.050013 163.65208 24.050013 164.27708Q24.050013 164.99583 24.300013 165.30833Q24.534388 165.62083 24.862513 165.62083Q25.065638 165.62083 25.221888 165.49583Q25.393763 165.35521 25.503138 165.08958Q25.565638 164.93333 25.768763 164.15208Q26.081263 163.02708 26.268763 162.58958Q26.456263 162.15208 26.815638 161.90208Q27.175013 161.65208 27.721888 161.65208Q28.253138 161.65208 28.721888 161.96458Q29.175013 162.26146 29.440638 162.83958Q29.690638 163.41771 29.690638 164.15208Q29.690638 165.37083 29.190638 166.01146Q28.675013 166.63646 27.690638 166.80833ZM22.175013 159.38646L20.956263 159.38646L20.956263 158.32396L22.175013 158.32396L22.175013 159.38646ZM29.550013 159.38646L23.331263 159.38646L23.331263 158.32396L29.550013 158.32396L29.550013 159.38646ZM28.612513 154.08958L29.534388 153.93333Q29.628138 154.38646 29.628138 154.73021Q29.628138 155.30833 29.456263 155.62083Q29.268763 155.93333 28.971888 156.07396Q28.675013 156.19896 27.721888 156.19896L24.143763 156.19896L24.143763 156.96458L23.331263 156.96458L23.331263 156.19896L21.784388 156.19896L21.159388 155.15208L23.331263 155.15208L23.331263 154.08958L24.143763 154.08958L24.143763 155.15208L27.784388 155.15208Q28.237513 155.15208 28.362513 155.10521Q28.487513 155.04271 28.565638 154.91771Q28.643763 154.79271 28.643763 154.55833Q28.643763 154.37083 28.612513 154.08958ZM31.940638 153.43333L30.956263 153.55833Q31.050013 153.21458 31.050013 152.94896Q31.050013 152.60521 30.925013 152.40208Q30.815638 152.18333 30.612513 152.04271Q30.440638 151.94896 29.815638 151.71458Q29.737513 151.69896 29.565638 151.62083L23.331263 153.99583L23.331263 152.85521L26.925013 151.55833Q27.612513 151.30833 28.378138 151.10521Q27.643763 150.91771 26.956263 150.66771L23.331263 149.33958L23.331263 148.29271L29.659388 150.65208Q30.675013 151.04271 31.065638 151.24583Q31.596888 151.52708 31.831263 151.90208Q32.08126 152.26146 32.08126 152.76146Q32.08126 153.05833 31.940638 153.43333Z" fill-rule="nonzero"/><path fill="#000000" d="M70.89375 94.57917L71.925 94.438545Q71.95625 95.42292 72.28438 95.782295Q72.6125 96.14167 73.20625 96.14167Q73.62813 96.14167 73.94063 95.95417Q74.25313 95.751045 74.3625 95.42292Q74.4875 95.07917 74.4875 94.344795L74.4875 88.42292L75.6125 88.42292L75.6125 94.282295Q75.6125 95.36042 75.34688 95.95417Q75.09688 96.54792 74.53438 96.86042Q73.97188 97.157295 73.20625 97.157295Q72.08125 97.157295 71.47188 96.51667Q70.87813 95.86042 70.89375 94.57917ZM81.40938 96.251045Q80.81563 96.751045 80.26875 96.95417Q79.7375 97.157295 79.1125 97.157295Q78.08125 97.157295 77.53438 96.657295Q76.9875 96.157295 76.9875 95.376045Q76.9875 94.92292 77.19063 94.54792Q77.39375 94.157295 77.7375 93.938545Q78.08125 93.70417 78.50313 93.594795Q78.8 93.501045 79.44063 93.42292Q80.70625 93.282295 81.31563 93.063545Q81.31563 92.844795 81.31563 92.79792Q81.31563 92.14167 81.01875 91.876045Q80.6125 91.532295 79.81563 91.532295Q79.08125 91.532295 78.72188 91.79792Q78.3625 92.04792 78.19063 92.70417L77.15938 92.563545Q77.3 91.907295 77.62813 91.501045Q77.95625 91.094795 78.56563 90.876045Q79.175 90.657295 79.97188 90.657295Q80.76875 90.657295 81.26875 90.844795Q81.76875 91.032295 82.00313 91.313545Q82.2375 91.594795 82.33125 92.032295Q82.37813 92.29792 82.37813 93.001045L82.37813 94.407295Q82.37813 95.876045 82.44063 96.26667Q82.51875 96.657295 82.72188 97.01667L81.6125 97.01667Q81.45625 96.688545 81.40938 96.251045ZM81.31563 93.89167Q80.7375 94.126045 79.59688 94.29792Q78.94063 94.39167 78.675 94.51667Q78.40938 94.626045 78.25313 94.844795Q78.1125 95.063545 78.1125 95.344795Q78.1125 95.76667 78.425 96.04792Q78.75313 96.32917 79.3625 96.32917Q79.97188 96.32917 80.44063 96.063545Q80.925 95.79792 81.14375 95.32917Q81.31563 94.969795 81.31563 94.282295L81.31563 93.89167ZM84.34688 97.01667L84.34688 90.79792L85.28438 90.79792L85.28438 91.67292Q85.58125 91.20417 86.06563 90.938545Q86.55 90.657295 87.175 90.657295Q87.8625 90.657295 88.3 90.938545Q88.75313 91.219795 88.925 91.73542Q89.675 90.657295 90.84688 90.657295Q91.78438 90.657295 92.26875 91.17292Q92.76875 91.67292 92.76875 92.751045L92.76875 97.01667L91.72188 97.01667L91.72188 93.094795Q91.72188 92.469795 91.6125 92.188545Q91.51875 91.907295 91.25313 91.73542Q90.9875 91.563545 90.6125 91.563545Q89.95625 91.563545 89.51875 92.001045Q89.09688 92.438545 89.09688 93.407295L89.09688 97.01667L88.03438 97.01667L88.03438 92.969795Q88.03438 92.26667 87.76875 91.92292Q87.51875 91.563545 86.94063 91.563545Q86.4875 91.563545 86.1125 91.79792Q85.7375 92.032295 85.56563 92.48542Q85.39375 92.938545 85.39375 93.782295L85.39375 97.01667L84.34688 97.01667Z" fill-rule="nonzero"/><path fill="#000000" d="M69.51875 153.4611L69.51875 144.86736L70.64375 144.86736L70.64375 148.3986L75.1125 148.3986L75.1125 144.86736L76.25313 144.86736L76.25313 153.4611L75.1125 153.4611L75.1125 149.41423L70.64375 149.41423L70.64375 153.4611L69.51875 153.4611ZM78.34688 146.0861L78.34688 144.86736L79.40938 144.86736L79.40938 146.0861L78.34688 146.0861ZM78.34688 153.4611L78.34688 147.24236L79.40938 147.24236L79.40938 153.4611L78.34688 153.4611ZM81.14375 153.97673L82.175 154.13298Q82.2375 154.60173 82.53438 154.82048Q82.925 155.11736 83.59688 155.11736Q84.33125 155.11736 84.72188 154.82048Q85.12813 154.5236 85.26875 154.00798Q85.3625 153.67986 85.34688 152.6486Q84.65938 153.4611 83.62813 153.4611Q82.34688 153.4611 81.64375 152.53923Q80.94063 151.60173 80.94063 150.32048Q80.94063 149.42986 81.25313 148.67986Q81.58125 147.91423 82.19063 147.50798Q82.8 147.10173 83.62813 147.10173Q84.7375 147.10173 85.45625 147.99236L85.45625 147.24236L86.425 147.24236L86.425 152.61736Q86.425 154.07048 86.12813 154.67986Q85.83125 155.28923 85.19063 155.63298Q84.55 155.99236 83.6125 155.99236Q82.50313 155.99236 81.81563 155.49236Q81.12813 154.99236 81.14375 153.97673ZM82.01875 150.24236Q82.01875 151.4611 82.50313 152.0236Q82.9875 152.5861 83.72188 152.5861Q84.45625 152.5861 84.94063 152.0236Q85.44063 151.4611 85.44063 150.2736Q85.44063 149.13298 84.925 148.55486Q84.425 147.97673 83.70625 147.97673Q83.00313 147.97673 82.50313 148.55486Q82.01875 149.11736 82.01875 150.24236ZM88.34688 153.4611L88.34688 144.86736L89.39375 144.86736L89.39375 147.94548Q90.12813 147.10173 91.25313 147.10173Q91.95625 147.10173 92.45625 147.38298Q92.97188 147.6486 93.19063 148.13298Q93.40938 148.60173 93.40938 149.5236L93.40938 153.4611L92.3625 153.4611L92.3625 149.5236Q92.3625 148.72673 92.01875 148.36736Q91.675 148.00798 91.05 148.00798Q90.58125 148.00798 90.15938 148.25798Q89.75313 148.49236 89.56563 148.91423Q89.39375 149.32048 89.39375 150.05486L89.39375 153.4611L88.34688 153.4611Z" fill-rule="nonzero"/><path fill="#000000" d="M51.440624 209.90555L51.440624 201.3118L53.159374 201.3118L55.190624 207.38992Q55.471874 208.2493 55.596874 208.67117Q55.7375 208.20242 56.05 207.29617L58.1125 201.3118L59.64375 201.3118L59.64375 209.90555L58.55 209.90555L58.55 202.71805L56.05 209.90555L55.01875 209.90555L52.534374 202.59305L52.534374 209.90555L51.440624 209.90555ZM64.59688 207.90555L65.69063 208.03055Q65.44063 208.98367 64.7375 209.51492Q64.03438 210.04617 62.95625 210.04617Q61.596874 210.04617 60.784374 209.20242Q59.9875 208.35867 59.9875 206.84305Q59.9875 205.28055 60.8 204.42117Q61.6125 203.54617 62.89375 203.54617Q64.14375 203.54617 64.925 204.38992Q65.72188 205.23367 65.72188 206.78055Q65.72188 206.8743 65.72188 207.0618L61.08125 207.0618Q61.14375 208.09305 61.659374 208.63992Q62.175 209.17117 62.95625 209.17117Q63.534374 209.17117 63.940624 208.8743Q64.3625 208.5618 64.59688 207.90555ZM61.14375 206.20242L64.6125 206.20242Q64.55 205.40555 64.22188 205.01492Q63.70625 204.40555 62.909374 204.40555Q62.175 204.40555 61.675 204.88992Q61.190624 205.3743 61.14375 206.20242ZM71.37813 209.90555L71.37813 209.1243Q70.78438 210.04617 69.64375 210.04617Q68.89375 210.04617 68.26875 209.63992Q67.64375 209.21805 67.3 208.48367Q66.95625 207.7493 66.95625 206.79617Q66.95625 205.8743 67.26875 205.10867Q67.58125 204.34305 68.20625 203.95242Q68.83125 203.54617 69.59688 203.54617Q70.15938 203.54617 70.59688 203.78055Q71.03438 204.01492 71.31563 204.38992L71.31563 201.3118L72.3625 201.3118L72.3625 209.90555L71.37813 209.90555ZM68.05 206.79617Q68.05 207.9993 68.55 208.59305Q69.05 209.17117 69.7375 209.17117Q70.425 209.17117 70.90938 208.60867Q71.39375 208.04617 71.39375 206.88992Q71.39375 205.60867 70.89375 205.01492Q70.40938 204.42117 69.69063 204.42117Q68.9875 204.42117 68.51875 204.9993Q68.05 205.5618 68.05 206.79617ZM74.34688 202.53055L74.34688 201.3118L75.40938 201.3118L75.40938 202.53055L74.34688 202.53055ZM74.34688 209.90555L74.34688 203.6868L75.40938 203.6868L75.40938 209.90555L74.34688 209.90555ZM81.425 209.90555L81.425 208.98367Q80.69063 210.04617 79.44063 210.04617Q78.89375 210.04617 78.40938 209.84305Q77.94063 209.6243 77.70625 209.3118Q77.47188 208.98367 77.37813 208.51492Q77.31563 208.21805 77.31563 207.53055L77.31563 203.6868L78.37813 203.6868L78.37813 207.13992Q78.37813 207.95242 78.44063 208.2493Q78.53438 208.65555 78.84688 208.90555Q79.175 209.13992 79.65938 209.13992Q80.12813 209.13992 80.53438 208.90555Q80.95625 208.65555 81.12813 208.23367Q81.31563 207.8118 81.31563 207.01492L81.31563 203.6868L82.3625 203.6868L82.3625 209.90555L81.425 209.90555ZM84.34688 209.90555L84.34688 203.6868L85.28438 203.6868L85.28438 204.5618Q85.58125 204.09305 86.06563 203.82742Q86.55 203.54617 87.175 203.54617Q87.8625 203.54617 88.3 203.82742Q88.75313 204.10867 88.925 204.6243Q89.675 203.54617 90.84688 203.54617Q91.78438 203.54617 92.26875 204.0618Q92.76875 204.5618 92.76875 205.63992L92.76875 209.90555L91.72188 209.90555L91.72188 205.98367Q91.72188 205.35867 91.6125 205.07742Q91.51875 204.79617 91.25313 204.6243Q90.9875 204.45242 90.6125 204.45242Q89.95625 204.45242 89.51875 204.88992Q89.09688 205.32742 89.09688 206.29617L89.09688 209.90555L88.03438 209.90555L88.03438 205.85867Q88.03438 205.15555 87.76875 204.8118Q87.51875 204.45242 86.94063 204.45242Q86.4875 204.45242 86.1125 204.6868Q85.7375 204.92117 85.56563 205.3743Q85.39375 205.82742 85.39375 206.67117L85.39375 209.90555L84.34688 209.90555Z" fill-rule="nonzero"/><path fill="#000000" d="M72.425 266.35L72.425 257.75626L73.56563 257.75626L73.56563 265.33438L77.8 265.33438L77.8 266.35L72.425 266.35ZM78.95625 263.24063Q78.95625 261.50626 79.90938 260.67813Q80.70625 259.99063 81.8625 259.99063Q83.14375 259.99063 83.95625 260.83438Q84.78438 261.6625 84.78438 263.14688Q84.78438 264.35 84.425 265.0375Q84.06563 265.725 83.3625 266.11563Q82.675 266.49063 81.8625 266.49063Q80.56563 266.49063 79.75313 265.6625Q78.95625 264.81876 78.95625 263.24063ZM80.03438 263.24063Q80.03438 264.42813 80.55 265.02188Q81.08125 265.61563 81.8625 265.61563Q82.65938 265.61563 83.175 265.02188Q83.69063 264.42813 83.69063 263.20938Q83.69063 262.05313 83.15938 261.45938Q82.64375 260.86563 81.8625 260.86563Q81.08125 260.86563 80.55 261.45938Q80.03438 262.0375 80.03438 263.24063ZM87.4875 266.35L85.58125 260.13126L86.675 260.13126L87.65938 263.725L88.03438 265.05313Q88.06563 264.95938 88.3625 263.77188L89.34688 260.13126L90.425 260.13126L91.3625 263.74063L91.675 264.92813L92.03438 263.725L93.09688 260.13126L94.12813 260.13126L92.175 266.35L91.08125 266.35L90.09688 262.61563L89.84688 261.56876L88.59688 266.35L87.4875 266.35Z" fill-rule="nonzero"/><path fill="#000000" d="M97.55 313.21564Q97.55 311.6844 97.8625 310.7625Q98.175 309.825 98.78438 309.325Q99.40938 308.825 100.34688 308.825Q101.03438 308.825 101.55 309.10626Q102.08125 309.3875 102.425 309.91876Q102.76875 310.4344 102.95625 311.1844Q103.14375 311.9344 103.14375 313.21564Q103.14375 314.73126 102.83125 315.65314Q102.53438 316.575 101.90938 317.09064Q101.3 317.59064 100.34688 317.59064Q99.1125 317.59064 98.39375 316.7Q97.55 315.6375 97.55 313.21564ZM98.62813 313.21564Q98.62813 315.325 99.12813 316.02814Q99.62813 316.73126 100.34688 316.73126Q101.08125 316.73126 101.56563 316.02814Q102.06563 315.325 102.06563 313.21564Q102.06563 311.09064 101.56563 310.40314Q101.08125 309.7 100.33125 309.7Q99.6125 309.7 99.175 310.3094Q98.62813 311.09064 98.62813 313.21564Z" fill-rule="nonzero"/><path fill="#000000" d="M218.24374 317.45L217.19687 317.45L217.19687 310.73126Q216.80624 311.09064 216.18124 311.46564Q215.57187 311.825 215.0875 311.9969L215.0875 310.98126Q215.9625 310.5594 216.61874 309.98126Q217.29062 309.3875 217.57187 308.825L218.24374 308.825L218.24374 317.45ZM221.275 313.21564Q221.275 311.6844 221.5875 310.7625Q221.9 309.825 222.50937 309.325Q223.13437 308.825 224.07187 308.825Q224.75937 308.825 225.275 309.10626Q225.80624 309.3875 226.15 309.91876Q226.49374 310.4344 226.68124 311.1844Q226.86874 311.9344 226.86874 313.21564Q226.86874 314.73126 226.55624 315.65314Q226.25937 316.575 225.63437 317.09064Q225.025 317.59064 224.07187 317.59064Q222.8375 317.59064 222.11874 316.7Q221.275 315.6375 221.275 313.21564ZM222.35312 313.21564Q222.35312 315.325 222.85312 316.02814Q223.35312 316.73126 224.07187 316.73126Q224.80624 316.73126 225.29062 316.02814Q225.79062 315.325 225.79062 313.21564Q225.79062 311.09064 225.29062 310.40314Q224.80624 309.7 224.05624 309.7Q223.3375 309.7 222.9 310.3094Q222.35312 311.09064 222.35312 313.21564Z" fill-rule="nonzero"/><path fill="#000000" d="M340.04688 316.4344L340.04688 317.45L334.35938 317.45Q334.35938 317.075 334.48438 316.71564Q334.70312 316.1375 335.17188 315.575Q335.65625 315.0125 336.5625 314.27814Q337.96875 313.1219 338.45312 312.45Q338.95312 311.77814 338.95312 311.1844Q338.95312 310.5594 338.5 310.1375Q338.04688 309.7 337.32812 309.7Q336.5625 309.7 336.10938 310.15314Q335.65625 310.60626 335.64062 311.41876L334.5625 311.3094Q334.67188 310.09064 335.39062 309.46564Q336.125 308.825 337.35938 308.825Q338.59375 308.825 339.3125 309.5125Q340.03125 310.2 340.03125 311.21564Q340.03125 311.73126 339.8125 312.23126Q339.60938 312.71564 339.10938 313.27814Q338.625 313.825 337.5 314.77814Q336.54688 315.575 336.26562 315.8719Q336.0 316.15314 335.82812 316.4344L340.04688 316.4344ZM341.5 313.21564Q341.5 311.6844 341.8125 310.7625Q342.125 309.825 342.73438 309.325Q343.35938 308.825 344.29688 308.825Q344.98438 308.825 345.5 309.10626Q346.03125 309.3875 346.375 309.91876Q346.71875 310.4344 346.90625 311.1844Q347.09375 311.9344 347.09375 313.21564Q347.09375 314.73126 346.78125 315.65314Q346.48438 316.575 345.85938 317.09064Q345.25 317.59064 344.29688 317.59064Q343.0625 317.59064 342.34375 316.7Q341.5 315.6375 341.5 313.21564ZM342.57812 313.21564Q342.57812 315.325 343.07812 316.02814Q343.57812 316.73126 344.29688 316.73126Q345.03125 316.73126 345.51562 316.02814Q346.01562 315.325 346.01562 313.21564Q346.01562 311.09064 345.51562 310.40314Q345.03125 309.7 344.28125 309.7Q343.5625 309.7 343.125 310.3094Q342.57812 311.09064 342.57812 313.21564Z" fill-rule="nonzero"/><path fill="#000000" d="M454.725 315.1844L455.7875 315.04376Q455.95938 315.9344 456.39688 316.34064Q456.83438 316.73126 457.45938 316.73126Q458.20938 316.73126 458.725 316.21564Q459.24063 315.7 459.24063 314.9344Q459.24063 314.21564 458.75626 313.7469Q458.2875 313.2625 457.55313 313.2625Q457.25626 313.2625 456.80313 313.3875L456.92813 312.45Q457.0375 312.46564 457.1 312.46564Q457.77188 312.46564 458.30313 312.1219Q458.85 311.7625 458.85 311.02814Q458.85 310.45 458.45938 310.075Q458.06876 309.6844 457.44376 309.6844Q456.83438 309.6844 456.4125 310.075Q456.00626 310.46564 455.89688 311.23126L454.83438 311.04376Q455.02188 309.9969 455.70938 309.41876Q456.39688 308.825 457.4125 308.825Q458.11563 308.825 458.70938 309.1375Q459.30313 309.4344 459.61563 309.95Q459.92813 310.46564 459.92813 311.0594Q459.92813 311.60626 459.63126 312.075Q459.33438 312.52814 458.75626 312.79376Q459.50626 312.96564 459.92813 313.52814Q460.35 314.075 460.35 314.91876Q460.35 316.04376 459.52188 316.825Q458.70938 317.60626 457.45938 317.60626Q456.33438 317.60626 455.58438 316.9344Q454.83438 316.2469 454.725 315.1844ZM461.725 313.21564Q461.725 311.6844 462.0375 310.7625Q462.35 309.825 462.95938 309.325Q463.58438 308.825 464.52188 308.825Q465.20938 308.825 465.725 309.10626Q466.25626 309.3875 466.6 309.91876Q466.94376 310.4344 467.13126 311.1844Q467.31876 311.9344 467.31876 313.21564Q467.31876 314.73126 467.00626 315.65314Q466.70938 316.575 466.08438 317.09064Q465.475 317.59064 464.52188 317.59064Q463.2875 317.59064 462.56876 316.7Q461.725 315.6375 461.725 313.21564ZM462.80313 313.21564Q462.80313 315.325 463.30313 316.02814Q463.80313 316.73126 464.52188 316.73126Q465.25626 316.73126 465.74063 316.02814Q466.24063 315.325 466.24063 313.21564Q466.24063 311.09064 465.74063 310.40314Q465.25626 309.7 464.50626 309.7Q463.7875 309.7 463.35 310.3094Q462.80313 311.09064 462.80313 313.21564Z" fill-rule="nonzero"/><path fill="#000000" d="M578.325 317.45L578.325 315.3875L574.60626 315.3875L574.60626 314.41876L578.52814 308.85626L579.3875 308.85626L579.3875 314.41876L580.54376 314.41876L580.54376 315.3875L579.3875 315.3875L579.3875 317.45L578.325 317.45ZM578.325 314.41876L578.325 310.5594L575.6375 314.41876L578.325 314.41876ZM581.95 313.21564Q581.95 311.6844 582.2625 310.7625Q582.575 309.825 583.1844 309.325Q583.8094 308.825 584.7469 308.825Q585.4344 308.825 585.95 309.10626Q586.48126 309.3875 586.825 309.91876Q587.16876 310.4344 587.35626 311.1844Q587.54376 311.9344 587.54376 313.21564Q587.54376 314.73126 587.23126 315.65314Q586.9344 316.575 586.3094 317.09064Q585.7 317.59064 584.7469 317.59064Q583.5125 317.59064 582.79376 316.7Q581.95 315.6375 581.95 313.21564ZM583.02814 313.21564Q583.02814 315.325 583.52814 316.02814Q584.02814 316.73126 584.7469 316.73126Q585.48126 316.73126 585.96564 316.02814Q586.46564 315.325 586.46564 313.21564Q586.46564 311.09064 585.96564 310.40314Q585.48126 309.7 584.73126 309.7Q584.0125 309.7 583.575 310.3094Q583.02814 311.09064 583.02814 313.21564Z" fill-rule="nonzero"/><path fill="#757575" d="M18.51875 37.55L24.01875 23.2375L26.065624 23.2375L31.925 37.55L29.76875 37.55L28.096874 33.20625L22.1125 33.20625L20.534374 37.55L18.51875 37.55ZM22.659374 31.675L27.503124 31.675L26.01875 27.70625Q25.33125 25.89375 25.003124 24.7375Q24.721874 26.1125 24.221874 27.471874L22.659374 31.675ZM35.753124 37.55L31.8 27.175L33.659374 27.175L35.89375 33.39375Q36.253124 34.39375 36.55 35.471874Q36.784374 34.659374 37.20625 33.503124L39.503124 27.175L41.315624 27.175L37.39375 37.55L35.753124 37.55ZM48.971874 34.20625L50.784374 34.440624Q50.3625 36.01875 49.190624 36.909374Q48.034374 37.784374 46.221874 37.784374Q43.95625 37.784374 42.6125 36.39375Q41.284374 34.9875 41.284374 32.45625Q41.284374 29.83125 42.628124 28.39375Q43.971874 26.940624 46.128124 26.940624Q48.20625 26.940624 49.51875 28.3625Q50.846874 29.76875 50.846874 32.346874Q50.846874 32.503124 50.83125 32.815624L43.096874 32.815624Q43.190624 34.51875 44.065624 35.425Q44.940624 36.33125 46.2375 36.33125Q47.20625 36.33125 47.878124 35.83125Q48.565624 35.315624 48.971874 34.20625ZM43.190624 31.3625L48.9875 31.3625Q48.878124 30.065624 48.33125 29.409374Q47.4875 28.39375 46.14375 28.39375Q44.940624 28.39375 44.1125 29.20625Q43.284374 30.003124 43.190624 31.3625ZM52.846874 37.55L52.846874 27.175L54.425 27.175L54.425 28.753124Q55.034374 27.64375 55.55 27.3Q56.065624 26.940624 56.675 26.940624Q57.565624 26.940624 58.4875 27.503124L57.878124 29.14375Q57.2375 28.753124 56.596874 28.753124Q56.01875 28.753124 55.55 29.1125Q55.096874 29.45625 54.89375 30.065624Q54.6125 31.003124 54.6125 32.1125L54.6125 37.55L52.846874 37.55ZM66.64375 36.26875Q65.65938 37.096874 64.75313 37.440624Q63.846874 37.784374 62.815624 37.784374Q61.1125 37.784374 60.190624 36.95625Q59.26875 36.1125 59.26875 34.815624Q59.26875 34.05 59.6125 33.425Q59.971874 32.8 60.534374 32.425Q61.096874 32.034374 61.8 31.83125Q62.315624 31.70625 63.3625 31.565624Q65.4875 31.315624 66.4875 30.971874Q66.50313 30.6125 66.50313 30.503124Q66.50313 29.440624 66.00313 28.9875Q65.33125 28.39375 64.00313 28.39375Q62.753124 28.39375 62.159374 28.83125Q61.58125 29.26875 61.3 30.378124L59.58125 30.14375Q59.815624 29.034374 60.346874 28.3625Q60.878124 27.675 61.89375 27.315624Q62.909374 26.940624 64.25313 26.940624Q65.58125 26.940624 66.40938 27.253124Q67.2375 27.565624 67.62813 28.05Q68.01875 28.51875 68.175 29.2375Q68.26875 29.690624 68.26875 30.8625L68.26875 33.20625Q68.26875 35.659374 68.37813 36.315624Q68.4875 36.95625 68.83125 37.55L66.9875 37.55Q66.72188 37.003124 66.64375 36.26875ZM66.4875 32.346874Q65.53438 32.7375 63.6125 33.003124Q62.534374 33.159374 62.08125 33.3625Q61.64375 33.55 61.39375 33.925Q61.14375 34.3 61.14375 34.76875Q61.14375 35.471874 61.675 35.940624Q62.20625 36.409374 63.2375 36.409374Q64.25313 36.409374 65.03438 35.971874Q65.83125 35.51875 66.20625 34.753124Q66.4875 34.14375 66.4875 32.9875L66.4875 32.346874ZM70.55 38.409374L72.25313 38.659374Q72.3625 39.45625 72.84688 39.815624Q73.50313 40.3 74.64375 40.3Q75.8625 40.3 76.51875 39.815624Q77.19063 39.33125 77.425 38.45625Q77.56563 37.909374 77.55 36.190624Q76.39375 37.55 74.675 37.55Q72.53438 37.55 71.3625 36.003124Q70.19063 34.45625 70.19063 32.3Q70.19063 30.815624 70.72188 29.565624Q71.26875 28.315624 72.28438 27.628124Q73.31563 26.940624 74.69063 26.940624Q76.51875 26.940624 77.72188 28.425L77.72188 27.175L79.33125 27.175L79.33125 36.14375Q79.33125 38.565624 78.83125 39.565624Q78.34688 40.58125 77.26875 41.159374Q76.20625 41.753124 74.64375 41.753124Q72.8 41.753124 71.64375 40.925Q70.50313 40.096874 70.55 38.409374ZM72.00313 32.175Q72.00313 34.221874 72.81563 35.159374Q73.62813 36.096874 74.84688 36.096874Q76.05 36.096874 76.8625 35.159374Q77.69063 34.221874 77.69063 32.2375Q77.69063 30.33125 76.84688 29.3625Q76.00313 28.39375 74.81563 28.39375Q73.64375 28.39375 72.81563 29.346874Q72.00313 30.3 72.00313 32.175ZM88.97188 34.20625L90.78438 34.440624Q90.3625 36.01875 89.19063 36.909374Q88.03438 37.784374 86.22188 37.784374Q83.95625 37.784374 82.6125 36.39375Q81.28438 34.9875 81.28438 32.45625Q81.28438 29.83125 82.62813 28.39375Q83.97188 26.940624 86.12813 26.940624Q88.20625 26.940624 89.51875 28.3625Q90.84688 29.76875 90.84688 32.346874Q90.84688 32.503124 90.83125 32.815624L83.09688 32.815624Q83.19063 34.51875 84.06563 35.425Q84.94063 36.33125 86.2375 36.33125Q87.20625 36.33125 87.87813 35.83125Q88.56563 35.315624 88.97188 34.20625ZM83.19063 31.3625L88.9875 31.3625Q88.87813 30.065624 88.33125 29.409374Q87.4875 28.39375 86.14375 28.39375Q84.94063 28.39375 84.1125 29.20625Q83.28438 30.003124 83.19063 31.3625ZM98.22188 32.3625Q98.22188 29.4875 99.81563 28.096874Q101.15938 26.940624 103.08125 26.940624Q105.22188 26.940624 106.56563 28.346874Q107.925 29.753124 107.925 32.221874Q107.925 34.221874 107.33125 35.378124Q106.7375 36.51875 105.58125 37.159374Q104.44063 37.784374 103.08125 37.784374Q100.89375 37.784374 99.55 36.39375Q98.22188 34.9875 98.22188 32.3625ZM100.01875 32.3625Q100.01875 34.3625 100.87813 35.346874Q101.75313 36.33125 103.08125 36.33125Q104.39375 36.33125 105.25313 35.346874Q106.12813 34.346874 106.12813 32.3Q106.12813 30.378124 105.25313 29.39375Q104.37813 28.39375 103.08125 28.39375Q101.75313 28.39375 100.87813 29.39375Q100.01875 30.378124 100.01875 32.3625ZM110.28438 37.55L110.28438 28.55L108.7375 28.55L108.7375 27.175L110.28438 27.175L110.28438 26.08125Q110.28438 25.034374 110.47188 24.51875Q110.72188 23.83125 111.3625 23.409374Q112.00313 22.9875 113.15938 22.9875Q113.90938 22.9875 114.8 23.159374L114.53438 24.690624Q113.9875 24.596874 113.50313 24.596874Q112.70625 24.596874 112.3625 24.940624Q112.03438 25.284374 112.03438 26.221874L112.03438 27.175L114.06563 27.175L114.06563 28.55L112.03438 28.55L112.03438 37.55L110.28438 37.55ZM125.7375 37.55L125.7375 24.925L121.01875 24.925L121.01875 23.2375L132.3625 23.2375L132.3625 24.925L127.62813 24.925L127.62813 37.55L125.7375 37.55ZM133.87813 25.253124L133.87813 23.2375L135.64375 23.2375L135.64375 25.253124L133.87813 25.253124ZM133.87813 37.55L133.87813 27.175L135.64375 27.175L135.64375 37.55L133.87813 37.55ZM137.8625 37.55L137.8625 27.175L139.44063 27.175L139.44063 28.628124Q139.925 27.878124 140.7375 27.409374Q141.55 26.940624 142.58125 26.940624Q143.7375 26.940624 144.47188 27.425Q145.20625 27.89375 145.51875 28.753124Q146.75313 26.940624 148.72188 26.940624Q150.26875 26.940624 151.09688 27.8Q151.925 28.659374 151.925 30.425L151.925 37.55L150.175 37.55L150.175 31.01875Q150.175 29.95625 150.00313 29.503124Q149.83125 29.034374 149.37813 28.753124Q148.94063 28.471874 148.33125 28.471874Q147.2375 28.471874 146.50313 29.20625Q145.78438 29.925 145.78438 31.51875L145.78438 37.55L144.03438 37.55L144.03438 30.815624Q144.03438 29.64375 143.59688 29.065624Q143.175 28.471874 142.19063 28.471874Q141.45625 28.471874 140.81563 28.8625Q140.19063 29.253124 139.90938 30.003124Q139.62813 30.753124 139.62813 32.175L139.62813 37.55L137.8625 37.55ZM160.97188 34.20625L162.78438 34.440624Q162.3625 36.01875 161.19063 36.909374Q160.03438 37.784374 158.22188 37.784374Q155.95625 37.784374 154.6125 36.39375Q153.28438 34.9875 153.28438 32.45625Q153.28438 29.83125 154.62813 28.39375Q155.97188 26.940624 158.12813 26.940624Q160.20625 26.940624 161.51875 28.3625Q162.84688 29.76875 162.84688 32.346874Q162.84688 32.503124 162.83125 32.815624L155.09688 32.815624Q155.19063 34.51875 156.06563 35.425Q156.94063 36.33125 158.2375 36.33125Q159.20625 36.33125 159.87813 35.83125Q160.56563 35.315624 160.97188 34.20625ZM155.19063 31.3625L160.9875 31.3625Q160.87813 30.065624 160.33125 29.409374Q159.4875 28.39375 158.14375 28.39375Q156.94063 28.39375 156.1125 29.20625Q155.28438 30.003124 155.19063 31.3625ZM174.22188 41.753124Q172.76875 39.925 171.76875 37.471874Q170.76875 35.003124 170.76875 32.3625Q170.76875 30.034374 171.51875 27.909374Q172.39375 25.440624 174.22188 22.9875L175.4875 22.9875Q174.3 25.01875 173.925 25.89375Q173.33125 27.2375 172.9875 28.70625Q172.56563 30.534374 172.56563 32.378124Q172.56563 37.065624 175.4875 41.753124L174.22188 41.753124ZM177.8625 37.55L177.8625 27.175L179.44063 27.175L179.44063 28.628124Q179.925 27.878124 180.7375 27.409374Q181.55 26.940624 182.58125 26.940624Q183.7375 26.940624 184.47188 27.425Q185.20625 27.89375 185.51875 28.753124Q186.75313 26.940624 188.72188 26.940624Q190.26875 26.940624 191.09688 27.8Q191.925 28.659374 191.925 30.425L191.925 37.55L190.175 37.55L190.175 31.01875Q190.175 29.95625 190.00313 29.503124Q189.83125 29.034374 189.37813 28.753124Q188.94063 28.471874 188.33125 28.471874Q187.2375 28.471874 186.50313 29.20625Q185.78438 29.925 185.78438 31.51875L185.78438 37.55L184.03438 37.55L184.03438 30.815624Q184.03438 29.64375 183.59688 29.065624Q183.175 28.471874 182.19063 28.471874Q181.45625 28.471874 180.81563 28.8625Q180.19063 29.253124 179.90938 30.003124Q179.62813 30.753124 179.62813 32.175L179.62813 37.55L177.8625 37.55ZM193.87813 25.253124L193.87813 23.2375L195.64375 23.2375L195.64375 25.253124L193.87813 25.253124ZM193.87813 37.55L193.87813 27.175L195.64375 27.175L195.64375 37.55L193.87813 37.55ZM197.8625 37.55L197.8625 27.175L199.45625 27.175L199.45625 28.659374Q200.59688 26.940624 202.75313 26.940624Q203.69063 26.940624 204.47188 27.284374Q205.26875 27.6125 205.65938 28.159374Q206.05 28.70625 206.20625 29.45625Q206.3 29.95625 206.3 31.175L206.3 37.55L204.53438 37.55L204.53438 31.2375Q204.53438 30.159374 204.33125 29.628124Q204.12813 29.096874 203.59688 28.784374Q203.08125 28.471874 202.37813 28.471874Q201.25313 28.471874 200.44063 29.190624Q199.62813 29.89375 199.62813 31.878124L199.62813 37.55L197.8625 37.55ZM209.01875 41.753124L207.76875 41.753124Q210.675 37.065624 210.675 32.378124Q210.675 30.534374 210.26875 28.7375Q209.925 27.26875 209.33125 25.925Q208.95625 25.034374 207.76875 22.9875L209.01875 22.9875Q210.8625 25.440624 211.7375 27.909374Q212.4875 30.034374 212.4875 32.3625Q212.4875 35.003124 211.47188 37.471874Q210.47188 39.925 209.01875 41.753124ZM223.75313 37.55L219.8 27.175L221.65938 27.175L223.89375 33.39375Q224.25313 34.39375 224.55 35.471874Q224.78438 34.659374 225.20625 33.503124L227.50313 27.175L229.31563 27.175L225.39375 37.55L223.75313 37.55ZM229.15938 34.45625L230.90938 34.175Q231.05 35.221874 231.72188 35.784374Q232.39375 36.33125 233.59688 36.33125Q234.8 36.33125 235.37813 35.846874Q235.97188 35.346874 235.97188 34.690624Q235.97188 34.096874 235.45625 33.753124Q235.09688 33.51875 233.65938 33.159374Q231.72188 32.659374 230.97188 32.315624Q230.2375 31.95625 229.84688 31.33125Q229.45625 30.690624 229.45625 29.925Q229.45625 29.2375 229.76875 28.64375Q230.09688 28.05 230.64375 27.659374Q231.05 27.3625 231.75313 27.159374Q232.47188 26.940624 233.28438 26.940624Q234.50313 26.940624 235.425 27.3Q236.34688 27.64375 236.78438 28.253124Q237.22188 28.846874 237.39375 29.846874L235.675 30.08125Q235.55 29.284374 234.9875 28.846874Q234.425 28.39375 233.40938 28.39375Q232.19063 28.39375 231.675 28.8Q231.15938 29.190624 231.15938 29.721874Q231.15938 30.065624 231.37813 30.346874Q231.58125 30.628124 232.05 30.815624Q232.31563 30.909374 233.59688 31.253124Q235.47188 31.753124 236.20625 32.08125Q236.94063 32.39375 237.3625 33.003124Q237.78438 33.596874 237.78438 34.503124Q237.78438 35.378124 237.26875 36.159374Q236.75313 36.940624 235.78438 37.3625Q234.81563 37.784374 233.59688 37.784374Q231.58125 37.784374 230.51875 36.940624Q229.45625 36.096874 229.15938 34.45625ZM240.3625 37.55L240.3625 35.55L242.3625 35.55L242.3625 37.55L240.3625 37.55ZM255.7375 37.55L255.7375 24.925L251.01875 24.925L251.01875 23.2375L262.3625 23.2375L262.3625 24.925L257.6281 24.925L257.6281 37.55L255.7375 37.55ZM263.84686 37.55L263.84686 27.175L265.425 27.175L265.425 28.753124Q266.03436 27.64375 266.55 27.3Q267.0656 26.940624 267.675 26.940624Q268.5656 26.940624 269.4875 27.503124L268.8781 29.14375Q268.2375 28.753124 267.59686 28.753124Q267.01874 28.753124 266.55 29.1125Q266.09686 29.45625 265.89374 30.065624Q265.6125 31.003124 265.6125 32.1125L265.6125 37.55L263.84686 37.55ZM277.64374 36.26875Q276.65936 37.096874 275.7531 37.440624Q274.84686 37.784374 273.8156 37.784374Q272.1125 37.784374 271.1906 36.95625Q270.26874 36.1125 270.26874 34.815624Q270.26874 34.05 270.6125 33.425Q270.97186 32.8 271.53436 32.425Q272.09686 32.034374 272.8 31.83125Q273.3156 31.70625 274.3625 31.565624Q276.4875 31.315624 277.4875 30.971874Q277.5031 30.6125 277.5031 30.503124Q277.5031 29.440624 277.0031 28.9875Q276.33124 28.39375 275.0031 28.39375Q273.7531 28.39375 273.15936 28.83125Q272.58124 29.26875 272.3 30.378124L270.58124 30.14375Q270.8156 29.034374 271.34686 28.3625Q271.8781 27.675 272.89374 27.315624Q273.90936 26.940624 275.2531 26.940624Q276.58124 26.940624 277.40936 27.253124Q278.2375 27.565624 278.6281 28.05Q279.01874 28.51875 279.175 29.2375Q279.26874 29.690624 279.26874 30.8625L279.26874 33.20625Q279.26874 35.659374 279.3781 36.315624Q279.4875 36.95625 279.83124 37.55L277.9875 37.55Q277.72186 37.003124 277.64374 36.26875ZM277.4875 32.346874Q276.53436 32.7375 274.6125 33.003124Q273.53436 33.159374 273.08124 33.3625Q272.64374 33.55 272.39374 33.925Q272.14374 34.3 272.14374 34.76875Q272.14374 35.471874 272.675 35.940624Q273.20624 36.409374 274.2375 36.409374Q275.2531 36.409374 276.03436 35.971874Q276.83124 35.51875 277.20624 34.753124Q277.4875 34.14375 277.4875 32.9875L277.4875 32.346874ZM282.28436 37.55L282.28436 28.55L280.7375 28.55L280.7375 27.175L282.28436 27.175L282.28436 26.08125Q282.28436 25.034374 282.47186 24.51875Q282.72186 23.83125 283.3625 23.409374Q284.0031 22.9875 285.15936 22.9875Q285.90936 22.9875 286.8 23.159374L286.53436 24.690624Q285.9875 24.596874 285.5031 24.596874Q284.70624 24.596874 284.3625 24.940624Q284.03436 25.284374 284.03436 26.221874L284.03436 27.175L286.0656 27.175L286.0656 28.55L284.03436 28.55L284.03436 37.55L282.28436 37.55ZM288.28436 37.55L288.28436 28.55L286.7375 28.55L286.7375 27.175L288.28436 27.175L288.28436 26.08125Q288.28436 25.034374 288.47186 24.51875Q288.72186 23.83125 289.3625 23.409374Q290.0031 22.9875 291.15936 22.9875Q291.90936 22.9875 292.8 23.159374L292.53436 24.690624Q291.9875 24.596874 291.5031 24.596874Q290.70624 24.596874 290.3625 24.940624Q290.03436 25.284374 290.03436 26.221874L290.03436 27.175L292.0656 27.175L292.0656 28.55L290.03436 28.55L290.03436 37.55L288.28436 37.55ZM293.8781 25.253124L293.8781 23.2375L295.64374 23.2375L295.64374 25.253124L293.8781 25.253124ZM293.8781 37.55L293.8781 27.175L295.64374 27.175L295.64374 37.55L293.8781 37.55ZM304.64374 33.753124L306.3625 33.971874Q306.08124 35.76875 304.90936 36.784374Q303.7531 37.784374 302.05 37.784374Q299.925 37.784374 298.6281 36.39375Q297.33124 35.003124 297.33124 32.409374Q297.33124 30.721874 297.8781 29.471874Q298.4406 28.20625 299.58124 27.58125Q300.72186 26.940624 302.0656 26.940624Q303.7531 26.940624 304.8156 27.8Q305.89374 28.659374 306.20624 30.221874L304.4875 30.4875Q304.2531 29.440624 303.6281 28.925Q303.0031 28.39375 302.1281 28.39375Q300.8 28.39375 299.97186 29.346874Q299.14374 30.3 299.14374 32.346874Q299.14374 34.440624 299.9406 35.39375Q300.7375 36.33125 302.03436 36.33125Q303.0656 36.33125 303.7531 35.70625Q304.45624 35.065624 304.64374 33.753124ZM314.09686 37.55L314.09686 23.2375L319.01874 23.2375Q320.6906 23.2375 321.58124 23.440624Q322.8 23.721874 323.675 24.45625Q324.8 25.425 325.3625 26.909374Q325.925 28.39375 325.925 30.315624Q325.925 31.940624 325.55 33.20625Q325.175 34.45625 324.5656 35.284374Q323.97186 36.1125 323.26874 36.596874Q322.5656 37.065624 321.5656 37.315624Q320.5656 37.55 319.2531 37.55L314.09686 37.55ZM315.9875 35.8625L319.05 35.8625Q320.45624 35.8625 321.2531 35.596874Q322.0656 35.33125 322.55 34.846874Q323.22186 34.175 323.59686 33.05Q323.97186 31.909374 323.97186 30.284374Q323.97186 28.034374 323.2375 26.83125Q322.5031 25.628124 321.4406 25.221874Q320.6906 24.925 319.0031 24.925L315.9875 24.925L315.9875 35.8625ZM334.97186 34.20625L336.78436 34.440624Q336.3625 36.01875 335.1906 36.909374Q334.03436 37.784374 332.22186 37.784374Q329.95624 37.784374 328.6125 36.39375Q327.28436 34.9875 327.28436 32.45625Q327.28436 29.83125 328.6281 28.39375Q329.97186 26.940624 332.1281 26.940624Q334.20624 26.940624 335.51874 28.3625Q336.84686 29.76875 336.84686 32.346874Q336.84686 32.503124 336.83124 32.815624L329.09686 32.815624Q329.1906 34.51875 330.0656 35.425Q330.9406 36.33125 332.2375 36.33125Q333.20624 36.33125 333.8781 35.83125Q334.5656 35.315624 334.97186 34.20625ZM329.1906 31.3625L334.9875 31.3625Q334.8781 30.065624 334.33124 29.409374Q333.4875 28.39375 332.14374 28.39375Q330.9406 28.39375 330.1125 29.20625Q329.28436 30.003124 329.1906 31.3625ZM338.8625 37.55L338.8625 27.175L340.45624 27.175L340.45624 28.659374Q341.59686 26.940624 343.7531 26.940624Q344.6906 26.940624 345.47186 27.284374Q346.26874 27.6125 346.65936 28.159374Q347.05 28.70625 347.20624 29.45625Q347.3 29.95625 347.3 31.175L347.3 37.55L345.53436 37.55L345.53436 31.2375Q345.53436 30.159374 345.33124 29.628124Q345.1281 29.096874 344.59686 28.784374Q344.08124 28.471874 343.3781 28.471874Q342.2531 28.471874 341.4406 29.190624Q340.6281 29.89375 340.6281 31.878124L340.6281 37.55L338.8625 37.55ZM348.15936 34.45625L349.90936 34.175Q350.05 35.221874 350.72186 35.784374Q351.39374 36.33125 352.59686 36.33125Q353.8 36.33125 354.3781 35.846874Q354.97186 35.346874 354.97186 34.690624Q354.97186 34.096874 354.45624 33.753124Q354.09686 33.51875 352.65936 33.159374Q350.72186 32.659374 349.97186 32.315624Q349.2375 31.95625 348.84686 31.33125Q348.45624 30.690624 348.45624 29.925Q348.45624 29.2375 348.76874 28.64375Q349.09686 28.05 349.64374 27.659374Q350.05 27.3625 350.7531 27.159374Q351.47186 26.940624 352.28436 26.940624Q353.5031 26.940624 354.425 27.3Q355.34686 27.64375 355.78436 28.253124Q356.22186 28.846874 356.39374 29.846874L354.675 30.08125Q354.55 29.284374 353.9875 28.846874Q353.425 28.39375 352.40936 28.39375Q351.1906 28.39375 350.675 28.8Q350.15936 29.190624 350.15936 29.721874Q350.15936 30.065624 350.3781 30.346874Q350.58124 30.628124 351.05 30.815624Q351.3156 30.909374 352.59686 31.253124Q354.47186 31.753124 355.20624 32.08125Q355.9406 32.39375 356.3625 33.003124Q356.78436 33.596874 356.78436 34.503124Q356.78436 35.378124 356.26874 36.159374Q355.7531 36.940624 354.78436 37.3625Q353.8156 37.784374 352.59686 37.784374Q350.58124 37.784374 349.51874 36.940624Q348.45624 36.096874 348.15936 34.45625ZM358.8781 25.253124L358.8781 23.2375L360.64374 23.2375L360.64374 25.253124L358.8781 25.253124ZM358.8781 37.55L358.8781 27.175L360.64374 27.175L360.64374 37.55L358.8781 37.55ZM366.70624 35.971874L366.95624 37.534374Q366.22186 37.690624 365.6281 37.690624Q364.675 37.690624 364.14374 37.39375Q363.6281 37.08125 363.40936 36.596874Q363.1906 36.096874 363.1906 34.51875L363.1906 28.55L361.90936 28.55L361.90936 27.175L363.1906 27.175L363.1906 24.6125L364.9406 23.55L364.9406 27.175L366.70624 27.175L366.70624 28.55L364.9406 28.55L364.9406 34.6125Q364.9406 35.3625 365.03436 35.58125Q365.1281 35.784374 365.33124 35.925Q365.55 36.05 365.9406 36.05Q366.22186 36.05 366.70624 35.971874ZM368.78436 41.55L368.59686 39.89375Q369.175 40.05 369.59686 40.05Q370.1906 40.05 370.53436 39.846874Q370.89374 39.659374 371.1125 39.315624Q371.28436 39.05 371.65936 38.003124Q371.70624 37.846874 371.8156 37.565624L367.8781 27.175L369.76874 27.175L371.925 33.190624Q372.34686 34.33125 372.675 35.58125Q372.9875 34.378124 373.39374 33.221874L375.6125 27.175L377.3781 27.175L373.425 37.721874Q372.8 39.440624 372.4406 40.08125Q371.97186 40.95625 371.3625 41.346874Q370.76874 41.753124 369.925 41.753124Q369.40936 41.753124 368.78436 41.55Z" fill-rule="nonzero"/></svg>