<svg version="1.1" viewBox="0.0 0.0 600.0 371.0" fill="none" stroke="none" stroke-linecap="square" stroke-miterlimit="10" width="600" height="371" xmlns:xlink="http://www.w3.org/1999/xlink" xmlns="http://www.w3.org/2000/svg"><path fill="#ffffff" d="M0 0L600.0 0L600.0 371.0L0 371.0L0 0Z" fill-rule="nonzero"/><path stroke="#333333" stroke-width="1.0" stroke-linecap="butt" d="M124.5 54.5L124.5 300.5" fill-rule="nonzero"/><path stroke="#cccccc" stroke-width="1.0" stroke-linecap="butt" d="M276.5 54.5L276.5 300.5" fill-rule="nonzero"/><path stroke="#cccccc" stroke-width="1.0" stroke-linecap="butt" d="M429.5 54.5L429.5 300.5" fill-rule="nonzero"/><path stroke="#cccccc" stroke-width="1.0" stroke-linecap="butt" d="M581.5 54.5L581.5 300.5" fill-rule="nonzero"/><clipPath id="id_0"><path d="M124.55 54.916668L581.45 54.916668L581.45 300.45L124.55 300.45L124.55 54.916668Z" clip-rule="nonzero"/></clipPath><path stroke="#000000" stroke-width="2.0" stroke-linecap="butt" stroke-opacity="0.0" clip-path="url(#id_0)" d="M125.0 94.0L125.0 69.0L565.0 69.0C566.10455 69.0 567.0 69.89543 567.0 71.0L567.0 92.0C567.0 93.10457 566.10455 94.0 565.0 94.0Z" fill-rule="nonzero"/><path fill="#4285f4" clip-path="url(#id_0)" d="M125.0 94.0L125.0 69.0L565.0 69.0C566.10455 69.0 567.0 69.89543 567.0 71.0L567.0 92.0C567.0 93.10457 566.10455 94.0 565.0 94.0Z" fill-rule="nonzero"/><path stroke="#000000" stroke-width="2.0" stroke-linecap="butt" stroke-opacity="0.0" clip-path="url(#id_0)" d="M125.0 133.0L125.0 108.0L565.0 108.0C566.10455 108.0 567.0 108.89543 567.0 110.0L567.0 131.0C567.0 132.10457 566.10455 133.0 565.0 133.0Z" fill-rule="nonzero"/><path fill="#4285f4" clip-path="url(#id_0)" d="M125.0 133.0L125.0 108.0L565.0 108.0C566.10455 108.0 567.0 108.89543 567.0 110.0L567.0 131.0C567.0 132.10457 566.10455 133.0 565.0 133.0Z" fill-rule="nonzero"/><path stroke="#000000" stroke-width="2.0" stroke-linecap="butt" stroke-opacity="0.0" clip-path="url(#id_0)" d="M125.0 171.0L125.0 146.0L522.0 146.0C523.10455 146.0 524.0 146.89543 524.0 148.0L524.0 169.0C524.0 170.10457 523.10455 171.0 522.0 171.0Z" fill-rule="nonzero"/><path fill="#4285f4" clip-path="url(#id_0)" d="M125.0 171.0L125.0 146.0L522.0 146.0C523.10455 146.0 524.0 146.89543 524.0 148.0L524.0 169.0C524.0 170.10457 523.10455 171.0 522.0 171.0Z" fill-rule="nonzero"/><path stroke="#000000" stroke-width="2.0" stroke-linecap="butt" stroke-opacity="0.0" clip-path="url(#id_0)" d="M125.0 210.0L125.0 185.0L518.0 185.0C519.10455 185.0 520.0 185.89543 520.0 187.0L520.0 208.0C520.0 209.10457 519.10455 210.0 518.0 210.0Z" fill-rule="nonzero"/><path fill="#4285f4" clip-path="url(#id_0)" d="M125.0 210.0L125.0 185.0L518.0 185.0C519.10455 185.0 520.0 185.89543 520.0 187.0L520.0 208.0C520.0 209.10457 519.10455 210.0 518.0 210.0Z" fill-rule="nonzero"/><path stroke="#000000" stroke-width="2.0" stroke-linecap="butt" stroke-opacity="0.0" clip-path="url(#id_0)" d="M125.0 249.0L125.0 224.0L518.0 224.0C519.10455 224.0 520.0 224.89543 520.0 226.0L520.0 247.0C520.0 248.10457 519.10455 249.0 518.0 249.0Z" fill-rule="nonzero"/><path fill="#4285f4" clip-path="url(#id_0)" d="M125.0 249.0L125.0 224.0L518.0 224.0C519.10455 224.0 520.0 224.89543 520.0 226.0L520.0 247.0C520.0 248.10457 519.10455 249.0 518.0 249.0Z" fill-rule="nonzero"/><path stroke="#000000" stroke-width="2.0" stroke-linecap="butt" stroke-opacity="0.0" clip-path="url(#id_0)" d="M125.0 287.0L125.0 262.0L457.0 262.0C458.10458 262.0 459.0 262.89542 459.0 264.0L459.0 285.0C459.0 286.10458 458.10458 287.0 457.0 287.0Z" fill-rule="nonzero"/><path fill="#4285f4" clip-path="url(#id_0)" d="M125.0 287.0L125.0 262.0L457.0 262.0C458.10458 262.0 459.0 262.89542 459.0 264.0L459.0 285.0C459.0 286.10458 458.10458 287.0 457.0 287.0Z" fill-rule="nonzero"/><path fill="#000000" d="M287.48438 349.45L290.78125 340.85626L292.0 340.85626L295.51562 349.45L294.23438 349.45L293.21875 346.84064L289.64062 346.84064L288.6875 349.45L287.48438 349.45ZM289.96875 345.91876L292.875 345.91876L291.98438 343.54376Q291.5625 342.46564 291.375 341.7625Q291.20312 342.59064 290.90625 343.40314L289.96875 345.91876ZM297.875 349.45L294.54688 340.85626L295.78125 340.85626L298.01562 347.10626Q298.28125 347.85626 298.46875 348.5125Q298.67188 347.8094 298.9375 347.10626L301.25 340.85626L302.40625 340.85626L299.04688 349.45L297.875 349.45ZM302.45312 349.45L302.45312 340.85626L308.65625 340.85626L308.65625 341.8719L303.59375 341.8719L303.59375 344.4969L308.34375 344.4969L308.34375 345.5125L303.59375 345.5125L303.59375 348.4344L308.85938 348.4344L308.85938 349.45L302.45312 349.45ZM310.4375 349.45L310.4375 340.85626L314.25 340.85626Q315.40625 340.85626 316.0 341.09064Q316.59375 341.325 316.95312 341.91876Q317.3125 342.4969 317.3125 343.2Q317.3125 344.1219 316.71875 344.7469Q316.125 345.3719 314.89062 345.54376Q315.34375 345.7625 315.57812 345.96564Q316.07812 346.41876 316.51562 347.10626L318.01562 349.45L316.57812 349.45L315.45312 347.66876Q314.95312 346.8875 314.625 346.48126Q314.3125 346.075 314.04688 345.91876Q313.79688 345.7469 313.53125 345.66876Q313.34375 345.6375 312.90625 345.6375L311.57812 345.6375L311.57812 349.45L310.4375 349.45ZM311.57812 344.65314L314.03125 344.65314Q314.79688 344.65314 315.23438 344.4969Q315.6875 344.325 315.90625 343.98126Q316.14062 343.6219 316.14062 343.2Q316.14062 342.59064 315.6875 342.2Q315.25 341.8094 314.29688 341.8094L311.57812 341.8094L311.57812 344.65314ZM318.48438 349.45L321.78125 340.85626L323.0 340.85626L326.51562 349.45L325.23438 349.45L324.21875 346.84064L320.64062 346.84064L319.6875 349.45L318.48438 349.45ZM320.96875 345.91876L323.875 345.91876L322.98438 343.54376Q322.5625 342.46564 322.375 341.7625Q322.20312 342.59064 321.90625 343.40314L320.96875 345.91876ZM330.45312 346.075L330.45312 345.075L334.07812 345.0594L334.07812 348.2469Q333.25 348.91876 332.35938 349.2625Q331.46875 349.59064 330.53125 349.59064Q329.26562 349.59064 328.21875 349.0594Q327.1875 348.5125 326.65625 347.4969Q326.14062 346.46564 326.14062 345.2Q326.14062 343.9344 326.65625 342.85626Q327.1875 341.7625 328.17188 341.2469Q329.15625 340.71564 330.4375 340.71564Q331.375 340.71564 332.125 341.0125Q332.875 341.3094 333.29688 341.85626Q333.73438 342.3875 333.95312 343.2625L332.9375 343.54376Q332.73438 342.8875 332.4375 342.5125Q332.15625 342.1375 331.625 341.91876Q331.09375 341.6844 330.45312 341.6844Q329.67188 341.6844 329.09375 341.91876Q328.53125 342.15314 328.17188 342.54376Q327.82812 342.9344 327.64062 343.40314Q327.3125 344.2 327.3125 345.1219Q327.3125 346.27814 327.70312 347.0594Q328.10938 347.825 328.85938 348.2Q329.60938 348.575 330.46875 348.575Q331.20312 348.575 331.90625 348.29376Q332.60938 347.9969 332.96875 347.6844L332.96875 346.075L330.45312 346.075ZM335.45312 349.45L335.45312 340.85626L341.65625 340.85626L341.65625 341.8719L336.59375 341.8719L336.59375 344.4969L341.34375 344.4969L341.34375 345.5125L336.59375 345.5125L336.59375 348.4344L341.85938 348.4344L341.85938 349.45L335.45312 349.45ZM345.90625 346.34064Q345.90625 344.60626 346.85938 343.77814Q347.65625 343.09064 348.8125 343.09064Q350.09375 343.09064 350.90625 343.9344Q351.73438 344.7625 351.73438 346.2469Q351.73438 347.45 351.375 348.1375Q351.01562 348.825 350.3125 349.21564Q349.625 349.59064 348.8125 349.59064Q347.51562 349.59064 346.70312 348.7625Q345.90625 347.91876 345.90625 346.34064ZM346.98438 346.34064Q346.98438 347.52814 347.5 348.1219Q348.03125 348.71564 348.8125 348.71564Q349.60938 348.71564 350.125 348.1219Q350.64062 347.52814 350.64062 346.3094Q350.64062 345.15314 350.10938 344.5594Q349.59375 343.96564 348.8125 343.96564Q348.03125 343.96564 347.5 344.5594Q346.98438 345.1375 346.98438 346.34064ZM353.54688 349.45L353.54688 344.04376L352.60938 344.04376L352.60938 343.23126L353.54688 343.23126L353.54688 342.5594Q353.54688 341.9344 353.65625 341.6375Q353.8125 341.21564 354.1875 340.96564Q354.57812 340.71564 355.26562 340.71564Q355.71875 340.71564 356.25 340.825L356.09375 341.73126Q355.76562 341.6844 355.46875 341.6844Q354.98438 341.6844 354.78125 341.8875Q354.59375 342.09064 354.59375 342.65314L354.59375 343.23126L355.8125 343.23126L355.8125 344.04376L354.59375 344.04376L354.59375 349.45L353.54688 349.45ZM361.60938 349.45L361.60938 341.8719L358.78125 341.8719L358.78125 340.85626L365.59375 340.85626L365.59375 341.8719L362.75 341.8719L362.75 349.45L361.60938 349.45ZM366.29688 342.075L366.29688 340.85626L367.35938 340.85626L367.35938 342.075L366.29688 342.075ZM366.29688 349.45L366.29688 343.23126L367.35938 343.23126L367.35938 349.45L366.29688 349.45ZM369.29688 349.45L369.29688 343.23126L370.23438 343.23126L370.23438 344.10626Q370.53125 343.6375 371.01562 343.3719Q371.5 343.09064 372.125 343.09064Q372.8125 343.09064 373.25 343.3719Q373.70312 343.65314 373.875 344.16876Q374.625 343.09064 375.79688 343.09064Q376.73438 343.09064 377.21875 343.60626Q377.71875 344.10626 377.71875 345.1844L377.71875 349.45L376.67188 349.45L376.67188 345.52814Q376.67188 344.90314 376.5625 344.6219Q376.46875 344.34064 376.20312 344.16876Q375.9375 343.9969 375.5625 343.9969Q374.90625 343.9969 374.46875 344.4344Q374.04688 344.8719 374.04688 345.84064L374.04688 349.45L372.98438 349.45L372.98438 345.40314Q372.98438 344.7 372.71875 344.35626Q372.46875 343.9969 371.89062 343.9969Q371.4375 343.9969 371.0625 344.23126Q370.6875 344.46564 370.51562 344.91876Q370.34375 345.3719 370.34375 346.21564L370.34375 349.45L369.29688 349.45ZM384.54688 347.45L385.64062 347.575Q385.39062 348.52814 384.6875 349.0594Q383.98438 349.59064 382.90625 349.59064Q381.54688 349.59064 380.73438 348.7469Q379.9375 347.90314 379.9375 346.3875Q379.9375 344.825 380.75 343.96564Q381.5625 343.09064 382.84375 343.09064Q384.09375 343.09064 384.875 343.9344Q385.67188 344.77814 385.67188 346.325Q385.67188 346.41876 385.67188 346.60626L381.03125 346.60626Q381.09375 347.6375 381.60938 348.1844Q382.125 348.71564 382.90625 348.71564Q383.48438 348.71564 383.89062 348.41876Q384.3125 348.10626 384.54688 347.45ZM381.09375 345.7469L384.5625 345.7469Q384.5 344.95 384.17188 344.5594Q383.65625 343.95 382.85938 343.95Q382.125 343.95 381.625 344.4344Q381.14062 344.91876 381.09375 345.7469ZM392.3125 351.98126Q391.4375 350.8719 390.82812 349.40314Q390.23438 347.91876 390.23438 346.34064Q390.23438 344.95 390.67188 343.66876Q391.20312 342.1844 392.3125 340.71564L393.0625 340.71564Q392.35938 341.9344 392.125 342.45Q391.76562 343.2625 391.5625 344.1375Q391.3125 345.23126 391.3125 346.34064Q391.3125 349.16876 393.0625 351.98126L392.3125 351.98126ZM394.29688 349.45L394.29688 343.23126L395.23438 343.23126L395.23438 344.10626Q395.53125 343.6375 396.01562 343.3719Q396.5 343.09064 397.125 343.09064Q397.8125 343.09064 398.25 343.3719Q398.70312 343.65314 398.875 344.16876Q399.625 343.09064 400.79688 343.09064Q401.73438 343.09064 402.21875 343.60626Q402.71875 344.10626 402.71875 345.1844L402.71875 349.45L401.67188 349.45L401.67188 345.52814Q401.67188 344.90314 401.5625 344.6219Q401.46875 344.34064 401.20312 344.16876Q400.9375 343.9969 400.5625 343.9969Q399.90625 343.9969 399.46875 344.4344Q399.04688 344.8719 399.04688 345.84064L399.04688 349.45L397.98438 349.45L397.98438 345.40314Q397.98438 344.7 397.71875 344.35626Q397.46875 343.9969 396.89062 343.9969Q396.4375 343.9969 396.0625 344.23126Q395.6875 344.46564 395.51562 344.91876Q395.34375 345.3719 395.34375 346.21564L395.34375 349.45L394.29688 349.45ZM405.29688 342.075L405.29688 340.85626L406.35938 340.85626L406.35938 342.075L405.29688 342.075ZM405.29688 349.45L405.29688 343.23126L406.35938 343.23126L406.35938 349.45L405.29688 349.45ZM408.29688 349.45L408.29688 343.23126L409.23438 343.23126L409.23438 344.10626Q409.92188 343.09064 411.21875 343.09064Q411.78125 343.09064 412.25 343.29376Q412.73438 343.4969 412.96875 343.825Q413.20312 344.15314 413.29688 344.59064Q413.34375 344.8875 413.34375 345.6219L413.34375 349.45L412.29688 349.45L412.29688 345.66876Q412.29688 345.0125 412.17188 344.7Q412.04688 344.3875 411.73438 344.2Q411.42188 343.9969 411.0 343.9969Q410.32812 343.9969 409.82812 344.4344Q409.34375 344.85626 409.34375 346.04376L409.34375 349.45L408.29688 349.45ZM415.98438 351.98126L415.23438 351.98126Q416.98438 349.16876 416.98438 346.34064Q416.98438 345.2469 416.73438 344.15314Q416.53125 343.27814 416.17188 342.46564Q415.9375 341.95 415.23438 340.71564L415.98438 340.71564Q417.07812 342.1844 417.60938 343.66876Q418.0625 344.95 418.0625 346.34064Q418.0625 347.91876 417.45312 349.40314Q416.84375 350.8719 415.98438 351.98126Z" fill-rule="nonzero"/><path fill="#000000" d="M29.550013 208.26146L20.956263 210.54271L20.956263 209.37083L26.596888 208.05833Q27.471888 207.85521 28.346888 207.69896Q26.971888 207.37083 26.753138 207.30833L20.956263 205.68333L20.956263 204.30833L25.300013 203.07396Q26.925013 202.62083 28.346888 202.40208Q27.534388 202.24583 26.471888 201.98021L20.956263 200.63646L20.956263 199.49583L29.550013 201.83958L29.550013 202.94896L23.003138 204.74583Q22.190638 204.98021 22.003138 205.02708Q22.581263 205.15208 23.003138 205.27708L29.550013 207.08958L29.550013 208.26146ZM27.550013 194.63646L27.675013 193.54271Q28.628138 193.79271 29.159388 194.49583Q29.690638 195.19896 29.690638 196.27708Q29.690638 197.63646 28.846888 198.44896Q28.003138 199.24583 26.487513 199.24583Q24.925013 199.24583 24.065638 198.43333Q23.190638 197.62083 23.190638 196.33958Q23.190638 195.08958 24.034388 194.30833Q24.878138 193.51146 26.425013 193.51146Q26.518763 193.51146 26.706263 193.51146L26.706263 198.15208Q27.737513 198.08958 28.284388 197.57396Q28.815638 197.05833 28.815638 196.27708Q28.815638 195.69896 28.518763 195.29271Q28.206263 194.87083 27.550013 194.63646ZM25.846888 198.08958L25.846888 194.62083Q25.050013 194.68333 24.659388 195.01146Q24.050013 195.52708 24.050013 196.32396Q24.050013 197.05833 24.534388 197.55833Q25.018763 198.04271 25.846888 198.08958ZM28.784388 187.82396Q29.284388 188.41771 29.487513 188.96458Q29.690638 189.49583 29.690638 190.12083Q29.690638 191.15208 29.190638 191.69896Q28.690638 192.24583 27.909388 192.24583Q27.456263 192.24583 27.081263 192.04271Q26.690638 191.83958 26.471888 191.49583Q26.237513 191.15208 26.128138 190.73021Q26.034388 190.43333 25.956263 189.79271Q25.815638 188.52708 25.596888 187.91771Q25.378138 187.91771 25.331263 187.91771Q24.675013 187.91771 24.409388 188.21458Q24.065638 188.62083 24.065638 189.41771Q24.065638 190.15208 24.331263 190.51146Q24.581263 190.87083 25.237513 191.04271L25.096888 192.07396Q24.440638 191.93333 24.034388 191.60521Q23.628138 191.27708 23.409388 190.66771Q23.190638 190.05833 23.190638 189.26146Q23.190638 188.46458 23.378138 187.96458Q23.565638 187.46458 23.846888 187.23021Q24.128138 186.99583 24.565638 186.90208Q24.831263 186.85521 25.534388 186.85521L26.940638 186.85521Q28.409388 186.85521 28.800013 186.79271Q29.190638 186.71458 29.550013 186.51146L29.550013 187.62083Q29.221888 187.77708 28.784388 187.82396ZM26.425013 187.91771Q26.659388 188.49583 26.831263 189.63646Q26.925013 190.29271 27.050013 190.55833Q27.159388 190.82396 27.378138 190.98021Q27.596888 191.12083 27.878138 191.12083Q28.300013 191.12083 28.581263 190.80833Q28.862513 190.48021 28.862513 189.87083Q28.862513 189.26146 28.596888 188.79271Q28.331263 188.30833 27.862513 188.08958Q27.503138 187.91771 26.815638 187.91771L26.425013 187.91771ZM28.612513 182.58958L29.534388 182.43333Q29.628138 182.88646 29.628138 183.23021Q29.628138 183.80833 29.456263 184.12083Q29.268763 184.43333 28.971888 184.57396Q28.675013 184.69896 27.721888 184.69896L24.143763 184.69896L24.143763 185.46458L23.331263 185.46458L23.331263 184.69896L21.784388 184.69896L21.159388 183.65208L23.331263 183.65208L23.331263 182.58958L24.143763 182.58958L24.143763 183.65208L27.784388 183.65208Q28.237513 183.65208 28.362513 183.60521Q28.487513 183.54271 28.565638 183.41771Q28.643763 183.29271 28.643763 183.05833Q28.643763 182.87083 28.612513 182.58958ZM29.550013 181.88646L20.956263 181.88646L20.956263 180.83958L24.034388 180.83958Q23.190638 180.10521 23.190638 178.98021Q23.190638 178.27708 23.471888 177.77708Q23.737513 177.26146 24.221888 177.04271Q24.690638 176.82396 25.612513 176.82396L29.550013 176.82396L29.550013 177.87083L25.612513 177.87083Q24.815638 177.87083 24.456263 178.21458Q24.096888 178.55833 24.096888 179.18333Q24.096888 179.65208 24.346888 180.07396Q24.581263 180.48021 25.003138 180.66771Q25.409388 180.83958 26.143763 180.83958L29.550013 180.83958L29.550013 181.88646ZM27.550013 170.63646L27.675013 169.54271Q28.628138 169.79271 29.159388 170.49583Q29.690638 171.19896 29.690638 172.27708Q29.690638 173.63646 28.846888 174.44896Q28.003138 175.24583 26.487513 175.24583Q24.925013 175.24583 24.065638 174.43333Q23.190638 173.62083 23.190638 172.33958Q23.190638 171.08958 24.034388 170.30833Q24.878138 169.51146 26.425013 169.51146Q26.518763 169.51146 26.706263 169.51146L26.706263 174.15208Q27.737513 174.08958 28.284388 173.57396Q28.815638 173.05833 28.815638 172.27708Q28.815638 171.69896 28.518763 171.29271Q28.206263 170.87083 27.550013 170.63646ZM25.846888 174.08958L25.846888 170.62083Q25.050013 170.68333 24.659388 171.01146Q24.050013 171.52708 24.050013 172.32396Q24.050013 173.05833 24.534388 173.55833Q25.018763 174.04271 25.846888 174.08958ZM29.550013 167.90208L23.331263 167.90208L23.331263 166.94896L24.268763 166.94896Q23.612513 166.58958 23.409388 166.29271Q23.190638 165.98021 23.190638 165.60521Q23.190638 165.07396 23.518763 164.52708L24.503138 164.88646Q24.268763 165.27708 24.268763 165.65208Q24.268763 166.01146 24.487513 166.29271Q24.690638 166.55833 25.065638 166.66771Q25.628138 166.85521 26.284388 166.85521L29.550013 166.85521L29.550013 167.90208Z" fill-rule="nonzero"/><path fill="#000000" d="M87.6125 82.001045L88.7375 82.29792Q88.37813 83.688545 87.45625 84.42292Q86.53438 85.157295 85.19063 85.157295Q83.8 85.157295 82.925 84.594795Q82.05 84.032295 81.59688 82.969795Q81.14375 81.89167 81.14375 80.657295Q81.14375 79.313545 81.65938 78.313545Q82.175 77.313545 83.1125 76.79792Q84.06563 76.282295 85.20625 76.282295Q86.4875 76.282295 87.3625 76.938545Q88.25313 77.594795 88.59688 78.782295L87.47188 79.04792Q87.175 78.11042 86.59688 77.688545Q86.03438 77.251045 85.175 77.251045Q84.19063 77.251045 83.51875 77.73542Q82.8625 78.20417 82.58125 79.001045Q82.31563 79.79792 82.31563 80.657295Q82.31563 81.751045 82.62813 82.563545Q82.95625 83.376045 83.62813 83.782295Q84.3 84.188545 85.09688 84.188545Q86.05 84.188545 86.70625 83.64167Q87.37813 83.094795 87.6125 82.001045ZM90.31563 85.01667L90.31563 76.42292L91.37813 76.42292L91.37813 85.01667L90.31563 85.01667ZM92.95625 81.907295Q92.95625 80.17292 93.90938 79.344795Q94.70625 78.657295 95.8625 78.657295Q97.14375 78.657295 97.95625 79.501045Q98.78438 80.32917 98.78438 81.813545Q98.78438 83.01667 98.425 83.70417Q98.06563 84.39167 97.3625 84.782295Q96.675 85.157295 95.8625 85.157295Q94.56563 85.157295 93.75313 84.32917Q92.95625 83.48542 92.95625 81.907295ZM94.03438 81.907295Q94.03438 83.094795 94.55 83.688545Q95.08125 84.282295 95.8625 84.282295Q96.65938 84.282295 97.175 83.688545Q97.69063 83.094795 97.69063 81.876045Q97.69063 80.719795 97.15938 80.126045Q96.64375 79.532295 95.8625 79.532295Q95.08125 79.532295 94.55 80.126045Q94.03438 80.70417 94.03438 81.907295ZM104.425 85.01667L104.425 84.094795Q103.69063 85.157295 102.44063 85.157295Q101.89375 85.157295 101.40938 84.95417Q100.94063 84.73542 100.70625 84.42292Q100.47188 84.094795 100.37813 83.626045Q100.31563 83.32917 100.31563 82.64167L100.31563 78.79792L101.37813 78.79792L101.37813 82.251045Q101.37813 83.063545 101.44063 83.36042Q101.53438 83.76667 101.84688 84.01667Q102.175 84.251045 102.65938 84.251045Q103.12813 84.251045 103.53438 84.01667Q103.95625 83.76667 104.12813 83.344795Q104.31563 82.92292 104.31563 82.126045L104.31563 78.79792L105.3625 78.79792L105.3625 85.01667L104.425 85.01667ZM111.37813 85.01667L111.37813 84.23542Q110.78438 85.157295 109.64375 85.157295Q108.89375 85.157295 108.26875 84.751045Q107.64375 84.32917 107.3 83.594795Q106.95625 82.86042 106.95625 81.907295Q106.95625 80.98542 107.26875 80.219795Q107.58125 79.45417 108.20625 79.063545Q108.83125 78.657295 109.59688 78.657295Q110.15938 78.657295 110.59688 78.89167Q111.03438 79.126045 111.31563 79.501045L111.31563 76.42292L112.3625 76.42292L112.3625 85.01667L111.37813 85.01667ZM108.05 81.907295Q108.05 83.11042 108.55 83.70417Q109.05 84.282295 109.7375 84.282295Q110.425 84.282295 110.90938 83.719795Q111.39375 83.157295 111.39375 82.001045Q111.39375 80.719795 110.89375 80.126045Q110.40938 79.532295 109.69063 79.532295Q108.9875 79.532295 108.51875 80.11042Q108.05 80.67292 108.05 81.907295ZM114.3 87.407295L114.175 86.42292Q114.51875 86.51667 114.78438 86.51667Q115.12813 86.51667 115.33125 86.39167Q115.55 86.282295 115.69063 86.07917Q115.78438 85.907295 116.01875 85.282295Q116.03438 85.20417 116.1125 85.032295L113.7375 78.79792L114.87813 78.79792L116.175 82.39167Q116.425 83.07917 116.62813 83.844795Q116.81563 83.11042 117.06563 82.42292L118.39375 78.79792L119.44063 78.79792L117.08125 85.126045Q116.69063 86.14167 116.4875 86.532295Q116.20625 87.063545 115.83125 87.29792Q115.47188 87.54792 114.97188 87.54792Q114.675 87.54792 114.3 87.407295Z" fill-rule="nonzero"/><path fill="#000000" d="M98.53438 123.683334L98.53438 115.089584L104.33125 115.089584L104.33125 116.10521L99.675 116.10521L99.675 118.76146L103.70625 118.76146L103.70625 119.777084L99.675 119.777084L99.675 123.683334L98.53438 123.683334ZM104.95625 120.57396Q104.95625 118.839584 105.90938 118.01146Q106.70625 117.32396 107.8625 117.32396Q109.14375 117.32396 109.95625 118.16771Q110.78438 118.995834 110.78438 120.48021Q110.78438 121.683334 110.425 122.370834Q110.06563 123.058334 109.3625 123.44896Q108.675 123.82396 107.8625 123.82396Q106.56563 123.82396 105.75313 122.995834Q104.95625 122.152084 104.95625 120.57396ZM106.03438 120.57396Q106.03438 121.76146 106.55 122.35521Q107.08125 122.94896 107.8625 122.94896Q108.65938 122.94896 109.175 122.35521Q109.69063 121.76146 109.69063 120.54271Q109.69063 119.38646 109.15938 118.79271Q108.64375 118.19896 107.8625 118.19896Q107.08125 118.19896 106.55 118.79271Q106.03438 119.370834 106.03438 120.57396ZM112.14375 124.19896L113.175 124.35521Q113.2375 124.82396 113.53438 125.04271Q113.925 125.339584 114.59688 125.339584Q115.33125 125.339584 115.72188 125.04271Q116.12813 124.745834 116.26875 124.23021Q116.3625 123.902084 116.34688 122.870834Q115.65938 123.683334 114.62813 123.683334Q113.34688 123.683334 112.64375 122.76146Q111.94063 121.82396 111.94063 120.54271Q111.94063 119.652084 112.25313 118.902084Q112.58125 118.13646 113.19063 117.73021Q113.8 117.32396 114.62813 117.32396Q115.7375 117.32396 116.45625 118.214584L116.45625 117.464584L117.425 117.464584L117.425 122.839584Q117.425 124.29271 117.12813 124.902084Q116.83125 125.51146 116.19063 125.85521Q115.55 126.214584 114.6125 126.214584Q113.50313 126.214584 112.81563 125.714584Q112.12813 125.214584 112.14375 124.19896ZM113.01875 120.464584Q113.01875 121.683334 113.50313 122.245834Q113.9875 122.808334 114.72188 122.808334Q115.45625 122.808334 115.94063 122.245834Q116.44063 121.683334 116.44063 120.495834Q116.44063 119.35521 115.925 118.777084Q115.425 118.19896 114.70625 118.19896Q114.00313 118.19896 113.50313 118.777084Q113.01875 119.339584 113.01875 120.464584Z" fill-rule="nonzero"/><path fill="#000000" d="M87.97188 162.35L85.69063 153.75626L86.8625 153.75626L88.175 159.39688Q88.37813 160.27188 88.53438 161.14688Q88.8625 159.77188 88.925 159.55313L90.55 153.75626L91.925 153.75626L93.15938 158.1Q93.6125 159.725 93.83125 161.14688Q93.9875 160.33438 94.25313 159.27188L95.59688 153.75626L96.7375 153.75626L94.39375 162.35L93.28438 162.35L91.4875 155.80313Q91.25313 154.99063 91.20625 154.80313Q91.08125 155.38126 90.95625 155.80313L89.14375 162.35L87.97188 162.35ZM97.34688 154.975L97.34688 153.75626L98.40938 153.75626L98.40938 154.975L97.34688 154.975ZM97.34688 162.35L97.34688 156.13126L98.40938 156.13126L98.40938 162.35L97.34688 162.35ZM100.34688 162.35L100.34688 156.13126L101.28438 156.13126L101.28438 157.00626Q101.97188 155.99063 103.26875 155.99063Q103.83125 155.99063 104.3 156.19376Q104.78438 156.39688 105.01875 156.725Q105.25313 157.05313 105.34688 157.49063Q105.39375 157.7875 105.39375 158.52188L105.39375 162.35L104.34688 162.35L104.34688 158.56876Q104.34688 157.9125 104.22188 157.6Q104.09688 157.2875 103.78438 157.1Q103.47188 156.89688 103.05 156.89688Q102.37813 156.89688 101.87813 157.33438Q101.39375 157.75626 101.39375 158.94376L101.39375 162.35L100.34688 162.35ZM111.37813 162.35L111.37813 161.56876Q110.78438 162.49063 109.64375 162.49063Q108.89375 162.49063 108.26875 162.08438Q107.64375 161.6625 107.3 160.92813Q106.95625 160.19376 106.95625 159.24063Q106.95625 158.31876 107.26875 157.55313Q107.58125 156.7875 108.20625 156.39688Q108.83125 155.99063 109.59688 155.99063Q110.15938 155.99063 110.59688 156.225Q111.03438 156.45938 111.31563 156.83438L111.31563 153.75626L112.3625 153.75626L112.3625 162.35L111.37813 162.35ZM108.05 159.24063Q108.05 160.44376 108.55 161.0375Q109.05 161.61563 109.7375 161.61563Q110.425 161.61563 110.90938 161.05313Q111.39375 160.49063 111.39375 159.33438Q111.39375 158.05313 110.89375 157.45938Q110.40938 156.86563 109.69063 156.86563Q108.9875 156.86563 108.51875 157.44376Q108.05 158.00626 108.05 159.24063ZM114.3 164.74063L114.175 163.75626Q114.51875 163.85 114.78438 163.85Q115.12813 163.85 115.33125 163.725Q115.55 163.61563 115.69063 163.4125Q115.78438 163.24063 116.01875 162.61563Q116.03438 162.5375 116.1125 162.36563L113.7375 156.13126L114.87813 156.13126L116.175 159.725Q116.425 160.4125 116.62813 161.17813Q116.81563 160.44376 117.06563 159.75626L118.39375 156.13126L119.44063 156.13126L117.08125 162.45938Q116.69063 163.475 116.4875 163.86563Q116.20625 164.39688 115.83125 164.63126Q115.47188 164.88126 114.97188 164.88126Q114.675 164.88126 114.3 164.74063Z" fill-rule="nonzero"/><path fill="#000000" d="M81.09688 198.25104L82.15938 198.15729Q82.2375 198.81354 82.51875 199.21979Q82.8 199.62604 83.37813 199.89166Q83.97188 200.14166 84.70625 200.14166Q85.34688 200.14166 85.84688 199.95416Q86.34688 199.75104 86.58125 199.42291Q86.83125 199.07916 86.83125 198.68854Q86.83125 198.28229 86.59688 197.98541Q86.3625 197.67291 85.83125 197.46979Q85.47188 197.32916 84.28438 197.04791Q83.1125 196.76666 82.64375 196.51666Q82.01875 196.18854 81.72188 195.71979Q81.425 195.23541 81.425 194.64166Q81.425 194.00104 81.78438 193.43854Q82.15938 192.86041 82.8625 192.57916Q83.58125 192.28229 84.44063 192.28229Q85.39375 192.28229 86.12813 192.59479Q86.8625 192.89166 87.25313 193.50104Q87.64375 194.09479 87.675 194.84479L86.58125 194.92291Q86.4875 194.11041 85.97188 193.70416Q85.47188 193.28229 84.4875 193.28229Q83.45625 193.28229 82.9875 193.65729Q82.51875 194.03229 82.51875 194.56354Q82.51875 195.03229 82.84688 195.32916Q83.175 195.62604 84.55 195.93854Q85.94063 196.25104 86.45625 196.48541Q87.20625 196.84479 87.56563 197.37604Q87.925 197.89166 87.925 198.59479Q87.925 199.28229 87.53438 199.89166Q87.14375 200.48541 86.40938 200.82916Q85.675 201.15729 84.75313 201.15729Q83.58125 201.15729 82.78438 200.82916Q82.00313 200.48541 81.55 199.79791Q81.1125 199.11041 81.09688 198.25104ZM91.64375 200.07916L91.8 201.00104Q91.34688 201.09479 91.00313 201.09479Q90.425 201.09479 90.1125 200.92291Q89.8 200.73541 89.65938 200.43854Q89.53438 200.14166 89.53438 199.18854L89.53438 195.61041L88.76875 195.61041L88.76875 194.79791L89.53438 194.79791L89.53438 193.25104L90.58125 192.62604L90.58125 194.79791L91.64375 194.79791L91.64375 195.61041L90.58125 195.61041L90.58125 199.25104Q90.58125 199.70416 90.62813 199.82916Q90.69063 199.95416 90.81563 200.03229Q90.94063 200.11041 91.175 200.11041Q91.3625 200.11041 91.64375 200.07916ZM91.95625 197.90729Q91.95625 196.17291 92.90938 195.34479Q93.70625 194.65729 94.8625 194.65729Q96.14375 194.65729 96.95625 195.50104Q97.78438 196.32916 97.78438 197.81354Q97.78438 199.01666 97.425 199.70416Q97.06563 200.39166 96.3625 200.78229Q95.675 201.15729 94.8625 201.15729Q93.56563 201.15729 92.75313 200.32916Q91.95625 199.48541 91.95625 197.90729ZM93.03438 197.90729Q93.03438 199.09479 93.55 199.68854Q94.08125 200.28229 94.8625 200.28229Q95.65938 200.28229 96.175 199.68854Q96.69063 199.09479 96.69063 197.87604Q96.69063 196.71979 96.15938 196.12604Q95.64375 195.53229 94.8625 195.53229Q94.08125 195.53229 93.55 196.12604Q93.03438 196.70416 93.03438 197.90729ZM99.33125 201.01666L99.33125 194.79791L100.28438 194.79791L100.28438 195.73541Q100.64375 195.07916 100.94063 194.87604Q101.25313 194.65729 101.62813 194.65729Q102.15938 194.65729 102.70625 194.98541L102.34688 195.96979Q101.95625 195.73541 101.58125 195.73541Q101.22188 195.73541 100.94063 195.95416Q100.675 196.15729 100.56563 196.53229Q100.37813 197.09479 100.37813 197.75104L100.37813 201.01666L99.33125 201.01666ZM103.34688 201.01666L103.34688 194.79791L104.28438 194.79791L104.28438 195.67291Q104.58125 195.20416 105.06563 194.93854Q105.55 194.65729 106.175 194.65729Q106.8625 194.65729 107.3 194.93854Q107.75313 195.21979 107.925 195.73541Q108.675 194.65729 109.84688 194.65729Q110.78438 194.65729 111.26875 195.17291Q111.76875 195.67291 111.76875 196.75104L111.76875 201.01666L110.72188 201.01666L110.72188 197.09479Q110.72188 196.46979 110.6125 196.18854Q110.51875 195.90729 110.25313 195.73541Q109.9875 195.56354 109.6125 195.56354Q108.95625 195.56354 108.51875 196.00104Q108.09688 196.43854 108.09688 197.40729L108.09688 201.01666L107.03438 201.01666L107.03438 196.96979Q107.03438 196.26666 106.76875 195.92291Q106.51875 195.56354 105.94063 195.56354Q105.4875 195.56354 105.1125 195.79791Q104.7375 196.03229 104.56563 196.48541Q104.39375 196.93854 104.39375 197.78229L104.39375 201.01666L103.34688 201.01666ZM114.3 203.40729L114.175 202.42291Q114.51875 202.51666 114.78438 202.51666Q115.12813 202.51666 115.33125 202.39166Q115.55 202.28229 115.69063 202.07916Q115.78438 201.90729 116.01875 201.28229Q116.03438 201.20416 116.1125 201.03229L113.7375 194.79791L114.87813 194.79791L116.175 198.39166Q116.425 199.07916 116.62813 199.84479Q116.81563 199.11041 117.06563 198.42291L118.39375 194.79791L119.44063 194.79791L117.08125 201.12604Q116.69063 202.14166 116.4875 202.53229Q116.20625 203.06354 115.83125 203.29791Q115.47188 203.54791 114.97188 203.54791Q114.675 203.54791 114.3 203.40729Z" fill-rule="nonzero"/><path fill="#000000" d="M51.096874 236.91771L52.159374 236.82396Q52.2375 237.48021 52.51875 237.88646Q52.8 238.29271 53.378124 238.55833Q53.971874 238.80833 54.70625 238.80833Q55.346874 238.80833 55.846874 238.62083Q56.346874 238.41771 56.58125 238.08958Q56.83125 237.74583 56.83125 237.35521Q56.83125 236.94896 56.596874 236.65208Q56.3625 236.33958 55.83125 236.13646Q55.471874 235.99583 54.284374 235.71458Q53.1125 235.43333 52.64375 235.18333Q52.01875 234.85521 51.721874 234.38646Q51.425 233.90208 51.425 233.30833Q51.425 232.66771 51.784374 232.10521Q52.159374 231.52708 52.8625 231.24583Q53.58125 230.94896 54.440624 230.94896Q55.39375 230.94896 56.128124 231.26146Q56.8625 231.55833 57.253124 232.16771Q57.64375 232.76146 57.675 233.51146L56.58125 233.58958Q56.4875 232.77708 55.971874 232.37083Q55.471874 231.94896 54.4875 231.94896Q53.45625 231.94896 52.9875 232.32396Q52.51875 232.69896 52.51875 233.23021Q52.51875 233.69896 52.846874 233.99583Q53.175 234.29271 54.55 234.60521Q55.940624 234.91771 56.45625 235.15208Q57.20625 235.51146 57.565624 236.04271Q57.925 236.55833 57.925 237.26146Q57.925 237.94896 57.534374 238.55833Q57.14375 239.15208 56.409374 239.49583Q55.675 239.82396 54.753124 239.82396Q53.58125 239.82396 52.784374 239.49583Q52.003124 239.15208 51.55 238.46458Q51.1125 237.77708 51.096874 236.91771ZM63.409374 238.91771Q62.815624 239.41771 62.26875 239.62083Q61.7375 239.82396 61.1125 239.82396Q60.08125 239.82396 59.534374 239.32396Q58.9875 238.82396 58.9875 238.04271Q58.9875 237.58958 59.190624 237.21458Q59.39375 236.82396 59.7375 236.60521Q60.08125 236.37083 60.503124 236.26146Q60.8 236.16771 61.440624 236.08958Q62.70625 235.94896 63.315624 235.73021Q63.315624 235.51146 63.315624 235.46458Q63.315624 234.80833 63.01875 234.54271Q62.6125 234.19896 61.815624 234.19896Q61.08125 234.19896 60.721874 234.46458Q60.3625 234.71458 60.190624 235.37083L59.159374 235.23021Q59.3 234.57396 59.628124 234.16771Q59.95625 233.76146 60.565624 233.54271Q61.175 233.32396 61.971874 233.32396Q62.76875 233.32396 63.26875 233.51146Q63.76875 233.69896 64.00313 233.98021Q64.2375 234.26146 64.33125 234.69896Q64.37813 234.96458 64.37813 235.66771L64.37813 237.07396Q64.37813 238.54271 64.44063 238.93333Q64.51875 239.32396 64.72188 239.68333L63.6125 239.68333Q63.45625 239.35521 63.409374 238.91771ZM63.315624 236.55833Q62.7375 236.79271 61.596874 236.96458Q60.940624 237.05833 60.675 237.18333Q60.409374 237.29271 60.253124 237.51146Q60.1125 237.73021 60.1125 238.01146Q60.1125 238.43333 60.425 238.71458Q60.753124 238.99583 61.3625 238.99583Q61.971874 238.99583 62.440624 238.73021Q62.925 238.46458 63.14375 237.99583Q63.315624 237.63646 63.315624 236.94896L63.315624 236.55833ZM66.34688 239.68333L66.34688 233.46458L67.28438 233.46458L67.28438 234.33958Q67.97188 233.32396 69.26875 233.32396Q69.83125 233.32396 70.3 233.52708Q70.78438 233.73021 71.01875 234.05833Q71.25313 234.38646 71.34688 234.82396Q71.39375 235.12083 71.39375 235.85521L71.39375 239.68333L70.34688 239.68333L70.34688 235.90208Q70.34688 235.24583 70.22188 234.93333Q70.09688 234.62083 69.78438 234.43333Q69.47188 234.23021 69.05 234.23021Q68.37813 234.23021 67.87813 234.66771Q67.39375 235.08958 67.39375 236.27708L67.39375 239.68333L66.34688 239.68333ZM77.37813 239.68333L77.37813 238.90208Q76.78438 239.82396 75.64375 239.82396Q74.89375 239.82396 74.26875 239.41771Q73.64375 238.99583 73.3 238.26146Q72.95625 237.52708 72.95625 236.57396Q72.95625 235.65208 73.26875 234.88646Q73.58125 234.12083 74.20625 233.73021Q74.83125 233.32396 75.59688 233.32396Q76.15938 233.32396 76.59688 233.55833Q77.03438 233.79271 77.31563 234.16771L77.31563 231.08958L78.3625 231.08958L78.3625 239.68333L77.37813 239.68333ZM74.05 236.57396Q74.05 237.77708 74.55 238.37083Q75.05 238.94896 75.7375 238.94896Q76.425 238.94896 76.90938 238.38646Q77.39375 237.82396 77.39375 236.66771Q77.39375 235.38646 76.89375 234.79271Q76.40938 234.19896 75.69063 234.19896Q74.9875 234.19896 74.51875 234.77708Q74.05 235.33958 74.05 236.57396ZM79.925 237.82396L80.95625 237.66771Q81.05 238.29271 81.44063 238.62083Q81.84688 238.94896 82.58125 238.94896Q83.3 238.94896 83.64375 238.66771Q84.00313 238.37083 84.00313 237.96458Q84.00313 237.60521 83.69063 237.40208Q83.47188 237.26146 82.6125 237.04271Q81.45625 236.74583 81.00313 236.54271Q80.56563 236.32396 80.33125 235.94896Q80.09688 235.57396 80.09688 235.10521Q80.09688 234.69896 80.28438 234.33958Q80.47188 233.98021 80.8 233.74583Q81.05 233.57396 81.47188 233.44896Q81.89375 233.32396 82.39375 233.32396Q83.1125 233.32396 83.65938 233.54271Q84.22188 233.74583 84.4875 234.10521Q84.75313 234.46458 84.84688 235.05833L83.81563 235.19896Q83.75313 234.73021 83.40938 234.46458Q83.08125 234.18333 82.45625 234.18333Q81.7375 234.18333 81.425 234.43333Q81.1125 234.66771 81.1125 234.99583Q81.1125 235.19896 81.2375 235.35521Q81.37813 235.52708 81.64375 235.63646Q81.8 235.69896 82.58125 235.90208Q83.70625 236.21458 84.14375 236.40208Q84.58125 236.58958 84.83125 236.94896Q85.08125 237.30833 85.08125 237.85521Q85.08125 238.38646 84.76875 238.85521Q84.47188 239.30833 83.89375 239.57396Q83.31563 239.82396 82.58125 239.82396Q81.3625 239.82396 80.72188 239.32396Q80.09688 238.80833 79.925 237.82396ZM89.64375 238.74583L89.8 239.66771Q89.34688 239.76146 89.00313 239.76146Q88.425 239.76146 88.1125 239.58958Q87.8 239.40208 87.65938 239.10521Q87.53438 238.80833 87.53438 237.85521L87.53438 234.27708L86.76875 234.27708L86.76875 233.46458L87.53438 233.46458L87.53438 231.91771L88.58125 231.29271L88.58125 233.46458L89.64375 233.46458L89.64375 234.27708L88.58125 234.27708L88.58125 237.91771Q88.58125 238.37083 88.62813 238.49583Q88.69063 238.62083 88.81563 238.69896Q88.94063 238.77708 89.175 238.77708Q89.3625 238.77708 89.64375 238.74583ZM89.95625 236.57396Q89.95625 234.83958 90.90938 234.01146Q91.70625 233.32396 92.8625 233.32396Q94.14375 233.32396 94.95625 234.16771Q95.78438 234.99583 95.78438 236.48021Q95.78438 237.68333 95.425 238.37083Q95.06563 239.05833 94.3625 239.44896Q93.675 239.82396 92.8625 239.82396Q91.56563 239.82396 90.75313 238.99583Q89.95625 238.15208 89.95625 236.57396ZM91.03438 236.57396Q91.03438 237.76146 91.55 238.35521Q92.08125 238.94896 92.8625 238.94896Q93.65938 238.94896 94.175 238.35521Q94.69063 237.76146 94.69063 236.54271Q94.69063 235.38646 94.15938 234.79271Q93.64375 234.19896 92.8625 234.19896Q92.08125 234.19896 91.55 234.79271Q91.03438 235.37083 91.03438 236.57396ZM97.33125 239.68333L97.33125 233.46458L98.28438 233.46458L98.28438 234.40208Q98.64375 233.74583 98.94063 233.54271Q99.25313 233.32396 99.62813 233.32396Q100.15938 233.32396 100.70625 233.65208L100.34688 234.63646Q99.95625 234.40208 99.58125 234.40208Q99.22188 234.40208 98.94063 234.62083Q98.675 234.82396 98.56563 235.19896Q98.37813 235.76146 98.37813 236.41771L98.37813 239.68333L97.33125 239.68333ZM101.34688 239.68333L101.34688 233.46458L102.28438 233.46458L102.28438 234.33958Q102.58125 233.87083 103.06563 233.60521Q103.55 233.32396 104.175 233.32396Q104.8625 233.32396 105.3 233.60521Q105.75313 233.88646 105.925 234.40208Q106.675 233.32396 107.84688 233.32396Q108.78438 233.32396 109.26875 233.83958Q109.76875 234.33958 109.76875 235.41771L109.76875 239.68333L108.72188 239.68333L108.72188 235.76146Q108.72188 235.13646 108.6125 234.85521Q108.51875 234.57396 108.25313 234.40208Q107.9875 234.23021 107.6125 234.23021Q106.95625 234.23021 106.51875 234.66771Q106.09688 235.10521 106.09688 236.07396L106.09688 239.68333L105.03438 239.68333L105.03438 235.63646Q105.03438 234.93333 104.76875 234.58958Q104.51875 234.23021 103.94063 234.23021Q103.4875 234.23021 103.1125 234.46458Q102.7375 234.69896 102.56563 235.15208Q102.39375 235.60521 102.39375 236.44896L102.39375 239.68333L101.34688 239.68333ZM111.925 237.82396L112.95625 237.66771Q113.05 238.29271 113.44063 238.62083Q113.84688 238.94896 114.58125 238.94896Q115.3 238.94896 115.64375 238.66771Q116.00313 238.37083 116.00313 237.96458Q116.00313 237.60521 115.69063 237.40208Q115.47188 237.26146 114.6125 237.04271Q113.45625 236.74583 113.00313 236.54271Q112.56563 236.32396 112.33125 235.94896Q112.09688 235.57396 112.09688 235.10521Q112.09688 234.69896 112.28438 234.33958Q112.47188 233.98021 112.8 233.74583Q113.05 233.57396 113.47188 233.44896Q113.89375 233.32396 114.39375 233.32396Q115.1125 233.32396 115.65938 233.54271Q116.22188 233.74583 116.4875 234.10521Q116.75313 234.46458 116.84688 235.05833L115.81563 235.19896Q115.75313 234.73021 115.40938 234.46458Q115.08125 234.18333 114.45625 234.18333Q113.7375 234.18333 113.425 234.43333Q113.1125 234.66771 113.1125 234.99583Q113.1125 235.19896 113.2375 235.35521Q113.37813 235.52708 113.64375 235.63646Q113.8 235.69896 114.58125 235.90208Q115.70625 236.21458 116.14375 236.40208Q116.58125 236.58958 116.83125 236.94896Q117.08125 237.30833 117.08125 237.85521Q117.08125 238.38646 116.76875 238.85521Q116.47188 239.30833 115.89375 239.57396Q115.31563 239.82396 114.58125 239.82396Q113.3625 239.82396 112.72188 239.32396Q112.09688 238.80833 111.925 237.82396Z" fill-rule="nonzero"/><path fill="#000000" d="M85.09688 275.58438L86.15938 275.49063Q86.2375 276.14688 86.51875 276.55313Q86.8 276.95938 87.37813 277.225Q87.97188 277.475 88.70625 277.475Q89.34688 277.475 89.84688 277.2875Q90.34688 277.08438 90.58125 276.75626Q90.83125 276.4125 90.83125 276.02188Q90.83125 275.61563 90.59688 275.31876Q90.3625 275.00626 89.83125 274.80313Q89.47188 274.6625 88.28438 274.38126Q87.1125 274.1 86.64375 273.85Q86.01875 273.52188 85.72188 273.05313Q85.425 272.56876 85.425 271.975Q85.425 271.33438 85.78438 270.77188Q86.15938 270.19376 86.8625 269.9125Q87.58125 269.61563 88.44063 269.61563Q89.39375 269.61563 90.12813 269.92813Q90.8625 270.225 91.25313 270.83438Q91.64375 271.42813 91.675 272.17813L90.58125 272.25626Q90.4875 271.44376 89.97188 271.0375Q89.47188 270.61563 88.4875 270.61563Q87.45625 270.61563 86.9875 270.99063Q86.51875 271.36563 86.51875 271.89688Q86.51875 272.36563 86.84688 272.6625Q87.175 272.95938 88.55 273.27188Q89.94063 273.58438 90.45625 273.81876Q91.20625 274.17813 91.56563 274.70938Q91.925 275.225 91.925 275.92813Q91.925 276.61563 91.53438 277.225Q91.14375 277.81876 90.40938 278.1625Q89.675 278.49063 88.75313 278.49063Q87.58125 278.49063 86.78438 278.1625Q86.00313 277.81876 85.55 277.13126Q85.1125 276.44376 85.09688 275.58438ZM97.425 278.35L97.425 277.42813Q96.69063 278.49063 95.44063 278.49063Q94.89375 278.49063 94.40938 278.2875Q93.94063 278.06876 93.70625 277.75626Q93.47188 277.42813 93.37813 276.95938Q93.31563 276.6625 93.31563 275.975L93.31563 272.13126L94.37813 272.13126L94.37813 275.58438Q94.37813 276.39688 94.44063 276.69376Q94.53438 277.1 94.84688 277.35Q95.175 277.58438 95.65938 277.58438Q96.12813 277.58438 96.53438 277.35Q96.95625 277.1 97.12813 276.67813Q97.31563 276.25626 97.31563 275.45938L97.31563 272.13126L98.3625 272.13126L98.3625 278.35L97.425 278.35ZM100.34688 278.35L100.34688 272.13126L101.28438 272.13126L101.28438 273.00626Q101.97188 271.99063 103.26875 271.99063Q103.83125 271.99063 104.3 272.19376Q104.78438 272.39688 105.01875 272.725Q105.25313 273.05313 105.34688 273.49063Q105.39375 273.7875 105.39375 274.52188L105.39375 278.35L104.34688 278.35L104.34688 274.56876Q104.34688 273.9125 104.22188 273.6Q104.09688 273.2875 103.78438 273.1Q103.47188 272.89688 103.05 272.89688Q102.37813 272.89688 101.87813 273.33438Q101.39375 273.75626 101.39375 274.94376L101.39375 278.35L100.34688 278.35ZM107.34688 278.35L107.34688 272.13126L108.28438 272.13126L108.28438 273.00626Q108.97188 271.99063 110.26875 271.99063Q110.83125 271.99063 111.3 272.19376Q111.78438 272.39688 112.01875 272.725Q112.25313 273.05313 112.34688 273.49063Q112.39375 273.7875 112.39375 274.52188L112.39375 278.35L111.34688 278.35L111.34688 274.56876Q111.34688 273.9125 111.22188 273.6Q111.09688 273.2875 110.78438 273.1Q110.47188 272.89688 110.05 272.89688Q109.37813 272.89688 108.87813 273.33438Q108.39375 273.75626 108.39375 274.94376L108.39375 278.35L107.34688 278.35ZM114.3 280.74063L114.175 279.75626Q114.51875 279.85 114.78438 279.85Q115.12813 279.85 115.33125 279.725Q115.55 279.61563 115.69063 279.4125Q115.78438 279.24063 116.01875 278.61563Q116.03438 278.5375 116.1125 278.36563L113.7375 272.13126L114.87813 272.13126L116.175 275.725Q116.425 276.4125 116.62813 277.17813Q116.81563 276.44376 117.06563 275.75626L118.39375 272.13126L119.44063 272.13126L117.08125 278.45938Q116.69063 279.475 116.4875 279.86563Q116.20625 280.39688 115.83125 280.63126Q115.47188 280.88126 114.97188 280.88126Q114.675 280.88126 114.3 280.74063Z" fill-rule="nonzero"/><path fill="#000000" d="M121.55 313.21564Q121.55 311.6844 121.8625 310.7625Q122.175 309.825 122.78438 309.325Q123.40938 308.825 124.34688 308.825Q125.03438 308.825 125.55 309.10626Q126.08125 309.3875 126.425 309.91876Q126.76875 310.4344 126.95625 311.1844Q127.14375 311.9344 127.14375 313.21564Q127.14375 314.73126 126.83125 315.65314Q126.53438 316.575 125.90938 317.09064Q125.3 317.59064 124.34688 317.59064Q123.1125 317.59064 122.39375 316.7Q121.55 315.6375 121.55 313.21564ZM122.62813 313.21564Q122.62813 315.325 123.12813 316.02814Q123.62813 316.73126 124.34688 316.73126Q125.08125 316.73126 125.56563 316.02814Q126.06563 315.325 126.06563 313.21564Q126.06563 311.09064 125.56563 310.40314Q125.08125 309.7 124.33125 309.7Q123.6125 309.7 123.175 310.3094Q122.62813 311.09064 122.62813 313.21564Z" fill-rule="nonzero"/><path fill="#000000" d="M274.31876 317.45L273.27188 317.45L273.27188 310.73126Q272.88126 311.09064 272.25626 311.46564Q271.64688 311.825 271.1625 311.9969L271.1625 310.98126Q272.0375 310.5594 272.69376 309.98126Q273.36563 309.3875 273.64688 308.825L274.31876 308.825L274.31876 317.45ZM277.35 313.21564Q277.35 311.6844 277.6625 310.7625Q277.975 309.825 278.58438 309.325Q279.20938 308.825 280.14688 308.825Q280.83438 308.825 281.35 309.10626Q281.88126 309.3875 282.225 309.91876Q282.56876 310.4344 282.75626 311.1844Q282.94376 311.9344 282.94376 313.21564Q282.94376 314.73126 282.63126 315.65314Q282.33438 316.575 281.70938 317.09064Q281.1 317.59064 280.14688 317.59064Q278.9125 317.59064 278.19376 316.7Q277.35 315.6375 277.35 313.21564ZM278.42813 313.21564Q278.42813 315.325 278.92813 316.02814Q279.42813 316.73126 280.14688 316.73126Q280.88126 316.73126 281.36563 316.02814Q281.86563 315.325 281.86563 313.21564Q281.86563 311.09064 281.36563 310.40314Q280.88126 309.7 280.13126 309.7Q279.4125 309.7 278.975 310.3094Q278.42813 311.09064 278.42813 313.21564Z" fill-rule="nonzero"/><path fill="#000000" d="M428.19687 316.4344L428.19687 317.45L422.50937 317.45Q422.50937 317.075 422.63437 316.71564Q422.85312 316.1375 423.32187 315.575Q423.80624 315.0125 424.7125 314.27814Q426.11874 313.1219 426.60312 312.45Q427.10312 311.77814 427.10312 311.1844Q427.10312 310.5594 426.65 310.1375Q426.19687 309.7 425.47812 309.7Q424.7125 309.7 424.25937 310.15314Q423.80624 310.60626 423.79062 311.41876L422.7125 311.3094Q422.82187 310.09064 423.54062 309.46564Q424.275 308.825 425.50937 308.825Q426.74374 308.825 427.4625 309.5125Q428.18124 310.2 428.18124 311.21564Q428.18124 311.73126 427.9625 312.23126Q427.75937 312.71564 427.25937 313.27814Q426.775 313.825 425.65 314.77814Q424.69687 315.575 424.41562 315.8719Q424.15 316.15314 423.97812 316.4344L428.19687 316.4344ZM429.65 313.21564Q429.65 311.6844 429.9625 310.7625Q430.275 309.825 430.88437 309.325Q431.50937 308.825 432.44687 308.825Q433.13437 308.825 433.65 309.10626Q434.18124 309.3875 434.525 309.91876Q434.86874 310.4344 435.05624 311.1844Q435.24374 311.9344 435.24374 313.21564Q435.24374 314.73126 434.93124 315.65314Q434.63437 316.575 434.00937 317.09064Q433.4 317.59064 432.44687 317.59064Q431.2125 317.59064 430.49374 316.7Q429.65 315.6375 429.65 313.21564ZM430.72812 313.21564Q430.72812 315.325 431.22812 316.02814Q431.72812 316.73126 432.44687 316.73126Q433.18124 316.73126 433.66562 316.02814Q434.16562 315.325 434.16562 313.21564Q434.16562 311.09064 433.66562 310.40314Q433.18124 309.7 432.43124 309.7Q431.7125 309.7 431.275 310.3094Q430.72812 311.09064 430.72812 313.21564Z" fill-rule="nonzero"/><path fill="#000000" d="M574.95 315.1844L576.0125 315.04376Q576.1844 315.9344 576.6219 316.34064Q577.0594 316.73126 577.6844 316.73126Q578.4344 316.73126 578.95 316.21564Q579.46564 315.7 579.46564 314.9344Q579.46564 314.21564 578.98126 313.7469Q578.5125 313.2625 577.77814 313.2625Q577.48126 313.2625 577.02814 313.3875L577.15314 312.45Q577.2625 312.46564 577.325 312.46564Q577.9969 312.46564 578.52814 312.1219Q579.075 311.7625 579.075 311.02814Q579.075 310.45 578.6844 310.075Q578.29376 309.6844 577.66876 309.6844Q577.0594 309.6844 576.6375 310.075Q576.23126 310.46564 576.1219 311.23126L575.0594 311.04376Q575.2469 309.9969 575.9344 309.41876Q576.6219 308.825 577.6375 308.825Q578.34064 308.825 578.9344 309.1375Q579.52814 309.4344 579.84064 309.95Q580.15314 310.46564 580.15314 311.0594Q580.15314 311.60626 579.85626 312.075Q579.5594 312.52814 578.98126 312.79376Q579.73126 312.96564 580.15314 313.52814Q580.575 314.075 580.575 314.91876Q580.575 316.04376 579.7469 316.825Q578.9344 317.60626 577.6844 317.60626Q576.5594 317.60626 575.8094 316.9344Q575.0594 316.2469 574.95 315.1844ZM581.95 313.21564Q581.95 311.6844 582.2625 310.7625Q582.575 309.825 583.1844 309.325Q583.8094 308.825 584.7469 308.825Q585.4344 308.825 585.95 309.10626Q586.48126 309.3875 586.825 309.91876Q587.16876 310.4344 587.35626 311.1844Q587.54376 311.9344 587.54376 313.21564Q587.54376 314.73126 587.23126 315.65314Q586.9344 316.575 586.3094 317.09064Q585.7 317.59064 584.7469 317.59064Q583.5125 317.59064 582.79376 316.7Q581.95 315.6375 581.95 313.21564ZM583.02814 313.21564Q583.02814 315.325 583.52814 316.02814Q584.02814 316.73126 584.7469 316.73126Q585.48126 316.73126 585.96564 316.02814Q586.46564 315.325 586.46564 313.21564Q586.46564 311.09064 585.96564 310.40314Q585.48126 309.7 584.73126 309.7Q584.0125 309.7 583.575 310.3094Q583.02814 311.09064 583.02814 313.21564Z" fill-rule="nonzero"/><path fill="#757575" d="M18.51875 37.55L24.01875 23.2375L26.065624 23.2375L31.925 37.55L29.76875 37.55L28.096874 33.20625L22.1125 33.20625L20.534374 37.55L18.51875 37.55ZM22.659374 31.675L27.503124 31.675L26.01875 27.70625Q25.33125 25.89375 25.003124 24.7375Q24.721874 26.1125 24.221874 27.471874L22.659374 31.675ZM37.190624 37.55L31.64375 23.2375L33.690624 23.2375L37.409374 33.628124Q37.8625 34.878124 38.159374 35.971874Q38.4875 34.8 38.940624 33.628124L42.8 23.2375L44.7375 23.2375L39.128124 37.55L37.190624 37.55ZM46.128124 37.55L46.128124 23.2375L56.4875 23.2375L56.4875 24.925L48.034374 24.925L48.034374 29.3L55.940624 29.3L55.940624 30.9875L48.034374 30.9875L48.034374 35.8625L56.815624 35.8625L56.815624 37.55L46.128124 37.55ZM59.128124 37.55L59.128124 23.2375L65.47188 23.2375Q67.37813 23.2375 68.37813 23.628124Q69.37813 24.003124 69.97188 24.9875Q70.56563 25.95625 70.56563 27.14375Q70.56563 28.659374 69.58125 29.70625Q68.59688 30.753124 66.53438 31.034374Q67.28438 31.39375 67.675 31.753124Q68.50313 32.503124 69.25313 33.659374L71.7375 37.55L69.3625 37.55L67.45625 34.565624Q66.62813 33.284374 66.09688 32.596874Q65.56563 31.909374 65.12813 31.64375Q64.70625 31.3625 64.26875 31.253124Q63.940624 31.190624 63.221874 31.190624L61.01875 31.190624L61.01875 37.55L59.128124 37.55ZM61.01875 29.55L65.09688 29.55Q66.39375 29.55 67.1125 29.284374Q67.84688 29.01875 68.22188 28.425Q68.6125 27.83125 68.6125 27.14375Q68.6125 26.128124 67.87813 25.471874Q67.14375 24.815624 65.55 24.815624L61.01875 24.815624L61.01875 29.55ZM71.51875 37.55L77.01875 23.2375L79.06563 23.2375L84.925 37.55L82.76875 37.55L81.09688 33.20625L75.1125 33.20625L73.53438 37.55L71.51875 37.55ZM75.65938 31.675L80.50313 31.675L79.01875 27.70625Q78.33125 25.89375 78.00313 24.7375Q77.72188 26.1125 77.22188 27.471874L75.65938 31.675ZM92.8 31.940624L92.8 30.253124L98.8625 30.2375L98.8625 35.55Q97.45625 36.675 95.97188 37.2375Q94.4875 37.8 92.925 37.8Q90.81563 37.8 89.09688 36.89375Q87.37813 35.9875 86.4875 34.284374Q85.6125 32.565624 85.6125 30.45625Q85.6125 28.3625 86.4875 26.565624Q87.3625 24.753124 89.00313 23.878124Q90.64375 22.9875 92.78438 22.9875Q94.33125 22.9875 95.58125 23.4875Q96.84688 23.9875 97.55 24.89375Q98.26875 25.784374 98.64375 27.2375L96.94063 27.70625Q96.6125 26.6125 96.12813 25.9875Q95.65938 25.3625 94.76875 24.9875Q93.87813 24.6125 92.8 24.6125Q91.4875 24.6125 90.53438 25.003124Q89.59688 25.39375 89.01875 26.05Q88.44063 26.690624 88.1125 27.45625Q87.56563 28.784374 87.56563 30.346874Q87.56563 32.253124 88.22188 33.55Q88.89375 34.83125 90.14375 35.45625Q91.40938 36.08125 92.81563 36.08125Q94.05 36.08125 95.22188 35.6125Q96.39375 35.14375 97.00313 34.596874L97.00313 31.940624L92.8 31.940624ZM102.12813 37.55L102.12813 23.2375L112.4875 23.2375L112.4875 24.925L104.03438 24.925L104.03438 29.3L111.94063 29.3L111.94063 30.9875L104.03438 30.9875L104.03438 35.8625L112.81563 35.8625L112.81563 37.55L102.12813 37.55ZM120.22188 32.3625Q120.22188 29.4875 121.81563 28.096874Q123.15938 26.940624 125.08125 26.940624Q127.22188 26.940624 128.56563 28.346874Q129.925 29.753124 129.925 32.221874Q129.925 34.221874 129.33125 35.378124Q128.7375 36.51875 127.58125 37.159374Q126.44063 37.784374 125.08125 37.784374Q122.89375 37.784374 121.55 36.39375Q120.22188 34.9875 120.22188 32.3625ZM122.01875 32.3625Q122.01875 34.3625 122.87813 35.346874Q123.75313 36.33125 125.08125 36.33125Q126.39375 36.33125 127.25313 35.346874Q128.12813 34.346874 128.12813 32.3Q128.12813 30.378124 127.25313 29.39375Q126.37813 28.39375 125.08125 28.39375Q123.75313 28.39375 122.87813 29.39375Q122.01875 30.378124 122.01875 32.3625ZM132.28438 37.55L132.28438 28.55L130.7375 28.55L130.7375 27.175L132.28438 27.175L132.28438 26.08125Q132.28438 25.034374 132.47188 24.51875Q132.72188 23.83125 133.3625 23.409374Q134.00313 22.9875 135.15938 22.9875Q135.90938 22.9875 136.8 23.159374L136.53438 24.690624Q135.9875 24.596874 135.50313 24.596874Q134.70625 24.596874 134.3625 24.940624Q134.03438 25.284374 134.03438 26.221874L134.03438 27.175L136.06563 27.175L136.06563 28.55L134.03438 28.55L134.03438 37.55L132.28438 37.55ZM147.7375 37.55L147.7375 24.925L143.01875 24.925L143.01875 23.2375L154.3625 23.2375L154.3625 24.925L149.62813 24.925L149.62813 37.55L147.7375 37.55ZM155.87813 25.253124L155.87813 23.2375L157.64375 23.2375L157.64375 25.253124L155.87813 25.253124ZM155.87813 37.55L155.87813 27.175L157.64375 27.175L157.64375 37.55L155.87813 37.55ZM159.8625 37.55L159.8625 27.175L161.44063 27.175L161.44063 28.628124Q161.925 27.878124 162.7375 27.409374Q163.55 26.940624 164.58125 26.940624Q165.7375 26.940624 166.47188 27.425Q167.20625 27.89375 167.51875 28.753124Q168.75313 26.940624 170.72188 26.940624Q172.26875 26.940624 173.09688 27.8Q173.925 28.659374 173.925 30.425L173.925 37.55L172.175 37.55L172.175 31.01875Q172.175 29.95625 172.00313 29.503124Q171.83125 29.034374 171.37813 28.753124Q170.94063 28.471874 170.33125 28.471874Q169.2375 28.471874 168.50313 29.20625Q167.78438 29.925 167.78438 31.51875L167.78438 37.55L166.03438 37.55L166.03438 30.815624Q166.03438 29.64375 165.59688 29.065624Q165.175 28.471874 164.19063 28.471874Q163.45625 28.471874 162.81563 28.8625Q162.19063 29.253124 161.90938 30.003124Q161.62813 30.753124 161.62813 32.175L161.62813 37.55L159.8625 37.55ZM182.97188 34.20625L184.78438 34.440624Q184.3625 36.01875 183.19063 36.909374Q182.03438 37.784374 180.22188 37.784374Q177.95625 37.784374 176.6125 36.39375Q175.28438 34.9875 175.28438 32.45625Q175.28438 29.83125 176.62813 28.39375Q177.97188 26.940624 180.12813 26.940624Q182.20625 26.940624 183.51875 28.3625Q184.84688 29.76875 184.84688 32.346874Q184.84688 32.503124 184.83125 32.815624L177.09688 32.815624Q177.19063 34.51875 178.06563 35.425Q178.94063 36.33125 180.2375 36.33125Q181.20625 36.33125 181.87813 35.83125Q182.56563 35.315624 182.97188 34.20625ZM177.19063 31.3625L182.9875 31.3625Q182.87813 30.065624 182.33125 29.409374Q181.4875 28.39375 180.14375 28.39375Q178.94063 28.39375 178.1125 29.20625Q177.28438 30.003124 177.19063 31.3625ZM196.22188 41.753124Q194.76875 39.925 193.76875 37.471874Q192.76875 35.003124 192.76875 32.3625Q192.76875 30.034374 193.51875 27.909374Q194.39375 25.440624 196.22188 22.9875L197.4875 22.9875Q196.3 25.01875 195.925 25.89375Q195.33125 27.2375 194.9875 28.70625Q194.56563 30.534374 194.56563 32.378124Q194.56563 37.065624 197.4875 41.753124L196.22188 41.753124ZM199.8625 37.55L199.8625 27.175L201.44063 27.175L201.44063 28.628124Q201.925 27.878124 202.7375 27.409374Q203.55 26.940624 204.58125 26.940624Q205.7375 26.940624 206.47188 27.425Q207.20625 27.89375 207.51875 28.753124Q208.75313 26.940624 210.72188 26.940624Q212.26875 26.940624 213.09688 27.8Q213.925 28.659374 213.925 30.425L213.925 37.55L212.175 37.55L212.175 31.01875Q212.175 29.95625 212.00313 29.503124Q211.83125 29.034374 211.37813 28.753124Q210.94063 28.471874 210.33125 28.471874Q209.2375 28.471874 208.50313 29.20625Q207.78438 29.925 207.78438 31.51875L207.78438 37.55L206.03438 37.55L206.03438 30.815624Q206.03438 29.64375 205.59688 29.065624Q205.175 28.471874 204.19063 28.471874Q203.45625 28.471874 202.81563 28.8625Q202.19063 29.253124 201.90938 30.003124Q201.62813 30.753124 201.62813 32.175L201.62813 37.55L199.8625 37.55ZM215.87813 25.253124L215.87813 23.2375L217.64375 23.2375L217.64375 25.253124L215.87813 25.253124ZM215.87813 37.55L215.87813 27.175L217.64375 27.175L217.64375 37.55L215.87813 37.55ZM219.8625 37.55L219.8625 27.175L221.45625 27.175L221.45625 28.659374Q222.59688 26.940624 224.75313 26.940624Q225.69063 26.940624 226.47188 27.284374Q227.26875 27.6125 227.65938 28.159374Q228.05 28.70625 228.20625 29.45625Q228.3 29.95625 228.3 31.175L228.3 37.55L226.53438 37.55L226.53438 31.2375Q226.53438 30.159374 226.33125 29.628124Q226.12813 29.096874 225.59688 28.784374Q225.08125 28.471874 224.37813 28.471874Q223.25313 28.471874 222.44063 29.190624Q221.62813 29.89375 221.62813 31.878124L221.62813 37.55L219.8625 37.55ZM231.01875 41.753124L229.76875 41.753124Q232.675 37.065624 232.675 32.378124Q232.675 30.534374 232.26875 28.7375Q231.925 27.26875 231.33125 25.925Q230.95625 25.034374 229.76875 22.9875L231.01875 22.9875Q232.8625 25.440624 233.7375 27.909374Q234.4875 30.034374 234.4875 32.3625Q234.4875 35.003124 233.47188 37.471874Q232.47188 39.925 231.01875 41.753124ZM245.75313 37.55L241.8 27.175L243.65938 27.175L245.89375 33.39375Q246.25313 34.39375 246.55 35.471874Q246.78438 34.659374 247.20625 33.503124L249.50313 27.175L251.31563 27.175L247.39375 37.55L245.75313 37.55ZM251.15938 34.45625L252.90938 34.175Q253.05 35.221874 253.72188 35.784374Q254.39375 36.33125 255.59688 36.33125Q256.8 36.33125 257.3781 35.846874Q257.97186 35.346874 257.97186 34.690624Q257.97186 34.096874 257.45624 33.753124Q257.09686 33.51875 255.65938 33.159374Q253.72188 32.659374 252.97188 32.315624Q252.2375 31.95625 251.84688 31.33125Q251.45625 30.690624 251.45625 29.925Q251.45625 29.2375 251.76875 28.64375Q252.09688 28.05 252.64375 27.659374Q253.05 27.3625 253.75313 27.159374Q254.47188 26.940624 255.28438 26.940624Q256.5031 26.940624 257.425 27.3Q258.34686 27.64375 258.78436 28.253124Q259.22186 28.846874 259.39374 29.846874L257.675 30.08125Q257.55 29.284374 256.9875 28.846874Q256.425 28.39375 255.40938 28.39375Q254.19063 28.39375 253.675 28.8Q253.15938 29.190624 253.15938 29.721874Q253.15938 30.065624 253.37813 30.346874Q253.58125 30.628124 254.05 30.815624Q254.31563 30.909374 255.59688 31.253124Q257.47186 31.753124 258.20624 32.08125Q258.9406 32.39375 259.3625 33.003124Q259.78436 33.596874 259.78436 34.503124Q259.78436 35.378124 259.26874 36.159374Q258.7531 36.940624 257.78436 37.3625Q256.8156 37.784374 255.59688 37.784374Q253.58125 37.784374 252.51875 36.940624Q251.45625 36.096874 251.15938 34.45625ZM262.3625 37.55L262.3625 35.55L264.3625 35.55L264.3625 37.55L262.3625 37.55ZM276.59686 37.55L272.8 23.2375L274.7375 23.2375L276.90936 32.6125Q277.26874 34.096874 277.51874 35.55Q278.0656 33.253124 278.15936 32.89375L280.89374 23.2375L283.175 23.2375L285.22186 30.471874Q286.0031 33.175 286.34686 35.55Q286.6125 34.190624 287.05 32.425L289.3 23.2375L291.20624 23.2375L287.28436 37.55L285.45624 37.55L282.4406 26.64375Q282.05 25.26875 281.9875 24.95625Q281.7531 25.940624 281.5656 26.64375L278.53436 37.55L276.59686 37.55ZM299.97186 34.20625L301.78436 34.440624Q301.3625 36.01875 300.1906 36.909374Q299.03436 37.784374 297.22186 37.784374Q294.95624 37.784374 293.6125 36.39375Q292.28436 34.9875 292.28436 32.45625Q292.28436 29.83125 293.6281 28.39375Q294.97186 26.940624 297.1281 26.940624Q299.20624 26.940624 300.51874 28.3625Q301.84686 29.76875 301.84686 32.346874Q301.84686 32.503124 301.83124 32.815624L294.09686 32.815624Q294.1906 34.51875 295.0656 35.425Q295.9406 36.33125 297.2375 36.33125Q298.20624 36.33125 298.8781 35.83125Q299.5656 35.315624 299.97186 34.20625ZM294.1906 31.3625L299.9875 31.3625Q299.8781 30.065624 299.33124 29.409374Q298.4875 28.39375 297.14374 28.39375Q295.9406 28.39375 295.1125 29.20625Q294.28436 30.003124 294.1906 31.3625ZM310.64374 36.26875Q309.65936 37.096874 308.7531 37.440624Q307.84686 37.784374 306.8156 37.784374Q305.1125 37.784374 304.1906 36.95625Q303.26874 36.1125 303.26874 34.815624Q303.26874 34.05 303.6125 33.425Q303.97186 32.8 304.53436 32.425Q305.09686 32.034374 305.8 31.83125Q306.3156 31.70625 307.3625 31.565624Q309.4875 31.315624 310.4875 30.971874Q310.5031 30.6125 310.5031 30.503124Q310.5031 29.440624 310.0031 28.9875Q309.33124 28.39375 308.0031 28.39375Q306.7531 28.39375 306.15936 28.83125Q305.58124 29.26875 305.3 30.378124L303.58124 30.14375Q303.8156 29.034374 304.34686 28.3625Q304.8781 27.675 305.89374 27.315624Q306.90936 26.940624 308.2531 26.940624Q309.58124 26.940624 310.40936 27.253124Q311.2375 27.565624 311.6281 28.05Q312.01874 28.51875 312.175 29.2375Q312.26874 29.690624 312.26874 30.8625L312.26874 33.20625Q312.26874 35.659374 312.3781 36.315624Q312.4875 36.95625 312.83124 37.55L310.9875 37.55Q310.72186 37.003124 310.64374 36.26875ZM310.4875 32.346874Q309.53436 32.7375 307.6125 33.003124Q306.53436 33.159374 306.08124 33.3625Q305.64374 33.55 305.39374 33.925Q305.14374 34.3 305.14374 34.76875Q305.14374 35.471874 305.675 35.940624Q306.20624 36.409374 307.2375 36.409374Q308.2531 36.409374 309.03436 35.971874Q309.83124 35.51875 310.20624 34.753124Q310.4875 34.14375 310.4875 32.9875L310.4875 32.346874ZM318.70624 35.971874L318.95624 37.534374Q318.22186 37.690624 317.6281 37.690624Q316.675 37.690624 316.14374 37.39375Q315.6281 37.08125 315.40936 36.596874Q315.1906 36.096874 315.1906 34.51875L315.1906 28.55L313.90936 28.55L313.90936 27.175L315.1906 27.175L315.1906 24.6125L316.9406 23.55L316.9406 27.175L318.70624 27.175L318.70624 28.55L316.9406 28.55L316.9406 34.6125Q316.9406 35.3625 317.03436 35.58125Q317.1281 35.784374 317.33124 35.925Q317.55 36.05 317.9406 36.05Q318.22186 36.05 318.70624 35.971874ZM320.8625 37.55L320.8625 23.2375L322.6281 23.2375L322.6281 28.3625Q323.8625 26.940624 325.7375 26.940624Q326.8781 26.940624 327.72186 27.39375Q328.58124 27.846874 328.9406 28.659374Q329.3156 29.45625 329.3156 30.971874L329.3156 37.55L327.5656 37.55L327.5656 30.971874Q327.5656 29.659374 326.9875 29.065624Q326.40936 28.45625 325.3781 28.45625Q324.59686 28.45625 323.89374 28.8625Q323.20624 29.26875 322.90936 29.971874Q322.6281 30.659374 322.6281 31.878124L322.6281 37.55L320.8625 37.55ZM337.97186 34.20625L339.78436 34.440624Q339.3625 36.01875 338.1906 36.909374Q337.03436 37.784374 335.22186 37.784374Q332.95624 37.784374 331.6125 36.39375Q330.28436 34.9875 330.28436 32.45625Q330.28436 29.83125 331.6281 28.39375Q332.97186 26.940624 335.1281 26.940624Q337.20624 26.940624 338.51874 28.3625Q339.84686 29.76875 339.84686 32.346874Q339.84686 32.503124 339.83124 32.815624L332.09686 32.815624Q332.1906 34.51875 333.0656 35.425Q333.9406 36.33125 335.2375 36.33125Q336.20624 36.33125 336.8781 35.83125Q337.5656 35.315624 337.97186 34.20625ZM332.1906 31.3625L337.9875 31.3625Q337.8781 30.065624 337.33124 29.409374Q336.4875 28.39375 335.14374 28.39375Q333.9406 28.39375 333.1125 29.20625Q332.28436 30.003124 332.1906 31.3625ZM341.84686 37.55L341.84686 27.175L343.425 27.175L343.425 28.753124Q344.03436 27.64375 344.55 27.3Q345.0656 26.940624 345.675 26.940624Q346.5656 26.940624 347.4875 27.503124L346.8781 29.14375Q346.2375 28.753124 345.59686 28.753124Q345.01874 28.753124 344.55 29.1125Q344.09686 29.45625 343.89374 30.065624Q343.6125 31.003124 343.6125 32.1125L343.6125 37.55L341.84686 37.55Z" fill-rule="nonzero"/></svg>